<svg id="svg" xmlns="http://www.w3.org/2000/svg" xmlns:xlink="http://www.w3.org/1999/xlink" width="300" height="250" viewBox="0, 0, 400,400"><g id="svgg"><path id="path0" d="M350.133 286.971 C 341.636 295.828,335.271 297.051,334.584 289.960 C 334.391 287.970,334.184 288.030,333.105 290.391 C 331.026 294.942,327.421 297.018,323.914 295.684 C 322.719 295.230,319.800 292.356,319.466 291.306 C 319.028 289.923,318.624 290.757,318.570 293.162 C 318.511 295.783,317.436 298.277,314.631 302.304 C 312.311 305.635,311.612 307.339,311.548 309.819 L 311.521 310.883 310.845 310.004 C 308.528 306.986,304.611 299.331,303.605 295.853 C 302.671 292.622,302.631 292.409,302.442 289.585 C 302.166 285.484,302.108 285.346,300.655 285.346 C 297.078 285.346,296.848 287.411,299.691 294.009 C 302.322 300.117,306.392 307.295,308.664 309.833 C 309.611 310.892,309.457 311.145,308.111 310.741 C 305.870 310.069,301.257 310.263,297.825 311.173 C 295.739 311.726,293.107 311.502,290.783 310.575 C 288.486 309.658,288.087 309.931,289.337 311.563 C 290.862 313.554,291.291 315.702,290.696 318.369 C 290.184 320.665,286.546 322.562,282.436 322.676 C 280.214 322.737,279.572 323.061,280.829 323.486 C 283.228 324.296,284.787 327.374,283.892 329.533 C 283.054 331.559,277.750 334.936,272.149 337.013 C 267.869 338.600,267.716 338.837,271.178 338.518 C 276.310 338.045,285.162 338.190,285.847 338.759 C 286.707 339.473,286.596 340.698,285.530 342.269 C 285.023 343.016,284.608 343.709,284.608 343.808 C 284.608 344.013,286.169 343.236,286.452 342.890 C 287.543 341.556,294.855 337.349,296.590 337.057 C 298.404 336.751,298.675 336.823,299.251 337.758 C 300.119 339.165,299.427 341.183,297.132 343.941 C 295.489 345.916,293.971 347.320,288.648 351.796 L 287.005 353.177 289.217 353.179 C 295.479 353.184,295.817 357.032,290.101 363.269 C 287.641 365.954,287.632 366.031,289.882 365.018 C 293.941 363.190,295.780 363.824,296.780 367.393 C 297.661 370.540,296.711 378.207,295.218 380.006 C 294.609 380.740,295.030 380.836,295.863 380.153 C 297.578 378.746,300.808 374.491,302.964 370.799 C 304.231 368.628,305.634 366.596,306.080 366.283 C 308.392 364.664,311.361 366.637,312.095 370.280 C 312.172 370.663,312.323 371.063,312.431 371.171 C 313.000 371.741,313.189 370.212,313.277 364.301 C 313.383 357.189,313.769 354.169,314.869 351.854 C 315.926 349.630,316.879 349.331,320.581 350.061 C 322.175 350.376,327.155 357.389,326.947 359.028 C 326.931 359.157,326.958 359.387,327.007 359.539 C 327.236 360.244,327.284 360.676,327.327 362.396 C 327.380 364.521,327.684 364.692,328.613 363.120 C 332.380 356.743,341.382 361.902,341.382 370.436 C 341.382 372.207,341.852 372.678,342.406 371.462 C 344.668 366.498,347.996 367.143,355.186 373.942 C 357.507 376.137,359.410 377.073,357.678 375.168 C 356.854 374.262,353.518 368.525,353.413 367.833 C 353.375 367.580,353.211 367.162,353.050 366.903 C 351.391 364.248,352.494 361.840,355.561 361.420 C 356.995 361.223,357.988 360.553,356.846 360.553 C 355.535 360.553,349.899 355.828,348.168 353.278 C 345.917 349.961,348.159 346.942,353.344 346.308 C 355.690 346.021,355.620 345.786,352.759 344.368 C 343.761 339.908,340.210 331.519,347.407 331.723 C 349.522 331.782,353.332 333.069,358.894 335.603 C 362.794 337.380,365.346 338.078,365.346 337.368 C 365.346 337.143,365.179 336.959,364.976 336.959 C 364.231 336.959,362.087 334.258,361.857 333.030 C 361.318 330.156,362.445 329.422,368.573 328.653 C 374.342 327.929,374.665 327.865,377.972 326.777 C 381.183 325.722,381.537 325.310,379.311 325.223 C 373.741 325.004,368.007 322.538,366.493 319.709 C 365.633 318.102,365.997 317.025,368.113 314.908 C 370.612 312.410,370.632 312.427,366.813 313.780 C 359.127 316.504,355.719 314.534,358.130 308.763 C 358.913 306.889,359.035 306.882,354.754 308.962 C 345.372 313.523,339.539 314.174,339.539 310.662 C 339.539 310.050,341.586 307.808,343.297 306.544 C 345.170 305.161,347.421 303.724,349.401 302.648 C 352.280 301.085,352.273 300.943,349.326 301.130 C 345.236 301.391,346.045 296.867,351.978 286.307 C 353.589 283.440,353.485 283.477,350.133 286.971 " stroke="none" fill="#dc7404" fill-rule="evenodd"></path><path id="path1" d="M151.000 19.126 C 149.318 21.417,146.575 26.750,144.908 30.968 C 143.206 35.275,143.763 34.981,135.812 35.764 C 128.198 36.514,127.289 36.897,126.599 39.646 C 126.258 41.008,126.179 41.000,132.493 40.190 C 135.674 39.781,139.000 39.447,139.883 39.447 L 141.490 39.447 140.202 43.410 C 137.552 51.570,134.681 64.315,133.995 70.968 C 133.704 73.786,132.433 76.688,128.820 82.776 C 123.531 91.692,121.710 91.359,121.691 81.475 C 121.681 76.064,121.855 74.300,123.377 64.377 L 124.388 57.786 123.547 57.105 C 122.430 56.200,120.426 55.673,118.099 55.670 L 116.198 55.668 115.093 58.341 C 114.485 59.811,112.252 65.327,110.130 70.599 C 103.764 86.414,101.112 91.982,99.944 91.982 C 96.387 91.982,97.297 75.262,101.545 62.582 C 102.432 59.933,102.694 58.681,102.429 58.362 C 101.979 57.819,98.318 56.406,97.362 56.406 C 95.417 56.406,91.468 65.494,89.770 73.880 C 88.287 81.201,79.994 99.539,78.167 99.539 C 76.572 99.539,78.451 87.362,82.574 70.984 C 84.410 63.693,84.411 63.634,82.613 61.924 C 78.723 58.223,73.949 58.547,72.934 62.580 L 72.537 64.155 71.937 62.990 C 69.956 59.145,60.316 56.351,56.368 58.478 C 44.017 65.134,36.957 88.440,45.528 94.264 C 50.855 97.884,54.097 96.003,61.948 84.739 C 66.073 78.821,68.564 75.789,68.968 76.197 C 69.132 76.362,68.698 78.903,68.003 81.843 C 64.377 97.188,65.271 101.540,72.786 105.111 C 79.450 108.278,81.963 106.129,87.180 92.804 L 88.757 88.774 89.366 91.508 C 89.700 93.012,90.230 94.608,90.543 95.054 C 91.929 97.034,98.413 98.930,100.517 97.972 C 102.454 97.089,107.347 88.399,110.906 79.522 C 111.703 77.535,112.433 75.831,112.530 75.734 C 112.627 75.637,112.822 77.760,112.964 80.452 C 113.491 90.422,115.504 94.680,120.098 95.539 C 124.063 96.279,127.164 93.887,131.005 87.122 L 133.346 82.999 133.574 89.149 C 134.112 103.648,137.692 110.916,144.370 111.073 C 148.499 111.169,152.920 104.936,159.290 90.039 L 160.909 86.253 161.319 89.123 C 162.057 94.284,162.999 95.876,166.083 97.169 C 168.435 98.155,172.174 98.504,173.202 97.835 C 175.196 96.537,179.808 88.148,183.259 79.539 C 185.204 74.690,185.315 74.785,185.537 81.475 C 185.832 90.353,187.838 94.570,192.194 95.468 C 196.503 96.355,199.682 93.967,203.465 87.005 L 204.967 84.240 204.972 87.963 C 204.979 92.826,206.463 95.220,210.876 97.482 C 215.894 100.055,215.950 99.992,224.040 82.636 C 229.158 71.657,231.535 67.285,233.758 64.759 C 235.103 63.231,236.318 62.545,236.311 63.318 C 236.304 64.080,234.618 70.439,232.230 78.710 C 227.775 94.146,229.104 99.503,237.558 100.181 L 239.947 100.373 241.215 98.389 C 243.008 95.582,244.506 92.519,249.603 81.244 C 260.114 57.989,262.170 56.144,257.153 74.470 C 252.352 92.004,252.414 95.713,257.586 100.265 C 262.485 104.577,266.247 104.139,270.448 98.767 C 273.041 95.450,273.343 94.949,276.970 87.926 C 278.750 84.479,280.128 82.157,280.033 82.765 C 278.644 91.585,279.976 95.255,285.120 96.782 C 289.122 97.971,290.000 97.522,289.825 94.378 C 289.390 86.532,306.771 55.479,310.330 57.747 C 311.260 58.339,311.055 59.111,307.847 67.097 C 300.349 85.765,299.868 92.376,305.673 96.964 C 312.532 102.385,316.431 99.019,328.102 77.600 C 329.976 74.160,331.741 71.016,332.022 70.613 C 332.724 69.612,332.694 67.135,331.977 66.860 C 330.869 66.435,329.423 68.372,324.235 77.235 C 311.118 99.644,307.934 96.848,317.199 71.056 C 321.550 58.943,322.222 55.347,320.639 52.652 C 318.302 48.675,313.595 47.130,310.562 49.345 C 305.978 52.692,296.262 66.330,291.784 75.704 C 289.041 81.445,289.123 78.420,291.978 68.517 C 294.836 58.605,294.836 58.605,291.148 56.790 C 287.901 55.192,285.138 54.890,284.633 56.079 C 284.022 57.518,283.218 61.060,282.249 66.589 C 281.404 71.409,281.214 71.985,279.700 74.331 C 278.800 75.726,276.447 79.770,274.470 83.318 C 262.811 104.247,261.280 100.961,269.679 73.039 C 271.184 68.036,272.679 62.804,273.002 61.412 L 273.589 58.880 272.541 57.182 C 270.113 53.247,264.905 51.276,261.538 53.019 C 256.790 55.476,251.919 63.045,244.824 78.986 C 243.132 82.788,241.603 85.899,241.427 85.899 C 240.366 85.899,241.308 81.393,244.625 70.590 C 247.572 60.991,247.520 60.239,243.642 56.361 C 236.310 49.029,227.791 58.608,217.128 86.175 C 214.371 93.301,214.259 90.597,216.781 77.797 C 217.564 73.824,218.414 69.128,218.669 67.362 L 219.133 64.150 217.897 62.874 C 214.516 59.386,209.032 57.863,209.032 60.412 C 209.032 64.020,207.243 71.427,205.565 74.770 C 201.506 82.850,197.332 89.217,196.093 89.217 C 193.298 89.217,193.229 79.737,195.906 63.347 C 197.008 56.603,196.726 56.139,191.291 55.751 C 188.309 55.537,189.065 54.373,184.004 66.973 C 175.034 89.302,173.257 92.816,171.542 91.614 C 168.777 89.678,170.024 74.244,173.874 62.734 C 175.050 59.222,175.108 58.851,174.573 58.261 C 174.018 57.648,170.787 56.406,169.746 56.406 C 168.057 56.406,163.964 65.322,162.383 72.442 C 161.095 78.247,148.136 104.332,146.540 104.332 C 145.478 104.332,144.951 99.957,144.650 88.664 C 144.299 75.474,145.892 61.888,149.879 44.055 C 151.309 37.659,150.444 38.322,158.525 37.426 C 172.709 35.852,173.867 35.543,172.206 33.775 C 171.305 32.817,170.635 32.814,159.263 33.736 C 151.926 34.331,152.145 34.498,154.395 30.001 C 158.153 22.489,158.485 20.509,156.285 18.734 C 153.918 16.825,152.619 16.921,151.000 19.126 M66.921 64.661 C 67.891 66.142,67.989 67.931,67.197 69.718 C 65.261 74.090,58.284 84.045,55.098 86.981 C 48.813 92.774,54.406 72.275,60.983 65.411 C 62.925 63.384,65.842 63.016,66.921 64.661 M201.730 110.222 C 193.582 116.124,176.724 147.274,169.203 170.323 C 167.038 176.958,166.374 177.975,165.833 175.484 C 163.749 165.896,161.902 142.015,162.393 130.996 L 162.642 125.403 161.610 124.729 C 158.918 122.971,152.745 124.335,152.148 126.820 C 151.601 129.096,151.399 149.840,151.863 155.967 C 152.895 169.575,155.817 183.133,158.940 188.803 C 160.012 190.751,164.943 193.548,167.302 193.548 L 168.664 193.548 170.443 187.926 C 176.949 167.367,187.993 143.257,197.420 129.032 C 202.373 121.559,206.025 117.464,211.466 113.280 L 212.535 112.458 211.274 111.358 C 208.489 108.925,204.220 108.417,201.730 110.222 M284.608 115.608 C 284.101 115.689,282.525 115.944,281.106 116.174 C 270.555 117.884,253.998 127.380,242.992 138.034 C 231.020 149.624,229.505 157.152,238.275 161.470 C 242.084 163.345,243.196 163.369,252.171 161.766 C 256.528 160.988,262.995 159.846,266.544 159.230 C 285.261 155.978,287.320 159.465,275.125 173.761 C 268.639 181.365,257.099 187.646,259.302 182.375 C 260.842 178.689,271.036 171.470,276.144 170.449 C 278.141 170.049,277.319 168.481,274.976 168.218 C 273.090 168.007,270.000 168.950,266.032 170.947 C 251.333 178.343,247.983 191.072,260.220 193.029 C 268.821 194.405,287.696 178.172,291.982 165.712 C 294.067 159.652,291.612 154.713,284.861 151.385 C 280.059 149.019,279.347 149.018,258.125 151.366 C 251.568 152.092,246.107 152.589,245.989 152.471 C 244.027 150.509,266.617 132.329,278.282 126.481 C 288.455 121.381,296.037 121.376,296.037 126.468 C 296.037 129.356,291.343 135.217,287.236 137.456 L 285.255 138.536 286.848 140.264 C 290.619 144.355,293.467 143.916,296.861 138.721 C 301.657 131.381,302.611 123.592,299.209 119.558 C 297.070 117.021,289.148 114.877,284.608 115.608 M135.675 117.880 C 134.214 119.632,130.691 126.817,124.964 139.724 C 116.427 158.963,111.138 168.714,108.359 170.338 C 106.411 171.477,105.705 172.645,106.245 173.832 C 106.687 174.801,102.671 180.311,100.657 181.501 C 98.538 182.753,99.754 184.974,103.189 186.124 C 106.246 187.148,107.950 185.829,111.557 179.647 C 116.456 171.249,119.822 169.218,129.566 168.779 C 133.213 168.615,133.112 168.279,133.001 180.276 C 132.877 193.630,133.417 195.426,137.712 195.963 C 140.142 196.266,143.350 195.673,144.556 194.696 L 145.356 194.048 144.413 191.678 C 142.071 185.797,142.071 170.609,144.413 168.267 C 145.185 167.495,148.268 167.722,149.266 168.625 C 150.068 169.351,150.405 168.654,150.404 166.267 C 150.403 164.025,149.354 163.318,146.028 163.318 C 144.193 163.318,143.737 163.191,143.416 162.592 C 142.744 161.337,143.596 139.398,144.683 129.954 C 145.911 119.281,146.162 119.995,140.318 117.557 C 137.107 116.218,137.059 116.221,135.675 117.880 M88.507 118.186 C 76.129 122.402,65.465 136.514,68.739 144.348 C 69.535 146.253,72.717 149.421,74.828 150.410 C 77.197 151.519,77.225 151.442,73.641 153.644 C 62.451 160.517,54.874 172.346,56.394 180.567 C 56.860 183.085,56.895 183.050,53.358 183.635 C 48.277 184.476,48.279 183.913,53.446 161.659 C 58.669 139.162,60.001 132.027,60.177 125.597 L 60.276 121.978 58.927 120.737 C 57.398 119.333,53.543 117.972,51.092 117.972 L 49.543 117.972 49.097 126.728 C 48.435 139.744,47.026 149.807,43.147 169.217 C 41.952 175.198,40.861 181.502,40.723 183.226 C 40.425 186.958,40.043 187.664,37.715 188.791 C 33.671 190.749,32.012 193.196,33.021 195.717 C 33.703 197.421,34.442 197.844,35.105 196.910 C 36.555 194.867,42.643 192.426,43.969 193.355 C 45.235 194.241,46.095 194.027,47.537 192.465 C 49.836 189.974,59.352 187.916,61.500 189.446 C 65.605 192.368,72.319 192.535,79.802 189.899 C 81.012 189.473,82.297 189.219,82.660 189.334 C 83.022 189.449,83.318 189.367,83.318 189.153 C 83.318 188.939,84.853 187.998,86.728 187.064 C 101.859 179.524,111.215 167.287,105.299 162.775 C 103.368 161.302,102.629 161.507,102.348 163.594 C 101.694 168.457,95.094 175.376,85.965 180.771 L 82.565 182.780 80.821 182.205 C 79.493 181.767,77.481 181.633,72.370 181.642 L 65.662 181.653 65.273 179.841 C 64.469 176.089,65.347 174.097,70.565 167.840 C 77.931 159.006,86.320 154.454,91.632 156.407 C 93.542 157.109,94.660 153.921,93.346 151.521 C 92.781 150.487,92.189 150.067,90.375 149.412 C 84.378 147.245,77.844 143.468,76.903 141.625 C 74.417 136.756,85.827 123.808,93.119 123.223 C 97.159 122.898,97.233 123.362,93.680 126.761 C 90.664 129.646,90.603 129.738,90.853 131.069 C 91.282 133.355,91.755 134.315,92.264 133.930 C 100.074 128.033,101.833 125.807,101.032 122.831 C 99.750 118.073,94.527 116.136,88.507 118.186 M214.931 117.931 C 201.784 122.186,190.648 137.119,194.855 144.850 C 196.115 147.164,198.369 149.305,200.888 150.582 C 203.187 151.747,203.189 151.664,200.829 152.849 C 182.590 162.010,176.009 184.573,189.743 190.861 C 203.786 197.290,240.829 172.553,231.352 163.075 C 230.108 161.832,228.670 161.455,228.404 162.304 C 228.325 162.558,228.164 163.350,228.046 164.066 C 227.004 170.382,214.622 180.736,203.204 184.838 C 192.172 188.802,186.886 180.196,194.307 170.356 C 202.154 159.953,212.179 153.963,217.575 156.454 C 218.552 156.905,219.724 155.471,219.722 153.825 C 219.720 151.867,218.601 150.218,216.895 149.662 C 212.142 148.111,205.959 144.810,203.594 142.562 C 199.092 138.279,210.800 123.751,219.188 123.213 C 222.947 122.972,223.037 123.431,219.817 126.423 C 216.627 129.389,216.429 129.753,216.833 131.914 C 217.270 134.254,217.664 134.535,218.892 133.381 C 219.451 132.856,220.984 131.571,222.298 130.524 C 227.831 126.122,228.533 122.898,224.697 119.521 C 222.041 117.183,218.847 116.663,214.931 117.931 M338.065 128.992 C 331.527 131.111,324.841 136.132,323.141 140.201 C 321.709 143.629,323.461 154.217,326.402 159.904 C 327.313 161.665,327.174 162.174,325.001 165.064 C 320.677 170.812,319.206 175.221,320.929 177.269 C 324.299 181.273,332.385 181.233,341.210 177.169 L 343.803 175.975 345.818 176.698 C 350.859 178.506,356.592 177.347,358.006 174.233 C 359.467 171.015,358.809 169.170,356.527 170.084 C 352.881 171.542,350.659 170.246,352.462 167.714 C 355.081 164.036,357.032 158.322,355.970 157.441 C 354.212 155.981,352.981 156.710,349.902 161.034 C 345.058 167.839,344.792 167.889,339.878 162.899 C 335.728 158.685,335.728 158.692,339.710 155.067 C 350.773 144.996,353.531 136.013,347.290 130.375 C 344.773 128.101,342.066 127.695,338.065 128.992 M344.806 134.536 C 347.315 137.517,345.628 141.589,337.881 151.259 C 334.838 155.058,334.109 155.443,333.554 153.548 C 331.180 145.447,340.598 129.534,344.806 134.536 M133.802 144.885 C 133.632 148.839,133.485 154.336,133.474 157.102 C 133.452 163.363,133.401 163.446,129.208 164.029 C 127.581 164.255,124.930 164.754,123.317 165.139 C 121.704 165.523,120.259 165.761,120.107 165.667 C 119.955 165.573,122.989 159.181,126.849 151.463 C 130.709 143.745,133.922 137.490,133.989 137.563 C 134.057 137.636,133.973 140.931,133.802 144.885 M335.853 171.514 L 336.774 172.094 334.931 172.902 C 332.334 174.039,327.480 175.222,326.461 174.966 C 324.033 174.357,325.118 169.808,328.605 165.976 L 329.373 165.132 332.152 168.032 C 333.680 169.628,335.346 171.194,335.853 171.514 M261.029 199.717 C 249.263 201.922,237.455 221.291,234.344 243.492 L 233.880 246.800 231.318 247.577 C 229.909 248.005,228.258 248.453,227.650 248.573 L 226.544 248.791 226.544 243.935 C 226.544 236.176,224.692 233.327,219.473 233.055 C 211.911 232.662,203.919 242.165,198.675 257.788 C 196.719 263.613,196.492 262.854,197.602 254.210 C 198.872 244.314,199.387 242.542,201.394 241.161 C 208.605 236.198,210.811 229.643,206.005 227.462 C 198.984 224.275,193.743 230.917,190.573 247.019 C 189.986 250.003,189.452 251.677,188.754 252.719 C 188.211 253.530,186.386 256.682,184.700 259.724 C 174.460 278.190,173.096 275.828,180.229 251.982 C 181.442 247.926,182.718 243.477,183.066 242.094 L 183.697 239.579 182.618 238.038 C 181.221 236.045,178.020 234.101,176.133 234.101 C 171.070 234.101,166.646 239.963,159.249 256.469 C 154.559 266.934,154.651 263.649,159.481 248.144 C 161.468 241.765,161.413 241.202,158.485 237.998 C 152.257 231.184,145.451 238.277,136.239 261.179 C 135.102 264.006,134.070 266.412,133.947 266.524 C 133.471 266.957,134.257 261.247,135.669 254.019 C 137.782 243.197,137.798 243.278,133.050 240.747 C 130.139 239.195,128.662 239.223,128.667 240.829 C 128.685 247.147,124.711 257.040,119.338 264.055 C 115.625 268.903,114.841 260.836,117.455 244.680 C 118.595 237.637,118.587 237.621,113.733 236.876 C 111.520 236.536,111.357 236.790,107.253 247.005 C 101.020 262.517,98.596 267.650,97.504 267.650 C 94.590 267.650,95.366 253.609,98.864 243.061 C 100.186 239.072,100.109 238.833,97.216 237.974 C 96.190 237.669,95.236 237.419,95.097 237.419 C 94.609 237.419,92.754 240.584,91.453 243.636 L 90.138 246.719 87.189 247.553 C 85.567 248.011,83.825 248.483,83.318 248.601 L 82.396 248.816 82.396 244.316 C 82.396 236.219,80.215 232.995,74.737 232.995 C 67.381 232.995,59.794 242.296,54.490 257.816 C 52.519 263.584,52.276 262.575,53.474 253.598 C 54.672 244.621,55.480 241.701,56.890 241.254 C 57.918 240.927,62.468 236.547,63.480 234.910 C 67.724 228.044,57.835 223.408,52.709 229.862 C 46.822 237.273,42.321 264.470,43.255 286.986 C 43.530 293.620,45.464 296.005,50.586 296.029 C 53.083 296.040,53.087 296.022,53.089 285.093 L 53.090 275.576 54.387 270.663 C 59.528 251.194,69.942 234.190,74.807 237.323 C 76.773 238.589,72.486 251.536,69.634 252.945 C 69.354 253.083,68.378 253.503,67.465 253.878 C 59.612 257.102,54.705 269.958,60.312 272.619 C 66.412 275.514,79.073 263.890,81.281 253.368 C 81.594 251.875,81.640 251.848,85.922 250.685 L 89.456 249.725 88.944 251.775 C 88.663 252.902,88.337 256.206,88.219 259.117 C 87.792 269.727,89.233 272.377,95.790 273.040 C 99.035 273.367,101.485 270.043,106.051 259.120 C 108.559 253.120,108.632 253.126,108.846 259.355 C 109.313 272.963,117.793 275.413,123.964 263.724 L 125.291 261.208 125.083 263.505 C 124.652 268.264,127.918 272.453,132.770 273.363 C 134.902 273.763,135.251 273.202,142.738 257.327 C 145.998 250.416,148.174 246.434,149.614 244.752 C 151.091 243.025,152.013 242.837,151.673 244.332 C 150.970 247.420,149.858 251.582,148.203 257.327 C 144.649 269.659,145.781 273.755,153.042 274.839 C 155.575 275.217,156.252 274.118,163.947 257.143 C 168.857 246.310,170.870 242.581,171.807 242.581 C 172.196 242.581,171.725 244.749,169.201 254.562 C 165.904 267.380,165.807 270.240,168.558 273.366 C 174.775 280.429,179.215 278.377,186.104 265.257 L 188.428 260.829 188.220 263.514 C 187.175 276.966,187.175 291.318,188.220 292.959 C 189.506 294.978,195.717 296.869,196.795 295.570 C 197.038 295.277,197.232 291.201,197.317 284.602 L 197.452 274.101 198.835 269.493 C 205.094 248.638,214.969 233.181,219.281 237.493 C 221.152 239.364,215.727 253.272,213.126 253.272 C 209.145 253.272,202.379 261.781,202.097 267.142 L 201.940 270.145 203.246 271.570 C 208.359 277.150,223.246 264.950,225.476 253.354 C 225.603 252.690,225.987 251.997,226.328 251.814 C 226.940 251.486,232.640 249.954,233.247 249.954 C 233.419 249.954,233.498 251.757,233.423 253.962 C 232.965 267.337,236.353 273.798,243.239 272.681 C 244.854 272.419,244.628 272.823,245.550 268.559 C 247.070 261.538,248.105 260.465,249.997 263.951 C 259.237 280.980,270.546 289.564,276.656 284.186 C 280.023 281.222,281.207 276.338,278.016 278.573 C 274.186 281.256,261.921 272.905,255.781 263.433 C 254.136 260.895,254.143 260.721,255.910 260.113 C 260.494 258.537,270.641 249.388,273.061 244.650 C 275.610 239.658,270.450 236.632,264.478 239.617 C 260.002 241.853,254.443 247.610,248.010 256.670 C 246.180 259.248,244.559 261.282,244.409 261.189 C 244.259 261.096,244.016 257.823,243.870 253.916 C 243.506 244.226,243.717 243.740,248.619 242.956 C 256.913 241.631,267.055 233.067,271.569 223.577 C 278.179 209.680,272.803 197.511,261.029 199.717 M268.415 203.398 C 278.307 211.722,261.435 240.000,246.576 240.000 C 243.385 240.000,243.958 235.570,248.527 224.922 C 255.516 208.633,263.880 199.582,268.415 203.398 M281.058 219.696 C 279.524 220.359,278.159 226.694,279.152 228.541 C 280.268 230.615,285.645 231.153,286.770 229.302 C 288.280 226.821,289.193 223.292,288.629 222.124 C 287.664 220.125,283.302 218.727,281.058 219.696 M61.129 231.627 C 61.264 233.257,60.344 234.954,58.406 236.656 C 56.641 238.206,56.258 238.123,56.556 236.259 C 57.325 231.450,60.821 227.909,61.129 231.627 M205.369 231.206 C 205.736 232.578,204.682 234.728,202.822 236.406 C 200.808 238.221,200.424 238.187,200.742 236.221 C 201.475 231.688,204.594 228.308,205.369 231.206 M318.260 231.843 C 314.700 234.657,307.560 244.637,303.366 252.660 C 300.587 257.976,300.432 256.688,302.846 248.352 C 305.568 238.956,305.497 238.667,300.083 237.023 C 296.521 235.941,296.430 236.087,294.746 245.632 C 293.306 253.797,286.855 265.903,284.590 264.691 C 282.740 263.701,282.636 261.283,284.020 251.458 C 285.398 241.679,285.316 241.104,282.254 239.114 C 277.774 236.200,275.960 238.806,274.450 250.330 C 273.271 259.316,274.114 263.797,277.595 267.053 C 282.401 271.549,287.294 269.839,291.358 262.244 L 292.706 259.724 292.474 263.480 C 292.132 269.029,293.452 271.074,298.040 272.101 C 300.840 272.727,301.362 272.344,301.242 269.753 C 301.016 264.862,307.201 251.705,313.929 242.765 C 319.326 235.595,320.083 237.365,315.972 247.542 C 309.848 262.701,309.625 268.729,315.050 272.461 C 320.185 275.994,323.486 273.476,330.958 260.327 C 332.733 257.203,334.353 254.419,334.558 254.141 C 335.128 253.367,340.064 259.975,339.775 261.125 C 339.660 261.583,338.523 262.728,337.248 263.670 C 327.639 270.767,325.446 275.926,330.210 280.224 C 340.037 289.092,356.183 273.633,349.322 261.925 C 347.799 259.326,348.458 258.457,356.327 252.683 C 360.249 249.805,360.629 249.262,359.803 247.718 C 359.176 246.547,358.739 246.794,352.251 251.982 C 348.828 254.719,345.910 256.959,345.767 256.959 C 344.516 256.959,339.036 249.550,338.611 247.283 C 338.199 245.087,341.691 240.805,345.466 238.879 C 347.000 238.097,346.984 238.088,347.630 240.092 C 348.967 244.240,352.040 239.291,350.792 235.000 C 349.024 228.918,343.482 229.356,336.772 236.108 C 332.086 240.824,330.770 244.335,332.152 248.437 L 332.920 250.719 330.630 254.668 C 326.173 262.351,321.270 268.760,320.305 268.164 C 319.070 267.400,320.492 260.910,324.127 250.727 C 329.166 236.609,329.148 233.943,323.993 231.375 C 321.366 230.065,320.409 230.143,318.260 231.843 M267.650 242.227 C 267.650 245.612,254.561 257.849,251.566 257.264 C 250.303 257.017,258.206 248.181,263.445 243.983 C 266.757 241.329,267.650 240.956,267.650 242.227 M66.424 260.572 C 64.352 264.050,61.834 266.667,61.651 265.534 C 61.455 264.330,63.299 261.193,65.589 258.831 C 68.154 256.187,68.548 257.008,66.424 260.572 M211.305 259.419 C 210.242 261.500,207.336 265.333,206.469 265.797 C 204.398 266.906,206.683 262.014,209.679 258.926 C 211.960 256.574,212.651 256.783,211.305 259.419 M342.888 266.249 C 344.731 270.699,340.482 276.129,335.156 276.129 C 330.069 276.129,332.204 271.336,339.706 265.917 C 341.344 264.733,342.301 264.833,342.888 266.249 M223.963 306.152 C 204.790 310.584,177.696 332.201,177.696 343.066 C 177.696 345.949,180.028 348.745,183.919 350.526 C 187.264 352.058,188.467 351.988,202.396 349.448 C 227.654 344.842,230.824 346.159,222.480 357.788 C 218.157 363.811,213.373 368.281,208.848 370.523 C 204.995 372.433,203.502 372.745,203.502 371.641 C 203.502 368.297,212.672 361.146,219.631 359.062 C 221.376 358.540,221.605 357.930,220.379 357.072 C 217.333 354.938,204.209 361.455,199.998 367.192 C 195.555 373.244,196.441 377.741,202.581 380.305 C 213.870 385.019,240.820 357.561,235.563 346.701 C 233.999 343.471,229.727 340.324,225.063 338.969 C 222.374 338.187,220.300 338.299,204.424 340.089 C 188.712 341.859,189.532 341.964,192.381 338.544 C 199.141 330.433,218.603 316.688,227.719 313.588 C 234.213 311.379,239.631 312.427,239.631 315.893 C 239.631 318.682,235.026 324.571,231.337 326.499 C 228.846 327.800,228.846 327.805,231.329 330.210 C 235.079 333.842,238.481 332.284,241.945 325.346 C 246.530 316.162,245.210 309.396,238.311 306.718 C 235.551 305.646,227.521 305.330,223.963 306.152 M166.224 307.558 C 164.885 309.005,160.945 316.953,156.125 327.926 C 149.109 343.901,142.036 357.472,140.318 358.255 C 138.238 359.203,137.114 360.578,137.358 361.877 C 137.630 363.327,134.951 367.341,132.321 369.424 C 130.151 371.143,130.671 372.638,133.910 373.992 C 137.206 375.369,138.697 374.222,143.231 366.820 C 147.657 359.595,149.079 358.711,158.373 357.407 C 163.825 356.641,163.772 356.526,163.441 368.479 C 163.081 381.466,163.972 383.782,169.326 383.777 C 174.145 383.772,176.003 382.569,174.822 380.219 C 172.969 376.534,172.216 361.566,173.716 358.247 C 174.633 356.219,177.911 355.533,179.210 357.098 C 179.997 358.047,180.276 357.605,180.276 355.413 C 180.276 352.618,179.635 352.074,176.336 352.074 C 174.392 352.074,173.972 351.956,173.630 351.316 C 173.026 350.189,173.817 328.013,174.732 320.369 C 176.033 309.512,176.111 309.814,171.484 307.819 C 167.407 306.061,167.599 306.071,166.224 307.558 M120.922 307.793 C 108.547 311.798,97.600 325.824,100.945 333.386 C 101.909 335.565,104.956 338.630,107.102 339.580 C 109.165 340.492,109.159 340.619,107.006 341.752 C 95.546 347.783,86.222 362.728,89.185 370.316 C 89.525 371.186,84.096 372.564,82.857 371.921 C 81.441 371.187,82.079 367.087,86.636 347.650 C 92.740 321.614,93.892 313.174,91.662 310.838 C 90.120 309.223,87.305 308.133,84.516 308.071 L 82.164 308.018 81.999 312.811 C 81.553 325.754,80.059 337.044,76.315 355.760 C 74.916 362.756,73.661 369.806,73.525 371.429 C 73.224 375.045,72.873 375.638,70.239 376.970 C 66.182 379.023,64.812 381.523,66.355 384.055 C 67.205 385.449,67.649 385.551,68.220 384.484 C 68.758 383.479,73.881 381.053,75.354 381.105 C 75.983 381.128,77.081 381.254,77.793 381.387 C 78.966 381.604,79.217 381.488,80.450 380.155 C 82.918 377.488,91.682 375.999,94.464 377.774 C 98.116 380.104,103.203 380.317,109.677 378.412 C 111.502 377.875,113.452 377.429,114.009 377.421 C 114.567 377.412,115.023 377.265,115.023 377.093 C 115.023 376.921,116.648 375.966,118.633 374.969 C 131.920 368.302,140.532 358.295,137.698 352.815 C 136.594 350.681,133.825 349.716,133.825 351.466 C 133.825 356.214,126.857 363.723,117.419 369.146 L 114.470 370.841 112.123 370.288 C 110.422 369.887,108.168 369.765,103.924 369.845 C 97.282 369.969,97.779 370.219,97.439 366.575 C 96.675 358.396,115.108 342.603,122.551 345.059 C 124.399 345.669,125.346 344.872,125.344 342.708 C 125.342 340.598,124.260 338.957,122.675 338.660 C 118.545 337.885,108.387 331.603,108.387 329.824 C 108.387 323.497,118.878 312.995,125.198 312.995 C 128.757 312.995,128.722 313.134,124.110 317.314 C 122.850 318.456,122.397 319.139,122.398 319.895 C 122.401 320.994,123.062 323.687,123.330 323.687 C 123.749 323.687,130.808 317.692,131.515 316.736 C 135.459 311.401,128.341 305.391,120.922 307.793 M266.963 307.677 C 254.892 310.924,243.249 325.758,246.757 333.421 C 247.862 335.836,250.370 338.396,252.704 339.493 C 254.887 340.520,254.900 340.496,250.983 342.857 C 234.204 352.974,229.114 372.519,241.669 378.626 C 255.116 385.168,291.272 361.634,282.727 351.902 C 280.975 349.907,279.605 350.052,279.356 352.257 C 278.747 357.660,269.639 366.208,259.160 371.211 C 249.356 375.892,244.052 374.484,243.111 366.949 C 242.089 358.771,260.979 342.323,268.227 345.079 C 269.657 345.622,270.493 345.218,270.978 343.748 C 271.652 341.707,270.249 339.238,268.018 338.539 C 260.993 336.338,253.726 331.406,254.191 329.157 C 255.770 321.514,264.645 312.995,271.027 312.995 C 274.265 312.995,274.245 313.242,270.730 316.537 L 267.911 319.178 268.161 320.741 C 268.681 323.997,268.733 323.996,272.830 320.704 C 278.503 316.146,279.466 313.930,277.208 310.635 C 275.055 307.494,271.482 306.462,266.963 307.677 M61.683 310.535 C 56.829 312.325,53.448 317.293,48.469 329.954 C 47.312 332.894,46.143 335.714,45.871 336.221 L 45.375 337.143 45.364 336.037 C 45.358 335.429,45.772 332.525,46.285 329.585 C 48.491 316.936,48.192 315.221,43.367 312.860 C 38.499 310.478,36.316 310.733,36.373 313.677 C 36.653 328.241,36.464 331.837,34.273 353.608 C 33.668 359.623,33.009 367.832,32.808 371.851 L 32.444 379.158 33.487 380.201 C 34.916 381.630,38.948 383.041,41.602 383.041 C 44.352 383.041,44.577 382.787,44.145 380.169 C 43.691 377.418,44.150 356.865,44.680 356.227 C 45.262 355.525,45.488 355.618,47.620 357.442 C 60.950 368.846,76.288 354.767,78.893 328.734 C 80.096 316.722,70.998 307.101,61.683 310.535 M66.046 316.682 C 70.008 322.005,67.438 344.017,62.022 351.143 C 57.327 357.320,47.067 355.350,46.209 348.107 C 45.625 343.175,57.984 320.032,63.142 316.397 C 64.561 315.398,65.132 315.454,66.046 316.682 M164.038 339.196 C 163.625 352.364,163.608 352.442,161.200 352.442 C 160.688 352.442,158.201 352.868,155.674 353.389 C 153.147 353.910,150.986 354.242,150.872 354.128 C 150.680 353.937,164.132 326.970,164.327 327.157 C 164.374 327.202,164.245 332.620,164.038 339.196 " stroke="none" fill="#040404" fill-rule="evenodd"></path></g></svg>
