<svg id="svg" xmlns="http://www.w3.org/2000/svg" xmlns:xlink="http://www.w3.org/1999/xlink" width="300" height="250" viewBox="0, 0, 400,400"><g id="svgg"><path id="path0" d="M78.710 57.129 C 77.212 57.475,76.080 58.228,75.540 59.238 C 74.220 61.704,77.837 75.378,81.665 82.396 C 84.365 87.347,84.916 88.303,85.166 88.479 C 85.309 88.581,85.700 89.161,86.034 89.770 C 88.735 94.693,101.422 108.347,107.834 113.233 C 108.442 113.697,109.023 114.172,109.124 114.290 C 109.226 114.408,110.387 115.322,111.705 116.321 C 113.023 117.320,114.514 118.515,115.019 118.976 C 115.524 119.438,116.038 119.816,116.161 119.816 C 116.775 119.816,118.043 121.285,117.560 121.437 C 117.280 121.526,116.055 121.888,114.839 122.242 C 110.492 123.507,98.270 128.543,94.194 130.747 C 93.585 131.076,92.009 131.923,90.691 132.629 C 89.373 133.335,87.855 134.224,87.316 134.606 C 86.778 134.987,86.249 135.300,86.140 135.300 C 85.650 135.300,77.322 141.208,74.470 143.579 C 70.886 146.558,63.837 153.819,62.881 155.517 C 62.691 155.854,62.312 156.354,62.039 156.629 C 61.253 157.419,58.618 161.396,58.618 161.792 C 58.618 161.989,58.493 162.206,58.341 162.273 C 57.948 162.448,55.274 167.547,53.347 171.797 C 51.624 175.599,48.983 185.334,48.448 189.862 C 48.316 190.977,48.130 192.022,48.034 192.185 C 47.349 193.345,47.621 207.479,48.462 214.378 C 49.465 222.616,50.060 225.638,52.667 235.760 C 53.640 239.540,58.104 252.411,60.018 256.959 C 64.847 268.430,66.453 272.001,70.301 279.816 C 72.647 284.581,75.234 289.641,76.048 291.060 C 79.216 296.577,80.566 298.901,82.109 301.489 C 83.767 304.268,88.471 311.290,90.472 313.972 C 91.099 314.813,91.945 315.968,92.350 316.539 C 105.407 334.906,126.320 349.576,142.212 351.514 C 143.074 351.619,144.444 351.787,145.257 351.886 C 155.907 353.193,171.511 349.788,194.049 341.239 C 199.073 339.333,208.993 338.220,214.194 338.980 C 214.903 339.084,216.023 339.252,216.682 339.354 C 217.341 339.456,218.337 339.609,218.896 339.695 C 219.455 339.780,221.014 340.106,222.361 340.418 C 224.908 341.008,226.030 341.250,227.742 341.575 C 228.300 341.681,230.747 342.243,233.180 342.824 C 247.933 346.346,258.583 345.893,267.097 341.382 C 271.656 338.967,277.086 335.809,280.725 333.456 C 281.353 333.051,282.408 332.387,283.070 331.982 C 284.378 331.181,291.137 326.378,294.848 323.613 C 304.153 316.681,316.612 304.051,323.144 294.931 C 323.942 293.816,324.723 292.848,324.878 292.780 C 325.034 292.713,325.161 292.448,325.161 292.192 C 325.161 291.936,325.493 291.427,325.899 291.060 C 326.304 290.693,326.636 290.201,326.636 289.966 C 326.636 289.732,326.926 289.218,327.281 288.825 C 328.681 287.275,336.419 273.050,336.796 271.336 C 336.852 271.080,337.643 269.174,338.246 267.840 C 338.782 266.656,341.709 258.012,341.993 256.774 C 342.087 256.369,342.199 255.871,342.244 255.668 C 342.288 255.465,342.423 255.134,342.543 254.931 C 342.662 254.728,342.892 253.899,343.052 253.088 C 343.213 252.276,343.392 251.447,343.450 251.244 C 343.508 251.041,343.651 250.378,343.767 249.770 C 343.884 249.161,344.215 247.585,344.504 246.267 C 344.793 244.949,345.139 243.041,345.273 242.028 C 345.407 241.014,345.570 240.095,345.636 239.985 C 345.701 239.876,345.864 238.632,345.998 237.220 C 346.132 235.809,346.307 234.157,346.387 233.548 C 346.467 232.940,346.630 230.866,346.750 228.940 C 346.869 227.014,347.033 225.228,347.114 224.972 C 347.660 223.251,348.063 196.870,347.668 188.756 C 347.540 186.132,345.664 170.252,345.099 167.005 C 344.245 162.106,341.795 152.572,340.646 149.677 C 340.203 148.562,339.588 146.903,339.279 145.991 C 338.184 142.756,335.417 136.556,333.986 134.129 C 333.188 132.776,332.535 131.585,332.535 131.483 C 332.535 131.326,331.250 129.387,328.224 124.977 C 325.770 121.401,319.219 114.516,315.023 111.104 C 311.488 108.229,303.660 103.226,302.697 103.226 C 302.481 103.226,302.304 103.060,302.304 102.857 C 302.304 102.654,302.180 102.518,302.028 102.554 C 301.876 102.589,300.756 102.162,299.539 101.603 C 294.824 99.439,287.910 97.020,285.608 96.730 C 285.043 96.659,284.255 96.427,283.857 96.214 C 283.459 96.001,283.134 95.901,283.134 95.991 C 283.134 96.082,282.111 95.917,280.860 95.625 C 278.856 95.158,275.724 94.638,272.258 94.197 C 260.936 92.756,238.629 93.576,226.359 95.883 C 225.244 96.093,223.419 96.428,222.304 96.629 C 218.177 97.372,213.460 98.346,208.111 99.560 C 206.488 99.929,204.552 100.340,203.807 100.473 L 202.452 100.717 202.222 98.930 C 202.096 97.947,201.841 96.479,201.656 95.668 C 201.471 94.857,201.139 92.452,200.918 90.323 C 200.697 88.194,200.284 85.041,200.000 83.318 C 199.716 81.594,199.374 79.010,199.239 77.575 C 198.785 72.708,196.363 71.445,186.450 70.905 C 179.337 70.517,173.393 73.074,169.479 78.206 C 168.272 79.788,168.347 80.566,170.147 85.161 C 171.800 89.383,174.193 97.213,174.935 100.829 C 175.268 102.452,175.694 104.474,175.881 105.325 C 176.527 108.259,176.214 108.175,174.205 104.877 C 173.096 103.056,171.903 101.182,171.553 100.711 C 171.204 100.241,170.742 99.564,170.528 99.207 C 167.384 93.972,157.615 83.070,152.368 78.940 C 151.516 78.270,150.438 77.407,149.972 77.024 C 148.145 75.522,145.361 73.615,143.906 72.870 C 143.266 72.543,142.520 72.062,142.247 71.802 C 140.952 70.567,130.356 65.380,126.629 64.157 C 125.213 63.692,123.889 63.182,123.687 63.024 C 123.484 62.865,123.195 62.717,123.045 62.694 C 122.895 62.671,122.564 62.587,122.308 62.507 C 119.045 61.484,117.691 61.103,115.023 60.452 C 113.300 60.032,111.309 59.609,110.599 59.512 C 109.889 59.415,109.037 59.251,108.706 59.149 C 108.374 59.047,107.462 58.885,106.678 58.789 C 105.895 58.693,104.424 58.455,103.410 58.259 C 102.396 58.064,100.323 57.808,98.802 57.691 C 97.281 57.574,95.373 57.403,94.562 57.311 C 91.883 57.006,79.837 56.868,78.710 57.129 M271.904 132.209 C 273.171 133.040,273.044 134.919,271.369 140.130 C 270.743 142.078,270.230 143.796,270.230 143.949 C 270.230 144.360,271.953 144.063,278.606 142.501 C 284.325 141.159,284.626 141.125,285.530 141.717 C 287.149 142.778,285.848 143.331,274.549 146.389 C 271.710 147.157,270.086 147.784,269.865 148.196 C 269.247 149.352,268.655 163.262,268.893 171.060 C 269.245 182.613,272.096 199.147,273.835 199.727 C 275.239 200.195,279.172 187.888,279.109 183.226 C 279.035 177.826,280.655 173.272,282.650 173.272 C 283.365 173.272,283.263 172.937,281.826 170.553 C 275.556 160.156,285.704 147.718,296.075 153.088 C 300.886 155.579,303.145 159.848,303.195 166.543 C 303.233 171.685,303.457 171.772,307.200 168.111 C 308.650 166.691,310.040 165.530,310.289 165.530 C 312.500 165.530,309.200 170.538,304.702 174.008 C 302.813 175.465,302.656 175.719,301.547 179.107 C 297.186 192.423,288.994 197.667,282.315 191.420 C 281.556 190.710,281.272 190.608,281.146 191.001 C 281.054 191.287,280.533 192.931,279.988 194.654 C 277.645 202.060,275.288 205.351,272.337 205.340 C 262.926 205.303,257.836 181.183,261.623 154.573 C 261.976 152.095,262.159 149.962,262.029 149.833 C 261.900 149.703,259.356 150.284,256.376 151.123 C 250.580 152.755,250.485 152.760,250.827 151.400 C 251.324 149.420,252.139 148.957,257.512 147.607 C 263.677 146.058,262.999 146.635,264.183 141.924 C 266.652 132.100,268.393 129.909,271.904 132.209 M229.677 134.510 C 237.628 138.611,237.787 152.158,230.020 163.757 C 226.520 168.985,219.659 174.666,215.564 175.728 C 211.661 176.741,211.530 177.967,214.031 190.138 C 214.803 193.892,214.784 193.893,216.722 189.954 C 222.423 178.367,227.745 171.297,232.332 169.215 C 236.034 167.535,239.577 169.075,239.160 172.183 C 238.602 176.342,230.763 186.563,225.581 189.888 C 223.369 191.308,223.303 190.916,226.263 193.981 C 234.225 202.228,244.566 206.823,248.544 203.881 C 250.285 202.594,250.518 203.935,249.087 207.007 C 245.063 215.648,233.775 210.998,221.390 195.599 C 219.988 193.855,218.680 192.483,218.483 192.549 C 217.769 192.787,217.068 195.650,216.884 199.078 C 216.656 203.337,216.505 203.502,212.856 203.502 C 208.452 203.502,206.456 200.755,204.438 191.912 C 204.199 190.863,204.145 190.915,202.705 193.571 C 199.115 200.196,193.067 206.846,188.660 209.016 C 183.537 211.538,175.088 209.205,171.645 204.319 L 170.507 202.704 170.196 204.117 C 167.172 217.884,165.126 220.307,158.904 217.485 C 153.357 214.968,152.610 212.568,153.485 200.052 C 153.890 194.261,153.629 194.416,149.486 202.422 C 143.693 213.614,142.093 214.943,137.307 212.541 C 130.529 209.138,132.293 192.726,140.283 184.850 C 142.860 182.309,143.715 182.010,147.050 182.482 C 151.029 183.044,153.541 184.107,154.351 185.572 C 154.677 186.163,154.763 186.057,154.960 184.825 C 155.435 181.855,158.167 180.957,161.594 182.642 C 163.912 183.782,164.029 184.215,163.452 189.493 C 162.198 200.968,162.423 213.921,163.856 212.732 C 165.294 211.538,168.853 198.200,169.226 192.610 C 170.389 175.145,186.991 164.239,194.058 176.298 C 196.726 180.851,195.114 182.645,191.605 179.028 C 186.165 173.421,182.107 175.797,178.953 186.434 C 176.192 195.747,177.744 202.603,183.120 204.849 C 187.351 206.617,195.555 199.811,201.739 189.401 L 203.269 186.827 203.329 177.745 C 203.520 149.291,216.629 127.780,229.677 134.510 M225.045 136.171 C 218.990 138.903,208.562 168.433,212.039 173.003 C 213.763 175.268,222.769 169.564,226.729 163.699 C 235.070 151.345,233.898 132.179,225.045 136.171 M289.178 156.840 C 284.507 158.874,284.968 167.835,289.939 171.626 C 292.519 173.594,297.879 174.422,299.033 173.031 C 299.846 172.051,299.727 163.989,298.866 161.758 C 297.348 157.823,292.534 155.379,289.178 156.840 M122.130 161.803 C 129.803 165.521,126.748 176.055,113.940 190.046 L 110.903 193.364 114.530 193.600 C 121.021 194.023,125.892 196.548,127.913 200.536 C 133.392 211.351,110.929 236.245,97.611 234.117 C 91.140 233.084,89.176 231.477,89.975 227.875 L 90.437 225.791 93.029 226.660 C 98.091 228.358,104.667 225.299,112.565 217.572 C 121.297 209.029,122.596 202.286,115.886 200.336 C 111.833 199.158,108.125 200.667,102.799 205.660 C 99.471 208.781,99.519 208.586,100.465 215.115 C 101.801 224.332,100.916 225.931,95.745 223.644 L 93.773 222.772 92.977 217.285 C 92.050 210.898,91.412 204.984,90.137 190.968 C 89.170 180.336,87.925 169.688,87.358 167.189 C 86.898 165.166,86.875 165.247,88.092 164.618 C 90.871 163.181,94.157 164.352,95.733 167.339 C 96.565 168.917,96.591 169.252,96.632 178.952 C 96.686 191.777,97.006 198.421,97.578 198.610 C 97.854 198.701,98.093 198.105,98.233 196.981 C 100.352 179.927,106.241 165.063,112.270 161.555 C 114.291 160.379,119.461 160.509,122.130 161.803 M116.866 166.534 C 114.259 167.519,110.333 172.950,107.650 179.282 C 105.771 183.719,103.120 191.571,103.309 192.139 C 103.373 192.330,105.412 189.744,107.841 186.393 C 117.500 173.069,121.215 164.892,116.866 166.534 M232.232 171.973 C 229.798 173.297,219.683 187.363,220.545 188.226 C 222.242 189.922,233.716 176.185,233.729 172.442 C 233.733 171.298,233.569 171.246,232.232 171.973 M289.190 178.475 C 287.183 182.324,288.380 189.493,291.029 189.493 C 292.910 189.493,297.173 182.994,297.737 179.263 L 297.974 177.696 296.360 177.693 C 295.473 177.692,293.643 177.586,292.293 177.459 L 289.840 177.227 289.190 178.475 M147.397 186.793 C 144.238 187.627,139.906 204.621,142.267 206.918 C 143.295 207.918,147.440 201.225,150.382 193.815 C 152.533 188.399,151.401 185.736,147.397 186.793 M321.685 204.937 C 332.316 209.766,323.313 236.765,306.789 249.611 C 301.576 253.663,301.805 253.372,302.093 255.577 C 303.171 263.827,307.593 274.654,309.885 274.654 C 311.877 274.654,315.162 264.870,317.217 252.811 C 317.466 251.349,318.111 251.038,318.906 251.996 C 319.710 252.965,317.595 266.036,315.715 271.705 C 312.130 282.522,303.924 282.570,298.323 271.805 C 296.831 268.937,294.194 261.721,294.194 260.506 C 294.194 259.622,293.723 259.772,292.511 261.045 C 291.916 261.670,290.653 262.754,289.705 263.453 C 288.071 264.656,287.910 264.939,286.626 268.859 C 282.248 282.222,273.325 287.247,266.924 279.956 C 263.195 275.710,263.569 264.805,267.511 262.834 C 268.499 262.341,268.598 262.170,268.208 261.636 C 267.577 260.774,267.551 260.790,266.223 262.839 C 265.572 263.843,263.761 265.692,262.197 266.948 L 259.355 269.232 257.990 273.426 C 256.295 278.632,254.721 281.626,252.457 283.951 C 247.945 288.583,241.379 288.530,237.873 283.834 L 236.538 282.045 235.342 286.419 C 232.095 298.296,228.237 302.034,222.982 298.392 C 218.055 294.977,217.144 289.543,219.136 275.452 C 221.078 261.719,219.640 260.293,214.979 271.329 C 211.395 279.815,210.468 283.029,210.880 285.543 C 211.365 288.506,211.357 288.577,210.468 289.053 C 207.741 290.513,203.543 286.700,201.820 281.198 C 201.253 279.389,200.553 278.383,200.553 279.378 C 200.553 282.336,190.128 294.215,185.559 296.464 C 179.265 299.563,169.000 295.299,166.979 288.746 C 163.084 276.119,171.943 258.818,182.304 258.818 C 187.623 258.818,192.423 263.356,192.115 268.091 C 192.049 269.102,190.149 268.222,188.816 266.564 C 187.612 265.066,184.390 263.226,182.969 263.226 C 178.293 263.226,172.468 281.416,175.175 287.569 C 176.446 290.458,180.109 292.971,182.418 292.538 C 187.136 291.652,193.901 285.145,198.510 277.057 L 200.075 274.311 199.514 271.625 C 197.353 261.295,199.610 244.813,204.343 236.356 C 209.503 227.135,220.591 222.079,224.897 226.983 C 230.946 233.872,224.396 251.571,210.247 266.570 C 207.443 269.542,207.241 270.047,207.645 273.063 C 208.301 277.959,208.495 277.969,210.747 273.219 C 216.574 260.927,220.059 257.611,224.381 260.246 C 227.976 262.439,228.457 264.624,227.602 274.895 C 226.316 290.355,226.828 295.295,229.421 292.430 C 231.459 290.178,236.682 271.165,236.682 266.001 C 236.682 265.488,237.016 264.735,237.424 264.327 L 238.167 263.585 237.343 262.023 C 234.863 257.320,238.255 248.616,243.502 246.220 C 251.412 242.607,259.542 249.368,259.850 259.816 C 260.004 265.004,260.043 265.047,262.732 262.921 C 265.862 260.446,266.652 259.125,265.889 257.641 C 263.547 253.088,266.917 244.219,271.875 241.889 C 280.309 237.924,288.876 245.682,288.660 257.088 C 288.632 258.538,288.622 259.854,288.637 260.013 C 288.680 260.476,290.118 259.573,291.785 258.036 L 293.326 256.616 292.988 253.930 C 289.711 227.861,307.036 198.284,321.685 204.937 M316.129 207.454 C 308.399 210.035,302.134 225.322,301.354 243.502 C 301.068 250.173,301.578 250.553,305.694 246.729 C 312.201 240.686,319.722 229.413,322.604 221.382 C 325.806 212.463,322.490 205.330,316.129 207.454 M218.788 229.256 C 213.373 231.746,208.566 243.965,207.152 258.834 C 206.454 266.173,206.970 266.889,210.115 262.949 C 218.184 252.842,223.591 241.491,223.593 234.654 C 223.595 229.301,222.170 227.700,218.788 229.256 M159.053 240.615 C 163.871 242.295,165.656 246.778,164.315 253.825 C 162.409 263.842,158.266 267.289,153.364 262.939 L 151.796 261.547 153.334 260.481 C 157.934 257.294,161.418 249.403,159.252 247.079 C 156.297 243.907,148.583 246.649,139.355 254.152 C 130.623 261.252,116.498 277.171,116.498 279.913 C 116.498 280.783,115.736 280.943,130.323 276.998 C 149.346 271.853,152.399 271.860,158.746 277.061 C 164.917 282.117,160.706 295.488,149.044 307.869 C 141.088 316.315,132.849 318.416,128.644 313.071 C 124.666 308.014,136.100 292.718,145.124 291.025 C 148.180 290.452,149.184 291.843,146.636 293.121 C 139.836 296.532,131.005 306.503,133.447 308.012 C 136.070 309.634,145.487 300.021,149.873 291.244 C 156.202 278.579,153.254 277.996,127.558 286.832 C 114.049 291.477,110.843 291.520,106.293 287.121 C 96.887 278.028,130.345 242.153,150.230 240.009 C 153.351 239.673,157.086 239.929,159.053 240.615 M274.288 246.176 C 269.277 248.683,270.575 258.223,276.390 261.631 C 278.610 262.932,283.387 263.332,284.251 262.290 C 285.210 261.133,285.005 252.390,283.973 250.454 C 281.930 246.622,277.398 244.620,274.288 246.176 M245.780 250.479 C 238.358 254.510,244.132 267.600,253.159 267.206 L 255.668 267.097 256.150 265.253 C 258.419 256.565,251.838 247.188,245.780 250.479 M274.420 267.874 C 272.543 272.296,273.636 278.710,276.266 278.710 C 278.217 278.710,282.530 272.140,283.031 268.404 L 283.231 266.912 281.393 266.912 C 280.382 266.912,278.537 266.806,277.292 266.676 L 275.029 266.439 274.420 267.874 M246.084 271.836 C 243.782 275.349,244.855 283.134,247.641 283.134 C 249.776 283.134,256.100 272.735,254.688 271.544 C 253.803 270.797,246.605 271.041,246.084 271.836 " stroke="none" fill="#000000" fill-rule="evenodd"></path></g></svg>