<?xml version="1.0" encoding="utf-8"?>
<!-- Generator: Adobe Illustrator 17.1.0, SVG Export Plug-In . SVG Version: 6.00 Build 0)  -->
<!DOCTYPE svg PUBLIC "-//W3C//DTD SVG 1.1//EN" "http://www.w3.org/Graphics/SVG/1.1/DTD/svg11.dtd">
<svg version="1.1" id="Слой_1" xmlns="http://www.w3.org/2000/svg" width="300" height="200" xmlns:xlink="http://www.w3.org/1999/xlink" x="0px" y="0px"
	 viewBox="0 0 597.1 662.8" enable-background="new 0 0 597.1 662.8" xml:space="preserve">
<path d="M452.5,592.1c-0.1,0.3-0.6,0.4-0.2,0.3c2.8-10-8.5-22.1-15.5-10.1c-2.4-9.5-4.2-19.1-15.1-22.5c-2.3-0.7-4.8-1-7.6-0.6
	c-8.1,1-18.4,6.8-16.5,16.4c-3-9.4-16.1-5.2-11.1,4.3c-5.7-10.3-22.1-6.3-27.3,1.2c5,0.1,9.9,2.9,13.5,7.7c2.4,3.2,4.1,7,4.8,10.9
	c1.6-0.4,3.3-0.6,5.1-0.6c12.2,0,31.2,8.8,32.1,21.9c0.1,0.7,0.1,1.4,0.1,2.1c5.9-2.3,10.5-6.1,11.6-11.1
	c-3,13.6,34.7,14.6,25.7-2.7c8.2,4.3,24.8,2.7,23.9-9.7C475.4,591.2,455,584.6,452.5,592.1z"/>
<path d="M200.3,605.2c2.6-4.6,7.9-7.4,14.3-7.4c1.3,0,2.5,0.1,3.7,0.3c0.2-1.9,0.7-3.8,1.5-5.7c4.3-9.7,17.5-17.1,30.6-17.1
	c4.7,0,9,1,12.7,2.8c0.2-0.5,0.5-1,0.7-1.4c1.4-2.4,3.6-4.3,6.2-5.4c-6.4-3.6-15.3-4.5-16.9,0.3c-0.1,0.3-0.6,0.4-0.2,0.3
	c2.8-10-8.5-22.1-15.5-10.1c-2.4-9.5-4.2-19.1-15.1-22.5c-2.3-0.7-4.8-1-7.6-0.6c-8.1,1-18.4,6.8-16.5,16.4
	c-3-9.4-16.1-5.2-11.1,4.3c-8.1-14.5-37.3-0.7-26.4,11.6c-6.1-6.8-19.4-3.2-13.4,6.6c-12-12.8-22.6,20.1,1.6,11.6
	c-1.7,15.1,28.9,8.5,29,2.4c-0.2,9.6,10.6,14,22.1,14C200.2,605.5,200.3,605.3,200.3,605.2z"/>
<path d="M382.6,604.2c-4.8,0-8.7,1.6-10,5.2c-0.1,0.4-0.5,0.5-0.6,0.5c0,0,0,0,0.2-0.1c3.1-11-4.7-23.8-13.5-23.8
	c-2.3,0-4.7,0.9-7,3c-1.5,1.4-3.3,2.9-3.8,5c-0.4-1.3-0.7-2.6-1-3.9c0-0.1-0.1-0.3-0.1-0.4c0,0,0,0,0-0.1
	c-3.4-13.4-7.2-26.3-22.8-31.1c-2.5-0.8-5.3-1.2-8.2-1.2c-1.2,0-2.5,0.1-3.8,0.2c-12.7,1.6-29,10.6-25.9,25.8
	c-1.3-4-4.2-7.3-8.4-8.2c-3.8-0.8-8.5,0.9-10.1,4.7c-1.6,3.5-0.4,6.8,1,10.2c-4.7-8.2-14.5-10.7-23.3-9.3c-2.3,0.4-4.5,1-6.7,1.9
	c-4.2,1.7-8,4.4-11,7.8c-2.2,2.4-4.2,4.9-4.2,8.3c0,3.7,1.3,6.8,3.8,9.6c-4.1-4.6-13-7.8-18.7-4.3c-5,3.1-6.5,10.1-2.3,14.6
	c-3.2-3.4-6.2-4.7-9-4.7c-12,0-18.2,25.2,0.4,25.2c3,0,6.8-0.7,11.2-2.2c-1.2,10.8,8,14.5,18.5,14.5c12.6,0,27.1-5.5,27.2-10.7
	c-0.3,15.1,16.6,22.1,34.7,22.1c19.1,0,39.6-7.7,42.7-21.8c-2.3,10.4,10.5,16.1,22.7,16.1c12.9,0,25-6.4,17.7-20.3
	c4.1,2.2,9.6,3.4,15.2,3.4c11.1,0,22.3-4.9,22.6-16.8c0-0.1,0-0.2,0-0.3c0-0.5,0-1,0-1.6C409.1,612.1,393.5,604.2,382.6,604.2z"/>
<path d="M168.7,349.5c0.7-0.8,1.6-1.2,2.7-1.2c0.6,0,0.9-0.3,0.9-0.9c0-0.6-0.3-0.8-0.8-0.8c-7.7,0.2-11.5,0.5-19.4,1.6
	c-0.6,0.1-0.9,0.4-0.9,1c0,0.6,0.3,0.8,0.9,0.7c1.1-0.2,2,0.1,2.8,0.7c0.7,0.6,1.1,1.5,1.1,2.6c0,5.9-0.1,8.9-0.1,15.1
	c0,2.3-0.4,3.8-1,4.4c-0.6,0.7-1.3,1-2.1,1.1c-0.3,0-0.6,0.3-0.8,0.7c0,0.1,0,0.1,0,0.2c0,0.2,0,0.5,0.2,0.7c0.7,0.9,2.1,1.6,3.5,2
	c0,1.9,0,2.8-0.1,4.7c0,2.7,0.4,5.2,1.3,7.4c0.9,2.2,2.2,4.1,3.9,5.6c1.7,1.5,3.6,2.7,5.8,3.5c2.2,0.8,4.5,1.2,7.1,1.1
	c2.5-0.1,4.9-0.6,7.1-1.7c2.2-1,4.2-2.3,5.8-4c1.6-1.7,3-3.6,3.9-5.9c1-2.3,1.5-4.7,1.5-7.4c0-1.8,0-2.7,0.1-4.6
	c1.4-0.5,2.7-1.2,3.5-2.2c0.1-0.2,0.2-0.4,0.2-0.6c0-0.1,0-0.2-0.1-0.3c-0.1-0.4-0.4-0.6-0.7-0.6c-0.7,0-1.3-0.4-1.9-1
	c-0.6-0.6-0.9-2-0.8-4.3c0.1-6,0.1-9,0.2-14.8c0-1.1,0.4-2,1.1-2.6c0.7-0.7,1.6-1,2.6-0.9c0.6,0,0.8-0.2,0.8-0.8
	c0-0.6-0.3-0.9-0.8-0.9c-7.5-0.7-11.3-0.9-19-0.9c-0.5,0-0.8,0.3-0.8,0.9c0,0.6,0.2,0.9,0.7,0.9c1.1,0,2,0.4,2.7,1.1
	c0.7,0.7,1.1,1.7,1.1,2.8c-0.1,9.5-0.2,19-0.4,28.6c0,1.9-0.7,3.6-2,5c-1.3,1.4-2.9,2.1-4.7,2.2c-1.8,0.1-3.4-0.5-4.6-1.9
	c-1.3-1.3-1.9-3-1.9-4.9c0.1-9.6,0.3-19.2,0.4-28.8C167.6,351.2,167.9,350.3,168.7,349.5z"/>
<path d="M209.8,398c-0.7,0.7-1.6,1-2.7,0.9c-0.6,0-0.8,0.2-0.8,0.7c0,0.6,0.3,0.9,0.8,0.9c7.6,0.5,11.4,0.9,18.9,1.8
	c0.6,0.1,0.8-0.2,0.8-0.7c0-0.5-0.3-0.8-0.8-0.8c-1.1-0.1-1.9-0.6-2.7-1.4c-0.7-0.8-1.1-1.8-1.1-2.8c0-8.5,0-12.9,0.1-21.5
	c6,9.4,9,14.1,15,23.3c0.1,0.2,0.2,0.3,0.4,0.5c0.5,0.8,0.8,1.4,0.8,1.8c0,0.1,0,0.2,0,0.4c0,0.3,0,0.5-0.1,0.6
	c-0.1,0.3-0.3,0.5-0.7,0.5c-0.3,0-0.6,0-0.7,0c-0.6-0.1-0.8,0.1-0.8,0.6c0,0.6,0.3,0.9,0.8,1c6.7,0.9,10,1.3,16.7,2.4
	c0.6,0.1,0.8-0.1,0.8-0.7c0-0.5-0.3-0.8-0.8-0.9c-1.1-0.2-2-0.7-2.7-1.5c-0.7-0.9-1.1-1.8-1.1-2.9c0-6.8,0-10.2,0-17
	c1.2-0.3,2.6-0.8,3.5-1.7c0.1-0.1,0.2-0.3,0.2-0.5c0-0.1,0-0.2-0.1-0.3c-0.1-0.4-0.4-0.6-0.7-0.7c-0.8-0.1-1.4-0.5-2-1.1
	c-0.6-0.6-0.8-2-0.8-4.1c0-5.7,0-8.5,0-14.2c0-1.1,0.4-1.9,1.1-2.5c0.7-0.6,1.6-0.8,2.7-0.7c0.6,0.1,0.8-0.1,0.8-0.7s-0.3-0.9-0.8-1
	c-7.6-1.2-11.5-1.7-19-2.9c-0.5-0.1-0.7,0.2-0.7,0.7c0,0.6,0.2,0.9,0.7,1c1,0.2,1.9,0.7,2.6,1.5c0.7,0.8,1.1,1.8,1.1,2.8
	c0,8.5,0,12.7,0,21.2c-5.1-7.9-10.1-15.9-15.2-23.8c0-0.1-0.1-0.1-0.1-0.2c-0.5-0.8-0.8-1.4-0.8-1.8c0-0.1,0-0.2,0-0.4
	c0-0.2,0-0.5,0.1-0.6c0.1-0.2,0.3-0.4,0.6-0.4c0.3,0,0.5,0,0.8,0c0.6,0.1,0.8-0.2,0.8-0.7c0-0.6-0.3-0.9-0.8-1
	c-6.6-1-9.8-1.5-16.4-2.3c-0.6-0.1-0.8,0.2-0.8,0.7c0,0.6,0.3,0.9,0.8,0.9c1,0.1,1.9,0.6,2.6,1.4c0.7,0.8,1.1,1.8,1,2.8
	c0,5.7-0.1,8.6-0.1,14.5c0,2.2-0.3,3.5-0.9,4c-0.6,0.5-1.3,0.7-2,0.6c-0.3,0-0.6,0.1-0.7,0.5c0,0.1,0,0.1,0,0.2c0,0.2,0,0.5,0.2,0.7
	c0.7,1.1,2.1,2,3.4,2.7c-0.1,7-0.1,10.5-0.1,17.4C210.9,396.4,210.5,397.3,209.8,398z"/>
<path d="M281.7,363.6c0.7-0.6,1.6-0.7,2.7-0.5c0.6,0.1,0.8-0.1,0.8-0.7s-0.3-0.9-0.8-1c-7.6-1.6-11.4-2.4-19-3.8
	c-0.6-0.1-0.8,0.1-0.8,0.7s0.3,0.9,0.8,1c1.1,0.2,2,0.7,2.7,1.6c0.7,0.9,1.1,1.8,1.1,2.9c0,5.7,0,8.5,0,14.2c0,2.1-0.3,3.4-0.9,3.8
	c-0.6,0.4-1.3,0.6-2,0.4c-0.3-0.1-0.6,0.1-0.7,0.4c0,0.1,0,0.1,0,0.2c0,0.2,0,0.5,0.2,0.7c0.7,1.1,2.1,2.1,3.5,2.9
	c0,6.8,0,10.2,0,17c0,1.1-0.4,1.9-1.1,2.5c-0.7,0.6-1.6,0.8-2.7,0.6c-0.6-0.1-0.8,0.1-0.8,0.6c0,0.6,0.3,0.9,0.8,1
	c11.6,2.2,23.1,4.6,34.6,7.1c0.4,0.1,0.6-0.1,0.7-0.4c1.9-4.9,2.8-7.3,4.7-12.2c0.1-0.1,0.1-0.2,0.1-0.4c0-0.2-0.1-0.4-0.4-0.6
	c-0.2-0.2-0.3-0.3-0.5-0.3c-0.2,0-0.4,0-0.6,0.2c-1.3,1-2.9,1.5-4.3,1.6c-1.4,0.1-2.9,0-4.5-0.4c-5.8-1.3-8.8-1.9-14.6-3.1
	c0-4.3,0-6.5,0-10.9c1.4-0.2,2.8-0.7,3.5-1.5c0.1-0.2,0.2-0.4,0.2-0.6c0-0.1,0-0.1,0-0.2c-0.2-0.4-0.4-0.7-0.7-0.7
	c-0.7-0.2-1.4-0.6-2-1.2c-0.6-0.7-0.9-2-0.9-4.2c0-5.7,0-8.5,0-14.2C280.7,365,281,364.2,281.7,363.6z"/>
<path d="M313.5,415.3c-0.7,0.6-1.6,0.8-2.7,0.6c-0.6-0.1-0.8,0.1-0.8,0.6c0,0.6,0.3,0.9,0.8,1c11.6,2.4,23.2,4.6,34.9,6.2
	c0.5,0.1,0.7-0.2,0.7-0.7c0-0.2,0-0.3,0-0.6c1.8-4.7,2.6-7,4.4-11.7c0.1-0.1,0.1-0.2,0.1-0.4c0-0.2-0.1-0.4-0.4-0.6
	c-0.2-0.2-0.3-0.2-0.5-0.3c-0.2,0-0.4,0.1-0.6,0.2c-1.3,1.1-2.9,1.7-4.3,1.9c-1.4,0.2-2.9,0.2-4.5-0.1c-5.8-0.9-8.8-1.4-14.6-2.5
	c0-4.1,0-6.1,0-10.2c0.5-0.2,0.9-0.2,1.2-0.1c0.4,0.1,0.8,0.2,1.1,0.5c1.1,0.8,2.3,1.5,3.8,1.7c2.6,0.4,4.5-0.1,5.9-1.6
	c0.5-0.5,1-1.4,1.3-2.4c0.1-0.5,0.2-1.1,0.2-1.8c0-0.7-0.1-1.6-0.3-2.5c-0.1-0.4-0.3-0.6-0.7-0.7c-0.1,0-0.1,0-0.2,0
	c-0.3,0-0.5,0-0.7,0.2c-0.5,0.6-1.2,0.8-2,0.7c-0.5-0.1-1-0.3-1.4-0.6c-0.7-0.6-1.7-1.3-3-2.2c-1.3-0.9-2.8-1.4-4.4-1.7
	c-0.4-0.1-0.6-0.1-1-0.2c0-2.5,0-3.8,0-6.3c4.8,0.9,7.3,1.3,12.1,2.1c1.6,0.3,3.1,0.7,4.5,1.3c1.4,0.6,2.9,1.6,4.3,3.1
	c0.2,0.2,0.4,0.3,0.6,0.4c0.1,0,0.3-0.1,0.4-0.1c0.2-0.2,0.5-0.4,0.5-0.7c0-0.1,0-0.2-0.1-0.3c-1.9-5.6-2.8-8.3-4.7-13.9
	c-0.1-0.4-0.4-0.6-0.8-0.7c-10.7-1.7-21.4-3.7-32.1-5.8c-0.4,0-0.7,0.2-0.8,0.5c0,0.1,0,0.1,0,0.2c0,0.4,0.2,0.6,0.5,0.8
	c0.1,0.1,0.2,0.1,0.3,0.2c0,0,0.1,0,0.1,0c1.1,0.2,2,0.8,2.7,1.6c0.7,0.9,1.1,1.8,1.1,2.9c0,5.7,0,8.5,0,14.2c0,2.1-0.3,3.4-0.9,3.8
	c-0.6,0.4-1.3,0.5-2,0.4c-0.3-0.1-0.6,0.1-0.8,0.4c0,0.1,0,0.1,0,0.2c0,0.2,0,0.5,0.2,0.7c0.7,1.1,2.1,2.2,3.5,3c0,6.8,0,10.2,0,17
	C314.6,413.8,314.2,414.7,313.5,415.3z"/>
<path d="M380.9,416.8c-0.9,0.2-1.8,0.3-2.9,0.1c-1.4-0.2-2.9-0.6-4.5-1.1c-1.6-0.5-3.1-1.3-4.7-2.1c-1.5-0.9-3-1.9-4.3-3.1
	c-1.3-1.2-2.7-2.6-3.4-4c-0.1-0.3-0.3-0.5-0.6-0.6c-0.1,0-0.2,0-0.3,0.1c-0.3,0.1-0.6,0.3-0.6,0.8c0,7.2,0,10.9,0,18.1
	c0,0.4,0.2,0.8,0.7,1c0,0,0.1,0,0.1,0c0.4,0.1,0.6-0.1,0.7-0.4c0.4-1.3,0.9-2.1,1.3-2.3c0.5-0.2,0.8-0.3,1-0.2
	c0.4,0.1,1,0.3,1.7,0.7c3.9,2.4,8.2,4.3,12.7,4.9c2.5,0.3,4.8,0.3,6.9-0.2c2.1-0.4,4-1.2,5.5-2.3c1.6-1.1,2.8-2.5,3.7-4.2
	c0.9-1.7,1.3-3.6,1.4-5.8c0-1.4-0.3-3.2-1-5.3c-0.7-2.1-2.2-4.2-4.5-6.3c-1.9-1.8-4.6-3.6-7.9-5.4c-1-0.5-1.7-1.1-2.3-1.5
	c-0.5-0.4-0.9-0.9-1.1-1.3c-0.2-0.3-0.3-0.7-0.3-1c0-0.1,0.1-0.1,0.1-0.2c0.1-0.2,0.1-0.7,0.2-1c0-0.1,0.1-0.2,0.1-0.4
	c0-0.2-0.1-0.4-0.2-0.5c-0.2-0.2-0.5-0.4-0.7-0.4c-1.4-0.1-3,1.3-3.7,1.6c0,0-0.1,0-0.1-0.1c0,0-0.1,0-0.1,0
	c-0.5-0.6-0.7-1.1-0.7-1.7c0-0.3,0.1-0.6,0.2-0.9c0.2-0.5,0.6-1,1.3-1.5c0.7-0.5,1.6-0.7,2.9-0.6c0.2,0,0.3,0,0.6,0.1
	c0.8,0.1,1.8,0.4,2.9,0.9c1.1,0.5,2.2,1.2,3.2,2c1.1,0.8,2,1.7,2.9,2.7c0.9,1,1.6,2.2,1.8,3.4c0.1,0.4,0.4,0.7,0.9,0.7
	c0.4,0,0.7-0.3,0.7-0.8c0.1-7.3,0.1-11,0.1-18.3c0-0.4-0.3-0.8-0.7-0.9c-0.4-0.1-0.9,0.2-0.9,0.6c-0.2,1.4-0.6,2.2-1.4,2.1
	c-0.2,0-0.5-0.2-0.7-0.4c-1.2-1-2.6-1.9-4.1-2.5c-1.5-0.7-3-1.1-4.6-1.3c-2.6-0.3-4.9-0.3-7,0.1c-2.1,0.4-4,1.2-5.5,2.2
	c-1.6,1.1-2.8,2.4-3.6,4.1c-0.9,1.7-1.3,3.5-1.3,5.7c0,0.8,0.1,1.6,0.2,2.5c0.2,0.9,0.4,1.9,0.8,2.9c0.4,1,1,2,1.7,3.1
	c0.7,1.1,1.7,2.2,2.8,3.3c0.8,0.8,1.7,1.6,2.7,2.3c1,0.7,2.2,1.5,3.5,2.3c1.7,1.1,2.7,2,3,2.7c0.2,0.4,0.3,0.8,0.3,1.1
	c0,0.3-0.1,0.6-0.3,1c-0.1,0.1-0.1,0.2-0.1,0.4c0,0.2,0.1,0.4,0.2,0.5c0.1,0.2,0.3,0.4,0.6,0.5c0.1,0,0.2,0,0.3-0.1
	c1.1-0.2,3.2-1.5,3.7-1.6c0.5,0,2.1,1.8,2.5,2.5c0.2,0.4,0.4,0.8,0.4,1.3c0,0.3-0.1,0.6-0.3,0.9
	C382.4,416.2,381.8,416.6,380.9,416.8z"/>
<path d="M426.3,419.8c-0.9,0.4-1.9,0.6-3,0.6c-1.5,0-3-0.1-4.6-0.5c-1.6-0.3-3.2-0.8-4.8-1.6c-1.6-0.7-3-1.6-4.3-2.7
	c-1.3-1.1-2.7-2.4-3.4-3.7c-0.1-0.3-0.3-0.5-0.6-0.5c-0.1,0-0.2,0-0.3,0.1c-0.3,0.1-0.6,0.4-0.6,0.8c-0.1,7.3-0.1,10.9-0.2,18.2
	c0,0.4,0.2,0.7,0.7,0.9c0,0,0.1,0,0.1,0c0.4,0,0.6-0.2,0.8-0.5c0.5-1.4,0.9-2.2,1.4-2.5c0.5-0.2,0.8-0.3,1-0.3c0.4,0,1,0.2,1.7,0.6
	c3.9,2,8.3,3.3,13,3.2c2.5,0,4.9-0.5,7.1-1.3c2.2-0.8,4.1-2,5.8-3.4c1.6-1.4,2.9-3.1,3.8-5c0.9-1.9,1.4-3.9,1.4-6
	c0-1.4-0.4-3.1-1.1-5c-0.7-1.9-2.3-3.7-4.7-5.4c-2-1.4-4.7-2.7-8.1-4c-1-0.4-1.8-0.8-2.3-1.2c-0.5-0.4-0.9-0.8-1.1-1.1
	c-0.2-0.3-0.3-0.6-0.3-0.9c0-0.1,0.1-0.1,0.1-0.2c0.1-0.2,0.1-0.7,0.2-1c0.1-0.1,0.1-0.3,0.1-0.4c0-0.2-0.1-0.3-0.2-0.5
	c-0.2-0.2-0.5-0.3-0.8-0.3c-1.4,0.1-3,1.7-3.8,2.1c0,0-0.1,0-0.1-0.1c0,0-0.1,0-0.1,0c-0.5-0.5-0.7-1-0.7-1.6c0-0.3,0.1-0.6,0.2-0.9
	c0.2-0.5,0.6-1.1,1.3-1.7c0.7-0.6,1.7-0.9,2.9-1c0.2,0,0.3,0,0.6,0c0.8,0,1.8,0.2,2.9,0.5c1.1,0.3,2.2,0.8,3.3,1.4
	c1.1,0.6,2,1.4,2.9,2.2c0.9,0.9,1.6,2,1.9,3.1c0.1,0.3,0.5,0.6,1,0.5c0.4-0.1,0.7-0.5,0.7-0.9c0-7.3,0-10.9,0.1-18.2
	c0-0.4-0.3-0.8-0.8-0.8c-0.4,0-0.9,0.3-0.9,0.8c-0.2,1.4-0.6,2.3-1.4,2.3c-0.3,0-0.5-0.1-0.8-0.2c-1.2-0.8-2.6-1.4-4.1-1.8
	c-1.5-0.4-3-0.6-4.6-0.6c-2.6,0-4.9,0.4-7.1,1c-2.1,0.7-4,1.6-5.6,2.8c-1.6,1.2-2.8,2.7-3.7,4.4c-0.9,1.7-1.3,3.7-1.4,5.8
	c0,0.8,0.1,1.6,0.2,2.5c0.1,0.9,0.4,1.9,0.8,2.8c0.4,1,0.9,2,1.7,3c0.7,1,1.7,2,2.8,3c0.8,0.7,1.7,1.4,2.8,2c1,0.6,2.2,1.3,3.5,1.9
	c1.7,0.9,2.8,1.7,3.1,2.3c0.2,0.4,0.3,0.7,0.3,1c0,0.3-0.1,0.7-0.3,1c-0.1,0.1-0.1,0.3-0.1,0.4c0,0.2,0.1,0.4,0.2,0.5
	c0.1,0.2,0.3,0.4,0.6,0.4c0.1,0,0.2-0.1,0.3-0.1c1.2-0.4,3.2-2,3.8-2.1c0.5-0.1,2.2,1.5,2.6,2.1c0.2,0.4,0.4,0.8,0.4,1.2
	c0,0.3-0.1,0.6-0.3,1C427.8,418.9,427.2,419.4,426.3,419.8z"/>
<path d="M535.6,307.8c11.7-18.3,23.3-37.2,34.6-56.1l5.4-9l-10,3.1c-14.5,4.5-29.3,8-44.8,10.5c9.6-9.5,16.7-21.7,13.9-31.2
	c-2.6-8.7-12.4-13.9-11.6-16.8c4.8-16.1,30.3-35.1,46.7-38.5c3.1-0.6-2.6-13.4-9.7-14.2c-14.8-1.5-43.2,23-47.6,39.6
	c-3,11.1,9.7,17.9,9.9,25c0.3,11.2-23.6,39.7-36.2,39.6c-3.3,0-2.6-8.3-3.1-10.4c-0.2-1-1.2-1.9-2.1-2.8
	c6.7-8.2,12.6-17.8,12.6-17.8c0.8-4,1.2-6,2-10c-8.7,9.3-28.6,28.7-28.6,28.7c-2-1.4,26.8-54.2,41.5-75.7c3.6-5.2-9.5-15.9-11.4-15
	c-17.4,8-36.3,39.2-51.5,59.5c6.5-14.8,12.6-30.4,20.8-44c2.4-4-8.8-15.4-12.3-13.4c-18.1,10.6-34.6,44.4-47.9,66.5
	c10.7-25.4,20.7-52.5,34.1-76c3.3-5.8-14.4-17.5-17.1-12.2c-14.1,27.8-25.2,59.1-35.3,89.3c-5.8,8.5-18.8,24.4-19.7,24.1
	c-1.8-0.5,3.3-23.3,6.3-32.5c5.2-16.1,10.4-33.5,17.9-47.9c1.8-3.5-1.4-6.1-5.1-7.9c0.2-1.5,0.2-3.1-0.1-4.6
	c-0.9-4.5-5.8-11.7-15.4-14.1c-22-5.3-46.2,51.6-52.2,69.7c-4.5,6.3-13.3,20-22.3,28.7c-7.1-1.2-14.3-2.5-21.5-3.7
	c-0.4-6.6,1.1-14.5,2.3-18.9c2.4,5,9.2,13.6,15.4,11.7c17.5-5.7,31.8-55.7,25.2-76.1c-1.1-3.4-9.6-12.9-16.2-11.9
	c-13.2,2.1-21.4,23.7-26.9,35.2c-6.5,7.9-18.3,20.2-18.7,19.8c-3.3-4.9,7.9-32.2,13.6-45.3c2-4.7-6.9-20-11-15.4
	c-20.2,22.9-35.3,50.6-47.5,79.3c4.5-21.4,9.5-42.7,14.5-64C229,142,211,135,209.6,140.9c-5.6,23.4-11.6,46.7-16.7,70.2
	c-1.1,4.9-2.6,10.3-3.8,15.7c-8.9-0.8-17.7-1.4-26.6-1.8c17.5-18.7,30.6-39.8,31.5-62.1c0.8-19.5-11.3-52.6-27.2-59.1
	c-15.6-6.4-45.4,17.4-60.9,27.9c0.1-0.2,0.1-0.4,0.2-0.6c2.8-7.9-13.6-12.5-14.7-9.4c-2.1,5.9-4.3,15.1-6.1,25.8
	c-16.3,14-40,32.6-41.9,54.6c-1.1,12.3,11,26.4,23.6,29.4c-11.5,2.3-22.8,5.1-33.8,8.6l-6.4,2l4.9,4.7
	c11.6,11.3,23.1,22.9,35.1,35.7c-11.2,17.2-22.9,35.9-35.7,56.9l-5.5,9l10.1-3.1C68.3,335,103,330,141.7,330
	c52.6,0,106.2,9.3,158.1,18.2c52.2,9,106.2,18.3,159.4,18.3c39.6,0,75.2-5.1,108.8-15.6l6.2-1.9l-4.6-4.7
	C558.3,332.8,547.2,320.8,535.6,307.8z M307.2,164c-1,17.4-12.8,51.8-23,55.7c-1,0.4-3.4-2.6-4.9-5.5
	C284.6,196.5,292.8,176.3,307.2,164z M435,195.3c-6.6,14.5-15.2,30.6-16.8,45.7c-0.8,7.7,7,13.6,13.6,13.1c0.1-0.5,0.2-1.1,0.3-1.8
	c4.2-2.6,5.7-6.3,8.3-10.6c11-17.8,22.2-34.8,35.2-51.3c-9.5,15-25.9,36-25.4,52.2c0.3,7.8,7.3,16,14.5,16.1c3.1,0,6.5-2.1,9.9-5.2
	c0,0.3,0.1,0.5,0.1,0.8c0.6,2.2,1.6,4.4,3,6.4c-6.1,0.3-12.2,0.4-18.5,0.4c-19.8,0-39.7-1.3-59.6-3.4
	C405.5,235.8,423.3,213.6,435,195.3z M382.4,249.5c0.7,2.4,1.8,4.6,3.2,6.5c-2.5-0.3-5-0.6-7.5-1
	C379.5,253.4,380.9,251.5,382.4,249.5z M377.2,156.4c1.5-0.2,2.4,1.6,2.8,3.5c-0.1,0-0.2-0.1-0.2-0.1c-8.4,17.6-17.1,35-26.1,52.3
	c-5.2,10.1-15.9,29.8-20.4,36.1c-0.8-0.1-1.7-0.3-2.5-0.4C331.6,233.3,358.1,158.7,377.2,156.4z M354.5,248.8c0.4,1.1,1,2.1,1.6,3.1
	c-4.1-0.6-8.2-1.3-12.4-1.9c5-6.7,8.9-16.4,11.7-23.1C355.4,226.9,352.5,243.7,354.5,248.8z M315.3,239.2c0.2,2.4,0.8,4.5,1.6,6.3
	c-2-0.3-4-0.7-6-1C312.4,242.7,313.9,241,315.3,239.2z M244,175.2c0,0-5,15.9-4.1,21.6c0.8,5.7,8,17.1,15.2,17.1
	c2.8,0,7-4.7,11.3-10.6c-2.5,10.6-5.9,21.5-2.9,31.8c0.1,0.5,0.3,1,0.5,1.5c-14.3-2.3-28.7-4.5-43.2-6.4
	C226.6,212.1,233.1,189.9,244,175.2z M95.8,220.7c16-9.2,39.4-20,46.9-32.1c1.3-2.2,3-17.2,0-13.5c-9.7,12.2-30.3,21.3-46.1,30
	c0.8-13.4,2-26.8,3.6-40.1c12.6-9.4,65.7-51.2,78.7-28.4c9.2,16.1-7.9,42.9-17.5,56.9c-7.5,11-16.2,21.3-25.6,30.9
	c-13.9,0.2-27.2,1-40.2,2.5C95.7,224.9,95.8,222.8,95.8,220.7z M57.4,218.2c-7.9-10.8,15.5-29.8,23.7-37.4c-1,11-1.8,22-2.2,33
	C68.2,218.4,59.1,220.5,57.4,218.2z M459.2,358.5c-52.6,0-106.2-9.3-158.1-18.2c-52.2-9-106.2-18.3-159.4-18.3
	c-35.6,0-68,4.1-98.5,12.6c11.3-18.5,21.8-35.1,31.9-50.5l1.7-2.6l-2.1-2.3c-11.1-11.9-21.8-22.9-32.6-33.5
	c30.8-8.9,63.5-13.2,99.7-13.2c52.6,0,106.2,9.3,158.1,18.2c52.2,9,106.2,18.3,159.4,18.3c35.8,0,68.2-4.1,98.9-12.7
	c-10.1,16.8-20.5,33.4-30.8,49.7l-1.6,2.5l2,2.3c10.8,12.2,21.2,23.5,31.7,34.4C528.4,354.2,495.6,358.5,459.2,358.5z"/>
<path d="M371.8,277.1c-2.1-0.3-3.1-0.5-5.2-0.8c-1.1-0.2-1.9,0.2-2.1,1.1c-2.5,9.7-3.8,14.5-6.3,24.2c-0.1,0.6-0.2,0.8-0.4,0.8
	c-0.1,0-0.3-0.3-0.4-1c-2.9-10.4-4.3-15.6-7.2-25.9c-0.4-1.1-1-1.8-1.8-2.2c0,0,0,0,0-0.1c-4.5-0.8-6.8-1.2-11.3-2
	c-0.8-0.1-1.1,0.2-1.1,1c0,0.3,0.1,0.7,0.2,1.3c2.1,7.6,3.1,11.5,5.2,19.1c-0.6,2.3-0.9,3.5-1.6,5.9c-0.1,0.6-0.2,0.8-0.4,0.8
	c-0.1,0-0.3-0.3-0.4-1c-2.9-10.4-4.3-15.6-7.2-26c-0.5-1.4-1.2-2.2-2.3-2.4c-4.3-0.8-6.5-1.2-10.8-2c-0.8-0.1-1.1,0.2-1.1,1
	c0,0.3,0.1,0.7,0.2,1.3c5.6,20.4,11.3,40.9,17,61.3c0.5,1.2,1.2,1.9,1.9,2c0.9,0.2,1.3,0.2,2.2,0.4c0.8,0.1,1.3-0.4,1.7-1.5
	c2.1-7.9,3.2-11.9,5.3-19.8c0.1-0.4,0.2-0.5,0.4-0.5c0.1,0,0.3,0.3,0.5,0.9c2.4,8.7,3.6,13,6,21.7c0.5,1.2,1.2,1.9,1.9,2
	c0.9,0.1,1.3,0.2,2.2,0.4c0.8,0.1,1.3-0.4,1.7-1.6c4.9-18.5,9.8-37,14.7-55.5c0-0.2,0-0.5,0-0.7C373.5,278,372.9,277.3,371.8,277.1z
	"/>
<path d="M402.7,278.9c-7.5-0.8-13.7,1.7-18.7,7.6c-5,5.9-7.4,13.3-7.2,22.2c0.2,8.9,2.9,17.1,8.1,24.4c5.2,7.3,11.6,11.4,19.1,12.1
	c7.5,0.8,13.8-2,18.7-8.2c5-6.2,7.4-13.9,7.2-22.8c-0.2-8.9-2.9-16.8-8.1-23.7C416.6,283.5,410.2,279.7,402.7,278.9z M416.2,330.6
	c-3.5,4.3-7.6,6.3-12.4,5.8c-3.3-0.3-5.7-1.4-7.3-3.3c-1-0.8-1.6-2.8-1.6-6.1c-0.2-12.4-0.4-18.5-0.6-30.9c0.1-3.9,0.8-6.2,2.1-6.8
	c1.1-1.3,3.2-1.8,6.5-1.4c4.8,0.5,9,3.2,12.7,8.1c3.7,4.9,5.6,10.8,5.7,17.7C421.4,320.6,419.7,326.2,416.2,330.6z"/>
<path d="M468.3,320.1c3.1-4.3,4.7-9.4,4.6-15.2c-0.1-5.8-1.8-10.7-5.2-14.7c-3.3-4-7-6.1-11.1-6.4c-8,0.1-12,0.1-19.9-0.2
	c-1.3,0-1.9,0.7-1.9,2.3c0.4,19.2,0.8,38.3,1.1,57.5c0,1.6,0.6,2.4,1.8,2.5c3.9,0.1,5.9,0.2,9.8,0.2c1.4,0,2.1-0.9,2-2.7
	c-0.1-5.8-0.2-8.7-0.3-14.5c0-1,0.4-1.5,1.3-1.5c2.2,0,3.3,0,5.5,0c3.2,7.1,4.8,10.6,8,17.6c0.3,0.6,0.8,0.9,1.4,0.9
	c2.6-0.1,4-0.1,6.6-0.3c0.7,0,1.1-0.3,1.1-0.9c0-0.3-0.1-0.6-0.3-0.9c-0.8-1.7-1.2-2.6-2-4.3c-2.6-5.4-3.9-8.1-6.4-13.5
	c-0.1-0.2-0.1-0.4-0.1-0.5c0-0.4,0.1-0.7,0.4-1.1C465.3,324,466.4,322.6,468.3,320.1z M462,315.2c-1.6,2.2-3.4,3.4-5.5,3.5
	c-2.2,0-3.4,0-5.6,0c-1.2,0-1.9-0.8-1.9-2.5c-0.2-8.7-0.3-13.1-0.4-21.9c0-1.5,0.6-2.2,1.9-2.2c1.6,0,2.4,0,4.1,0
	c2.9,0.1,5.4,1.3,7.4,3.8c1.8,2.3,2.8,5.4,2.9,9.3C464.9,309.2,464,312.5,462,315.2z"/>
<path d="M502.1,306.4c-0.3-0.1-0.4-0.2-0.4-0.5c0-0.2,0-0.4,0.1-0.6c3.9-10,5.8-15,9.7-25.1c0.1-0.3,0.1-0.6,0.1-0.8
	c0-0.6-0.3-0.8-0.9-0.7c-2.6,0.5-3.9,0.7-6.4,1.1c-0.8,0.1-1.4,0.6-1.7,1.3c-4.3,10.5-6.4,15.8-10.7,26.1c-0.2,0.5-0.5,0.8-0.7,0.8
	c-0.1,0-0.3-0.1-0.4-0.4c-0.2-9.4-0.3-14-0.5-23.4c0-1.7-0.7-2.5-2.1-2.4c-3.6,0.4-5.5,0.6-9.1,0.8c-1.3,0.1-1.9,0.9-1.9,2.5
	c0.4,19,0.7,38.1,1.1,57.1c0,1.8,0.7,2.7,1.8,2.6c3.7-0.3,5.6-0.5,9.3-0.9c1.3-0.1,1.9-1.1,1.9-2.8c-0.1-4.2-0.1-6.3-0.2-10.4
	c2.3-5.7,3.5-8.6,5.8-14.4c0.3-0.8,0.9-1.3,1.6-1.4c0.2,0,0.3,0,0.5,0c0.5,0.2,2,1.6,4.5,4.3c3.8,4.3,5.8,9.9,5.9,16.9
	c0,1.3,0,1.9,0.1,3.2c0,1.2,0.6,1.7,1.6,1.6c2.1-0.4,3.2-0.6,5.3-1c1-0.2,1.5-1,1.5-2.5c0-1.1,0-1.7-0.1-2.8
	c-0.2-8.9-2.8-16.1-7.9-21.6C506.8,309.4,504.1,307.2,502.1,306.4z"/>
<path d="M109.2,247c-7.8,0.9-11.7,1.5-19.4,2.9c-0.9,0.2-1.3,0.8-1.2,1.9c0.4,19.6,0.8,39.3,1.2,58.9c0,1.1,0.5,1.6,1.5,1.4
	c8.3-1.5,12.4-2.1,20.7-3c5.2-1.5,9.9-5.1,13.8-10.8c4.3-6.2,6.3-13.6,6.2-22c-0.2-8.3-2.5-15.6-6.9-21.4
	C120.7,249.6,115.4,246.9,109.2,247z M118.7,293.7c-2.9,4.3-6.4,6.7-10.5,7.3c-1.7,0.2-2.5,0.3-4.2,0.5c-1.6,0.2-2.4-0.8-2.4-3.1
	c-0.2-12.6-0.5-25.2-0.7-37.8c-0.1-2.6,0.6-4,1.9-4.2c1.3-0.2,2-0.3,3.3-0.4c5.2-0.5,9.2,1.1,12.1,4.7c3.3,4.3,5.1,9.7,5.2,16.2
	C123.5,283.3,122,289,118.7,293.7z"/>
<path d="M162.5,243c-7.5-0.3-13.7,3-18.7,9.7c-5,6.7-7.4,14.5-7.2,23.4c0.2,8.9,2.9,16.6,8.1,23.1c5.2,6.5,11.6,9.8,19,10.1
	c7.5,0.3,13.8-2.6,18.7-8.8c5-6.2,7.4-13.7,7.2-22.7c-0.2-8.9-2.9-16.9-8.1-23.9C176.4,246.9,170,243.2,162.5,243z M176,294.1
	c-3.5,4.4-7.6,6.5-12.4,6.3c-3.3-0.1-5.7-1-7.3-2.7c-1-0.7-1.6-2.7-1.6-5.9c-0.2-12.4-0.4-18.5-0.6-30.9c0.1-3.9,0.8-6.3,2.1-7
	c1.1-1.4,3.2-2.1,6.4-2c4.8,0.2,9,2.7,12.7,7.6c3.7,4.9,5.6,10.8,5.7,17.7C181.2,284,179.5,289.6,176,294.1z"/>
<path d="M229.4,251.7c-1.7-0.3-2.5-0.4-4.2-0.6c-1.4-0.2-2.1,0.3-2.1,1.6c0.3,12.8,0.4,19.2,0.6,32c0,0.6-0.1,0.8-0.2,0.8
	c-0.1,0-0.3-0.3-0.6-0.7c-4.8-11.4-9.7-22.8-14.5-34.2c-0.4-1.1-1.3-1.8-2.5-2c-3.8-0.5-5.7-0.7-9.6-1.1c-1.3-0.1-1.9,0.6-1.9,2.2
	c0.4,19,0.7,38.1,1.1,57.1c0,1.8,0.7,2.8,1.9,2.9c3.9,0.4,5.9,0.6,9.8,1.1c1.3,0.2,1.9-0.6,1.9-2.4c-0.2-11.6-0.5-23.3-0.7-34.9
	c0-0.6,0-0.9,0.2-0.9c0.1,0,0.3,0.4,0.6,1c5.6,12.5,11.2,25.1,16.7,37.6c0.7,1.5,1.5,2.3,2.5,2.4c1.1,0.2,1.7,0.3,2.9,0.4
	c0.9,0.1,1.4-0.6,1.4-2.2c-0.4-19.3-0.8-38.6-1.1-57.8C231.5,252.7,230.8,252,229.4,251.7z"/>
<path d="M280.8,260.7c-8.8-1.7-13.2-2.5-22-4.1c-1-0.2-1.5,0.3-1.5,1.6c0,2.1,0.1,3.2,0.1,5.3c0,1,0.5,1.5,1.5,1.7
	c1.8,0.3,2.7,0.5,4.5,0.8c0.3,17,0.7,34,1,51c0,1.8,0.7,2.8,1.9,3.1c3.8,0.7,5.6,1,9.4,1.7c1.3,0.2,1.9-0.5,1.9-2.2
	c-0.3-17-0.7-34.1-1-51.1c1.8,0.3,2.7,0.5,4.5,0.8c1,0.2,1.5-0.2,1.4-1.2c0-2.1-0.1-3.2-0.1-5.3
	C282.3,261.6,281.8,260.9,280.8,260.7z"/>
<path d="M247,254.1c-1.6-0.3-2.4-0.4-4.1-0.7c-1.2-0.2-2.2,0.6-2.1,1.8c0.1,4.1,0.1,6.2,0.2,10.3c0,1.2,1,2.3,2.2,2.5
	c1.6,0.3,2.4,0.4,4.1,0.7c1.2,0.2,2.2-0.6,2.1-1.8c-0.1-4.1-0.1-6.2-0.2-10.3C249.2,255.4,248.2,254.3,247,254.1z"/>
<path d="M165.7,423c-35,5.6-87.6,50.9-112.2,83.2c-1.3-5.6,1.6-10.5,4.2-15.7c14.8-29.1,37.1-50.9,58.2-75.7c4.2-5-8.3-13.4-10.1-12
	c-18.7,15-30.6,29.9-44.8,48.8c-9.5,12.7-26.4,32.1-24.4,47.2c1.1,8,14.7,19.1,21,15.4c27-16,64.5-62.7,106.1-77.3
	c-11.1,28.1-34.4,54.7-53.5,78.1c-13,15.9-44.8,60.9-64.2,58.5c-4.3-0.5-5.4-5.2-6-6.5c-0.6-1.3-8.3-2.8-11.8-6.9
	c-2-2.4-2.3,8.4,0.8,11.6c6.3,6.6,17.7,11,27,12.4c27.7,4.2,56.9-36.9,71.1-55.7c21.3-28.3,38.7-59,55.2-89.9
	C186.6,430.9,170,422.3,165.7,423z"/>
<path d="M173.8,509.6c2.8,8.3,16.9,17.5,24.9,16.1c14.2-2.5,28.9-29.5,38.7-44.8c0.3,0,0.6,0.1,0.9,0c12.5-1.2,25.4-17.2,34.3-26.9
	c-8.6,17-26.2,44.2-22.6,60.4c1.9,8.7,16.9,11.9,22.8,11.8c5.8-0.1,19.3-20.2,19.3-20.2s-1.1,6.3,0.3,9.4
	c1.3,3.1,12.9,11.8,19.7,10.8c16.8-2.7,32-33.2,40.9-48.8c-0.3-3.9-0.4-5.9-0.7-9.8c-12.1,15.4-41.4,46.4-41.4,46.4
	c-1.7-1,14.7-46.4,24.3-64.2c2.4-4.4-12.9-10.3-15.3-9.7c-0.4,0.1-5.6,9.3-13.3,25.5c-10.6,17.1-37.9,51.3-37.9,51.3
	c-2.6-1,18.1-55.9,28.9-73.2c2.8-4.5-12.2-10.7-13.7-8.9c-1,1.2-2.4,3.3-4.1,6.2c-0.1-1.1-0.2-1.6-0.3-2.7
	c-10.2,8.1-20.7,16-31.5,23.3c4.3-8.9,10-22.5,5.3-29.2c-4-5.8-18.1-7.8-22.3-6.8c-2,0.5-7.7,8-12.5,16.6c-3.6-2.9-10.9-5.5-12.2-4
	C192.4,453.6,168,492.2,173.8,509.6z M243.7,435.4c3.4,0.5-6.1,26.7-10.5,35c-3.3,1.7-6.1,2.4-6.3,1.9
	C223.5,466.1,241,435,243.7,435.4z M211.7,458.1c-0.8,3.5-0.7,6.6,0.7,8.6c4.2,6.2,9.3,10.4,15.5,12.5
	c-8.7,13.2-29.6,41.1-35.2,39.3C186.5,516.5,204.6,469.9,211.7,458.1z"/>
<path d="M540,468.9c3.6-8.5,8.2-21.6,2.8-27.4c-4.7-5.1-19.4-5.7-23.7-4.5c-2.1,0.6-7.2,8-11.3,16.3c-4-2.4-11.7-4.2-12.9-2.7
	c-12.4,15.2-20.2,34.7-25.3,53.1c-9,9.5-19.7,19-20.3,18.3c-5.8-6.9,8.7-32.5,14.1-44.4c8-17.7,12.8-31,22.5-47.4
	c2.6-4.3-13.6-10.6-14.8-9.1c-8.1,10.1-11.1,20.4-17.9,33.3c-3.7-2.8-9.5-5.5-17-5.2c-22.6,0.8-66.6,48.4-56.9,68.2
	c7.2,14.8,18.8,15.7,22.8,14.9c9.4-1.8,20-15,28-23.4c0,0-2.4,7.5-1.1,10.7c1.2,3.2,13.6,12.9,25.2,12.4c4.3-0.2,9.9-5.2,15.2-11.5
	c6.2,7.4,18.2,13.3,26.1,11.6c14.3-3.1,27.9-30.1,35.7-44.4c0.3,0,0.6,0,0.9,0c15.5-2.7,30.1-23.5,39.9-36c-0.6-2.7-0.9-4-1.5-6.6
	C560.6,453.3,550.5,461.3,540,468.9z M395.2,523.8c-5-1.6,34.6-68,54.2-65.4c0.5,0.1,1,0.3,1.4,0.7c-3,5.8-5.9,11.7-8.6,17.3
	C431.3,492.9,398.9,525,395.2,523.8z M488.6,525.9c-6.5-1.4,7.8-45.8,14-57.3c-0.4,3.3-0.1,6.2,1.5,7.9c4.9,5.4,10.5,8.9,17.1,10.3
	C513.5,499.7,494.6,527.1,488.6,525.9z M525.9,478.2c-3.3,1.8-6,2.7-6.4,2.3c-4-5.5,11.1-35.5,14-35.4
	C537.1,445.3,529.6,470.3,525.9,478.2z"/>
<polygon points="31.8,289.7 43.5,277.5 26.9,280.5 18.9,265.6 16.6,282.3 0,285.3 15.2,292.7 12.9,309.4 24.6,297.2 39.8,304.6 "/>
<polygon points="597.1,290.9 580.3,292.8 573.3,277.4 569.9,293.9 553.1,295.8 567.8,304.2 564.4,320.7 576.9,309.3 591.6,317.6
	584.6,302.3 "/>
<path d="M456.7,396.7c-4.2-0.3-4.2,7.2,0,7.5c14.3,1.1,28.7,1,42.9-0.3l1.6,13.5l46.9-22.7l-50.9-11l1.5,12.8
	C484.7,397.7,470.7,397.8,456.7,396.7z"/>
<path d="M40.8,366.8l22.8,12.1l-15.8,20.6l34.6-7.4l13.5-12.2c0,0-3,5.4-5.9,10.6l9.9-2.1l15-16.3c6.7-0.5,13.4-0.6,20.1-0.5
	c4.4,0.1,4.3-7.7-0.1-7.8c-7.1-0.1-14.3,0.1-21.4,0.6l-20.6-8.8l-0.1,0l-27.6,5.9l5.6,6c0,0-7.9-2.8-12.6-4.5L40.8,366.8z"/>
<path d="M322.1,133.3c0-19,0-38,0-56.9c0-4.8-7.5-4.8-7.5,0c0,19,0,38,0,56.9C314.6,138.1,322.1,138.1,322.1,133.3z"/>
<path d="M322.2,58.3c0-13.5,0-27,0-40.4c0-4.8-7.5-4.8-7.5,0c0,13.5,0,27,0,40.4C314.7,63.1,322.2,63.1,322.2,58.3z"/>
<path d="M272.9,50.2c6.7,25.4,14,50.6,20.8,76c1.2,4.7,8.5,2.7,7.2-2c-6.8-25.4-14-50.6-20.8-76C278.8,43.5,271.6,45.5,272.9,50.2z"
	/>
<path d="M268.4,33.4c1.2,4.7,8.5,2.7,7.2-2c-2.5-9.6-5.1-19.2-7.6-28.7c-1.2-4.7-8.5-2.7-7.2,2C263.3,14.2,265.9,23.8,268.4,33.4z"
	/>
<path d="M267,123.9c2.4,4.2,8.9,0.4,6.5-3.8c-15.2-26.3-30.5-52.7-45.8-79c-2.4-4.2-8.9-0.4-6.5,3.8
	C236.5,71.2,251.7,97.5,267,123.9z"/>
<path d="M225.7,118.4c3.4,3.4,8.7-1.9,5.3-5.3c-5.8-5.8-11.7-11.6-17.6-17.4c-3.4-3.4-8.7,1.9-5.3,5.3
	C214,106.8,219.9,112.6,225.7,118.4z"/>
<path d="M198.4,91.3c3.4,3.4,8.7-1.9,5.3-5.3c-7-6.9-14.1-13.9-21.1-20.8c-3.4-3.4-8.7,1.9-5.3,5.3
	C184.3,77.4,191.3,84.3,198.4,91.3z"/>
<path d="M450.6,132.2c10.9-7.4,21.8-14.9,32.8-22.4c4-2.7,0.2-9.2-3.8-6.5c-10.9,7.5-21.8,14.9-32.8,22.4
	C442.9,128.4,446.6,134.9,450.6,132.2z"/>
<path d="M425.8,103.4c13.4-13.4,26.9-26.8,40.4-40.1c3.4-3.4-1.9-8.7-5.3-5.3c-13.5,13.3-26.9,26.7-40.4,40.1
	C417.1,101.5,422.4,106.8,425.8,103.4z"/>
<path d="M406.7,111.8c-6.6,6.6-12.9,13.3-19.5,19.8c-3.4,3.4,1.9,8.7,5.3,5.3c6.5-6.6,12.9-13.3,19.5-19.8
	C415.4,113.7,410.1,108.4,406.7,111.8z"/>
<path d="M406.6,60.6c3-5.2,6-10.5,9.1-15.7c2.4-4.2-4.1-8-6.5-3.8c-3,5.2-6,10.5-9.1,15.7C397.7,61,404.2,64.8,406.6,60.6z"/>
<path d="M373.5,118c8.3-14.3,16.5-28.6,24.8-42.9c2.4-4.2-4.1-8-6.5-3.8c-8.3,14.3-16.5,28.6-24.8,42.9
	C364.6,118.4,371.1,122.2,373.5,118z"/>
<path d="M346.7,126.1c9.1-38.2,18.2-76.5,27.7-114.6c1.2-4.7-6.1-6.7-7.2-2c-9.5,38.1-18.7,76.4-27.7,114.6
	C338.4,128.8,345.6,130.8,346.7,126.1z"/>
</svg>
