<?xml version="1.0" encoding="utf-8"?>
<!-- Generator: Adobe Illustrator 17.1.0, SVG Export Plug-In . SVG Version: 6.00 Build 0)  -->
<!DOCTYPE svg PUBLIC "-//W3C//DTD SVG 1.1//EN" "http://www.w3.org/Graphics/SVG/1.1/DTD/svg11.dtd">
<svg version="1.1" id="Слой_1" xmlns="http://www.w3.org/2000/svg" xmlns:xlink="http://www.w3.org/1999/xlink" width="300" height="200" x="0px" y="0px"
	 viewBox="0 0 504.6 517.6" enable-background="new 0 0 504.6 517.6" xml:space="preserve">
<g>
	<path fill="#161616" d="M253.3,176.1c4.1-0.9,7.5-3.2,10.1-6.9c1.3-1.8,2.2-3.8,2.8-5.9c0.5-2.1,0.8-4.3,0.6-6.7
		c-0.3-4.6-1.8-8.2-4.7-10.7c-2.9-2.5-6.5-3.3-10.5-2.4c-4.2,0.9-7.5,3.2-10.1,6.8c-2.5,3.7-3.7,7.8-3.4,12.5
		c0.3,4.8,1.8,8.5,4.6,10.9C245.5,176.2,249.1,177,253.3,176.1z"/>
	<path fill="#161616" d="M181.4,177.7c0.2,3.5-0.1,8.7,4.7,8.2c4-0.4,8.2-1.8,11-4.8c2.5-2.7,3.7-6.8,3.4-12
		c-0.3-5.2-1.9-8.9-4.7-11.1c-3.1-2.4-12.7-5-15.1-0.6c-1.9,3.6-0.1,8.8,0.2,12.6C181.1,172.6,181.3,175.1,181.4,177.7z"/>
	<path fill="#161616" d="M311.8,395c-0.8,1.5-1.2,3-1.2,4.2c0,3.8,2.1,5.9,6,5.9h0.1c2.6,0,4.4-0.9,5.3-2.7c0.8-1.5,1.2-3,1.2-4.2
		c0-3.8-2.2-5.9-6-5.9C314.5,392.3,312.7,393.2,311.8,395z"/>
	<path fill="#161616" d="M495.5,416.4c-0.4-0.3-0.8-0.4-1.3-0.4c-0.8,0-1.4,0.4-2,1.2c-1.7,2.7-4.3,5-7.6,6.9c-3.5,2-6.8,3.7-9.9,5
		l-1.1,0.5c-0.3-1.2-0.6-2.4-1-3.5c-3.5-12.1-5.6-21.2-6.1-26.9c-0.5-2.8-2.1-3.2-3-3.2h0c-1.5,0.1-2.6,1-3.3,3
		c-0.4,1.5-0.9,3-1.4,4.5c-1.9,4.8-4.2,9.5-6.9,13.9c-3.7,6.4-9.3,13.2-16.6,20.2c-0.7-12.8-3.1-21.5-7.2-25.6
		c-1.4-1.4-3.2-2.1-5.3-2.1c-3.5,0-6.1,2-7.8,5.9c-0.7,1.6-1.3,3.2-1.7,4.9c-2.3,9.9-5.3,17-8.8,21c-0.7,0.6-1.1,0.7-1.3,0.7
		c-0.2,0-0.6,0-1-1c-0.4-1.1-0.6-2.1-0.6-3.1c0-1.1-0.1-1.8-0.1-2.3c0-1.1,0.1-2.3,0.2-3.5c0.4-4.6,1.2-9.1,2.5-13.2
		c1.3-4.1,3-7.5,5-10.2c1.8-2.4,3.7-3.7,5.7-3.7c0.5,0,0.9,0.2,1.4,0.7c0.4,0.3,0.9,0.5,1.4,0.5c0.7,0,1.3-0.3,1.8-0.9
		c0.4-0.5,0.6-1.1,0.6-1.7c0-0.7-0.3-1.3-0.7-1.7c-1.7-1.7-3.7-2.5-6-2.5c-4.5,0-8.6,2.4-12.3,7.2c-2.4,3.1-4.4,6.9-5.9,11.3
		c-8,14.7-14.3,24.2-18.5,28.3c-0.7,0.7-1.2,0.8-1.5,0.8c-0.2,0-0.5,0-0.7-0.6c-0.3-0.8-0.5-1.7-0.5-2.5c-0.1-0.9-0.1-1.6-0.1-2.2
		c0-0.2,0-0.4,0-0.5l0,0l0-0.4c0.2-4.2,0.7-8.6,1.4-12.9c1.2-6.6,1.7-12.1,1.7-16.2c0-1-0.1-2.1-0.3-3.1c-0.3-2.1-1.1-3.7-2.5-5
		c-1.2-1.1-2.6-1.7-4.3-1.7c-3.5,0-6.8,2.8-9.9,8.6c-4.1,7.5-7.7,16.2-10.5,25.9c0-0.9,0-1.9-0.1-2.9c0-4,0.2-8.1,0.4-12.4
		c0-1.4-0.8-2.6-2.3-3.5c-1.5-0.8-3-1.3-4.6-1.3c-0.6,0-1.2,0.3-1.7,0.7c-0.2,0.2-0.3,0.5-0.3,0.6c-5.2,9.3-10.4,16.7-15.3,22.1
		c-2.7,2.9-3.9,3.2-4.3,3.2c-0.8,0-1.9-1.7-2.5-6.6c-0.4-3-0.6-6-0.6-9c0-3.6,0.2-7.8,0.6-12.5c0-0.7-0.2-1.2-0.6-1.7
		c-0.4-0.5-1-0.8-1.6-0.8c-1.2,0-2.3,0.2-3.4,0.5c-1.2,0.4-2.2,1-2.9,2c-0.6,0.8-1,1.8-1.2,2.9c-8.1,14.8-14.4,24.4-18.7,28.6
		c-0.7,0.7-1.2,0.8-1.5,0.8c-0.2,0-0.5,0-0.7-0.6c-0.3-0.8-0.5-1.7-0.5-2.5c-0.1-0.9-0.1-1.6-0.1-2.2c0-0.3,0-0.5,0-0.7l0-0.1l0-0.2
		c0.2-4.2,0.7-8.5,1.4-12.9c1.2-6.6,1.8-12.1,1.7-16.2c0-1-0.1-2.1-0.3-3.1c-0.3-2.1-1.1-3.7-2.5-5c-1.2-1.1-2.6-1.7-4.3-1.7
		c-3.5,0-6.8,2.8-9.9,8.6c-4.1,7.5-7.7,16.2-10.5,25.9c0-0.9,0-1.9-0.1-2.9c0-4,0.2-8.2,0.4-12.4c0-1.4-0.8-2.6-2.3-3.5
		c-1.4-0.8-2.9-1.2-4.3-1.3l-0.2,0l-0.2,0c-0.6,0-1.2,0.2-1.7,0.7c-0.2,0.2-0.3,0.5-0.3,0.6c-5.6,9.8-11.8,18.5-18.6,25.7
		c-4.2,4.5-5.7,4.8-6,4.8c-0.6,0-0.7-0.2-0.7-0.6c-0.1-1-0.2-1.8-0.2-2.3c0-2.7,0.5-6.3,1.7-10.8c1.8-7.1,4.1-14.2,6.9-21.3
		c0.2-0.4,0.2-0.7,0.2-1.1c0-1.3-0.8-2.2-2-2.3c-3.3-0.5-5.8-1.4-7.7-2.8c3.3-6.9,4.9-12.6,4.9-16.9c0-2-0.4-3.9-1.2-5.6
		c-1.9-3.3-5.3-5-10.3-5c-0.6,0-1.6,0.2-2.3,1.8c-1.5,4.7-2.3,9.5-2.3,14.2c0,6.1,1.6,10.9,4.7,14.3c-1.4,2.7-2.9,5.4-4.4,8
		c-4.8,8.5-10.6,13.5-17.4,14.9c1.7-5.2,2.5-10.8,2.5-16.5c0-3.9-0.6-7.4-1.6-10.5c-2.2-6.7-6.7-10-13.5-10c-4.7,0-8.5,2-11.4,5.8
		c-2.7,3.6-4,7.8-4,12.6c0,2.1,0.3,4.2,0.8,6.2c-2.6,5.1-3.8,10.3-3.8,15.5c0,5.6,1.6,9.9,4.6,12.8c2,1.9,4.6,2.8,7.9,2.8
		c3.3,0,6.5-1.2,9.4-3.5c2.8-2.4,5.2-5.7,7.1-9.8c2.8-0.3,5.7-1.1,8.5-2.5c5.8-2.9,10.7-8,14.7-15.2l0.1-0.1l0-0.1
		c1.2-2.1,2.5-4.5,4-7.4c0.7,0.4,1.4,0.8,2.2,1.1c-0.9,2.3-1.8,5.1-2.9,8.4c-1.3,3.8-2.4,7.8-3.3,11.9c-1,4.2-1.4,7.1-1.4,8.9l0,2.7
		c0,3.5,0.9,6.2,2.8,7.9c1.2,0.9,2.5,1.3,4,1.3c3.8,0,8.6-3.4,14.7-10.5c4.3-5,8.4-10.5,12.3-16.5c0,1.6-0.1,3.4-0.1,5.3
		c0,8.9,1.9,13.2,5.6,13.2c3.9,0,6.7-2.8,8.3-8.3c2.3-7.9,5.2-15.4,8.3-22.1c1.4-3,2.9-5.4,4.3-7.1c0.1-0.2,0.3-0.3,0.3-0.3
		c0.1,0.3,0.4,1.1,0.4,3.3c0,3.9-0.5,9.1-1.7,15.6c-1,5.6-1.5,10.4-1.5,14.5c0,4.2,1,7.3,3,9.2c1.4,1.3,3.1,2,5,2
		c3.1,0,6.5-2.2,10.1-6.6c2.9-3.5,7-9.9,12.4-19.1c0.2,14.4,3.3,21.4,9.5,21.4c5.8,0,12.9-7,21.8-21.2c0,1.5-0.1,3.2-0.1,5.1
		c0,8.9,1.9,13.2,5.6,13.2c3.9,0,6.7-2.8,8.3-8.3c2.4-7.9,5.2-15.4,8.3-22.1c1.4-3,2.9-5.3,4.3-7.1c0.1-0.2,0.3-0.3,0.3-0.3
		c0.1,0.3,0.4,1.1,0.4,3.3c0,3.9-0.5,9.1-1.7,15.6c-1,5.6-1.5,10.4-1.5,14.5c0,4.2,1,7.3,3,9.2c1.4,1.3,3.1,2,5,2
		c3.1,0,6.5-2.2,10.1-6.6c2.3-2.8,5.5-7.6,9.5-14.2c-0.1,1.2-0.1,2.5-0.1,3.7c0.1,5.6,1.7,9.5,4.7,11.4c1,0.6,2.1,0.9,3.3,0.9
		c1.3,0,2.5-0.3,3.8-0.8c2.7-1.3,5-3.6,6.8-6.8c1.8-3.1,3.3-6.5,4.5-10.1c1.2-3.6,2.1-6.7,2.8-9.4c0.3-1.2,0.7-2.4,1.2-3.6
		c0.3-0.7,0.7-1.4,1.1-2c1.8,1.9,3.2,5.4,4.1,10.3c1,5.3,1.6,11.3,1.6,17.9l0,2l-0.6,0.5c-5.5,4.8-10.7,9.8-15.7,14.9
		c-5,5.1-9.2,10.8-12.6,16.9c-3.4,6.1-5.4,13.1-6.1,20.8c-0.1,0.9-0.1,1.7-0.1,2.6c0,6,1.8,10.4,5.2,13.1c2,1.6,4.7,2.4,8.1,2.4h0.1
		c2.2,0,4.3-0.5,6.4-1.4c7.1-3.3,12.8-10.9,17-22.6c3.2-8.9,5.4-18.5,6.6-28.6c0.9-6.8,1.3-13.8,1.3-20.8v-0.3
		c3.8-3.5,7.4-7.2,10.9-11c3.6-4,6.8-8.4,9.5-13c0.1-0.2,0.2-0.4,0.3-0.7c0.8-1.2,1.9-3.1,3.2-5.7c0.9,3.6,1.8,7.1,2.8,10.6
		c1.2,4,2.1,7.3,2.6,9.7c-6.3,3.3-10.6,7.3-12.9,11.8c-1.1,2.2-1.6,4.6-1.6,6.9c0,2.6,0.8,4.7,2.4,6.3c1.7,1.7,3.8,2.5,6.2,2.5
		c4.5,0,8.3-1.6,11.4-4.8c3.4-3.5,5.2-8.2,5.3-14.1c0-2.6-0.3-5.3-0.9-8l0.7-0.3c4.2-1.9,8.3-3.9,12-6.1c3.8-2.3,6.8-5.1,8.8-8.3
		c0.3-0.4,0.4-0.9,0.4-1.4C496.5,417.1,495.7,416.5,495.5,416.4z M188.2,444.3c-1.3,1.2-2.6,1.8-3.9,1.8c-1.2,0-2.1-0.4-2.8-1.3
		c-0.8-1-1.4-2.3-1.7-3.8c-0.3-1.6-0.5-3.2-0.5-4.8c0-1.3,0.1-2.7,0.3-4.1c1.9,1.9,4.2,3.6,6.7,4.9c1.9,1,3.9,1.6,5.9,1.9
		C191,441,189.7,442.8,188.2,444.3z M194.3,434.1c-2.1-0.1-4.1-0.6-5.9-1.6c-3.1-1.6-5.6-3.7-7.4-6.2c1.8-4.9,4.6-9,8.4-12.2
		c0.6-0.5,1-1.3,1-2.2c-0.2-1.6-1.3-2.2-2.2-2.2h0c-1.9,0-3.8,0.4-5.7,1.2c-1.9,0.8-3.6,2.1-5,3.7c0,0.1-0.1,0.1-0.1,0.2
		c0-0.1,0-0.3,0-0.4c0-3.5,1-6.5,2.9-9.1c2-2.6,4.5-3.9,7.6-3.9c2,0,3.7,0.6,5,1.9c1.4,1.4,2.4,3.2,3.1,5.5c0.7,2.4,1.1,4.4,1.1,5.9
		c0,1.6,0.1,2.6,0.1,3C197.2,423.1,196.2,428.7,194.3,434.1z M225.7,403.9c-0.9-1.9-1.3-4-1.3-6.3c0-3.5,0.6-7.5,1.9-11.7
		c1,0.4,1.7,1.1,2.3,2c0.4,0.9,0.7,2,0.7,3.3C229.2,394.4,228,398.7,225.7,403.9z M421.9,480c-2,8.7-4.8,16.2-8.3,22.2
		c-3.6,6.2-7.7,9.3-11.9,9.4c-1.8,0-3.1-0.6-4.1-1.9c-1.3-2-2-4.6-2-7.7c0-0.8,0-1.6,0.1-2.4c0.6-7,2.6-13.5,5.7-19.1
		c3.2-5.7,7.2-11,11.8-15.8c4.1-4.2,8.2-8.2,12.5-11.9C425.2,462,423.9,471.1,421.9,480z M464.7,450c-0.7,1.8-1.6,3.2-2.8,4.3
		c-1.1,1-2.3,1.5-3.7,1.5c-1,0-1.7-0.3-2.3-0.9c-0.6-0.6-0.9-1.5-0.9-2.7l0-0.2c0.3-3,1.6-5.7,3.7-7.8c1.9-1.9,4.4-3.7,7.2-5.3
		c0.2,1.2,0.3,2.4,0.3,3.5C466.1,445.2,465.6,447.7,464.7,450z"/>
	<path fill="#161616" d="M194.1,330.7c-1.1-1.4-3-2.1-5.5-2.1c-2.4,0-5.8,1.6-10.2,4.9c-4.2,3.1-8.9,7.1-14,11.9
		c-2.9,2.8-6,5.8-9.2,8.9c-5.2-0.4-7.8-3.7-7.8-9.9V234.3c0-3.5,0.6-6.2,1.6-8.1c-16.8-0.1-32.6-1.6-47.8-4.5v152.8
		c0,3.3,1.8,4.9,5.5,4.9h24.6c-4.7,5.1-8.9,9.8-12.7,14c-3.3,3.7-5.9,6.6-7.8,8.6c-1.6-3.6-3.4-7.4-5.3-11.4
		c-1.8-3.7-3.9-7.2-5.9-10.7c-3.4-5.9-7-12-9.1-18.7c-0.7-2-1.2-4.1-1.6-6.1c-0.4-2-0.6-3.8-0.7-5.5c0-2.1,0.4-3.9,1.2-5.2
		c0.5-0.8,1.2-1.3,2.1-1.6c0.1,0,0.2,0,0.5,0c0.2,0,0.5,0,0.7,0c0.3,0,0.6,0,0.8,0c0.6,0,1.4-0.1,2-0.6c0.8-0.6,1.1-1.7,1-2.8
		c-0.5-2.8-2.7-4.4-6.1-4.4c-2.8,0-5.7,1.1-7.3,2.1c-1.7,1.1-3.1,2.6-4.1,4.4c-1,1.7-1.7,3.7-2.1,5.8c-0.4,2.1-0.7,4.1-0.6,6
		c0,3,0.4,6,1.2,8.9c0.8,2.9,1.8,5.7,2.9,8.5c1.2,2.7,2.4,5.2,3.8,7.6c1.2,2.2,2.3,4.1,3.3,5.7c-1.9,4-3.9,8.8-6.1,14.2
		c-2.3,5.6-4.8,11.5-7.6,17.6c-2.7,6-5.7,12-8.9,17.8c-3.1,5.8-6.5,11-10,15.6c-3.4,4.5-7.1,8.2-10.8,11c-3.6,2.7-7.5,4.1-11.4,4.1
		c-4.6,0-8.2-1.4-10.7-4.1c-5-5.4-7-14.9-7.6-22c-0.2-2-0.3-4.1-0.3-6.2c0-5.1,0.4-10.4,1.1-15.8c0.8-5.4,2-10.3,3.8-14.6
		c1.7-4.3,3.9-7.9,6.6-10.6c2.6-2.7,5.7-4,9.3-4l0.2,0c4.1,0,7,0.8,8.5,2.3c1.5,1.6,2.3,3.9,2.3,6.9c0,2.7-0.6,5.8-1.7,9
		c-1.2,3.3-2.7,6.6-4.6,10c-1.9,3.3-8.6,8.5-9.5,11.5c-1.5,5,3.3,6.3,6.6,4.8c4-1.7,7.8-10.8,9.7-14.4c1.9-3.7,3.5-7.4,4.6-11
		c1.2-3.7,1.7-7.2,1.7-10.4c0-4.7-1.5-8.5-4.4-11.5c-2.9-2.9-7.7-4.4-14.4-4.4h-0.2c-5.6,0-10.6,1.3-14.9,3.9
		c-4.2,2.5-7.8,5.9-10.6,10c-2.8,4.1-4.9,8.8-6.2,14.1c-1.4,5.2-2,10.8-2,16.6c0.1,14.8,1.6,32.7,13.6,43c4.2,3.6,9.7,5.4,16.4,5.4
		c5.8,0,11.3-1.7,16.2-4.8c4.9-3.1,9.3-7.2,13.3-12.2c4-4.9,7.6-10.6,10.9-16.8c3.2-6.2,6.2-12.4,8.9-18.5c2.7-6.1,5.2-12,7.4-17.4
		c1.8-4.4,3.5-8.3,5-11.5l9.9,21c-1.2,1.8-2.5,3.9-3.9,6.4c-1.5,2.7-2.9,5.7-4.3,8.8c-1.3,3.1-2.4,6.3-3.4,9.6
		c-0.9,3.3-1.4,6.5-1.4,9.5c0,3.1,0.8,5.8,2.4,7.9c1.6,2.2,4.6,3.4,8.8,3.4c3.9,0,7.2-0.8,9.7-2.2c2.6-1.4,4.7-3.4,6.3-5.8
		c1.5-2.4,2.6-5.1,3.3-8.2c0.7-3,1-6.2,1-9.3c0-4.5-0.7-8.9-2.1-13.1c-1.2-3.9-2.6-7.4-4-10.5c3.8-4.5,8-9.3,12.3-14
		c4.5-4.9,9.2-9.9,14-14.8l14.3-14.6c2.1-2.2,4.3-4.4,6.3-6.5c-0.2,0.3-0.3,0.6-0.5,0.9c-2.4,4.8-5.1,10.6-7.9,17.3
		c-2.8,6.7-5.6,14.3-8.5,22.3c-2.8,8.1-5.4,16.4-7.7,24.8c-2.3,8.3-4.2,16.7-5.6,24.8c-1.4,8.1-2.1,15.6-2.1,22.2c0,4.7,0.4,9,1,13
		c0.7,4,1.8,7.5,3.3,10.4c1.6,3,3.7,5.3,6.2,7c2.5,1.6,5.7,2.5,9.3,2.5h0.1c1.5,0,3.1-0.2,4.8-0.7c2.1-0.5,3.2-2.1,3.2-4.3
		c0-0.9-0.2-1.7-0.6-2.5c-0.6-1-1.9-1.4-4.6-1.4c-1.5,0-2.8-0.5-3.8-1.5c-1.1-1.1-2.1-2.6-2.9-4.5c-0.8-2-1.4-4.3-1.8-7
		c-0.4-2.7-0.6-5.7-0.6-8.8c0-7.3,0.8-15.4,2.4-24.1c1.6-8.8,3.9-17.8,6.6-26.8c2.8-9.1,6-18.1,9.6-26.8c3.6-8.8,7.3-17,11.1-24.5
		c3.8-7.5,7.6-14.1,11.5-19.7c3.8-5.5,7.3-9.7,10.5-12.3c1.1-0.8,1.6-2.1,1.6-3.8C195.7,333.5,195.2,332,194.1,330.7z M106,447.6
		c-1.2,2.4-3.1,3.5-5.9,3.5c-3.2,0-4.5-1.4-4.6-4.7c0-2.3,0.3-4.9,1.1-7.6c0.7-2.7,1.7-5.5,2.8-8.2c1.1-2.7,2.3-5.2,3.5-7.4
		c0.8-1.4,1.5-2.7,2.2-3.8c0.8,2,1.4,4.2,1.9,6.5c0.6,3,0.9,6.3,0.9,9.9C107.9,441.1,107.3,445.1,106,447.6z"/>
	<path fill="#161616" d="M355.4,281.1c1.3-1.4,2.5-2.9,3.5-4.7c1-1.8,0.4-4.1-1.4-5.1c-1.8-1-4.1-0.4-5.1,1.4
		c-1,1.7-1.6,3.4-2.2,5.1c-0.2-0.1-0.4-0.1-0.6-0.2l1.1-12.2c-0.2-2.2-0.5-4.3-0.7-6.5c-0.5-4.7-1-9.4-1.5-14.1
		c-0.4-3.5-0.8-7.1-1.2-10.7c-0.1-1-0.2-2-0.6-2.9c-1.6-3.5-3,0.7-3.5,2.6c-0.7,3-0.8,6.1-1.1,9.2c-0.8,7.6-1.6,15.3-2.4,22.9
		l1.4,11.6c-5.4,1.8-9.3,7-9.3,13c0,1,0.1,2,0.3,2.9c0.3,2.8,1.5,5.5,3.5,7.7l-3.5,4.7c-0.5,1.4-1.1,2.7-1.6,4.1c-1.2,3-2.3,6-3.5,9
		c-0.9,2.3-1.7,4.5-2.6,6.8c-0.2,0.5-0.3,0.9-0.4,1.4c-0.4-0.1-0.7-0.1-1.1-0.1c-8.3,0-8.3,12.8,0,12.8c6.6,0,7.9-8.2,4-11.4
		c0.3-0.2,0.6-0.4,0.8-0.6c1.6-1.4,2.7-3.2,4-4.9c3.2-4.1,6.4-8.2,9.7-12.3l0.3-0.9c0,0.2,0,0.3,0,0.4c0,2,1.7,3.6,3.9,3.6
		c2.1,0,3.9-1.6,3.9-3.6c0-1.7-0.2-3.3-0.5-4.9c3.6-0.8,6.8-3.1,8.8-6.5c1.7-3,2.2-6.3,1.5-9.5C358.9,286.1,357.5,283.2,355.4,281.1
		z M345.5,296.1c-2.6,0-4.7-1.7-5.4-4.1c0-1,0.2-2,0.7-2.9c1.5-2.7,5-3.6,7.6-2.1c1.3,0.8,2.2,2,2.6,3.3c0,0.1,0,0.1,0,0.2
		C351.1,293.6,348.6,296.1,345.5,296.1z"/>
	<path fill="#161616" d="M436.4,290.5c0-19.1-5.9-36.9-16-51.5c2.8,2.1,5.7,4.2,8.5,6.3c0.4,0.3,0.8,0.6,1.2,0.9
		c8.2-9.3,14.8-18.1,15-29.9c0.1-8.3-2.3-16.7-6.6-23.8c-8.3-13.8-24.4-20.6-40.5-17.8c-6.5,1.1-12.7,3.9-18,7.9
		c-2.8,2.1-5.3,4.5-7.5,7.2c-1.2,1.4-5.4,4.9-4.8,6.7c0.3,1,1.2,1.8,2,2.5c3,2.5,5.9,5,8.9,7.5c-11-4-21.2-6.9-33.1-6.9
		c-15.7,0-30.5,4.2-43.4,13.3c4.2-3.5,8.3-7,12.5-10.5c2.1-1.7,4.2-3.5,6.3-5.2c1.2-1.1,3.4-2.1,3.1-4c-0.2-1.2-1-2.1-1.8-3
		c-5.7-6.4-10.9-12.8-19.3-15.7c-8.1-2.9-17-3.2-25.4-1.4c-16.2,3.6-28.2,17-30.7,33.6c-2.1,13.4,2.5,29,14.6,39.6
		c2.9-2.1,5.7-4.2,8.5-6.4c-4.6,6.8-8.2,14.2-10.8,22.2c-3.8-13.5-10.8-25.8-20.9-36.9c-2.4-2.6-5-4.9-7.6-7.1
		c-15.6,2.7-31.3,5-47.1,6.5c12,2.5,21.7,7.7,29,15.6c12.3,13.3,18.4,29.4,18.4,48.3c0,19-6.3,35-18.8,48
		c-7,7.2-14.8,12.2-23.3,15.1c-1.1,0.4-3.1,5.2-3.8,6.3c-1.3,2.2-2.7,4.4-3.9,6.6c-2,3.5-4,6.9-5.7,10.6c-0.9,1.9-2.3,3.9,0.1,4.5
		c2.8,0.7,5.8,0.3,8.6-0.2c2.5-0.4,4.8-0.5,7.3-1.1c5.2-1.2,10.3-2.8,15.2-4.9c10.3-4.5,19.7-10.9,27.9-18.6
		c1.1-1.1,2.3-2.1,3.4-3.3c9.7-10.3,16.6-21.8,20.6-34.5c5.3,17.5,15.8,32.8,29.6,44.1c-2.6,2.1-5.1,4.4-6.8,7.2
		c-2.4,3.9-3.2,9.1-0.8,13c2.4,3.8,7.5,5.4,11.7,4c2.8-1,5.1-3.1,7.1-5.4c1.9-2.3,3.5-4.8,4.7-7.4c0.1-0.3,0.3-0.6,0.4-0.8
		c12.4,6.3,26.3,9.8,41.1,9.8c14.1,0,27.4-3.2,39.4-8.9c1.3,2.6,2.8,5.1,4.7,7.4c1.9,2.3,4.2,4.4,7.1,5.4c4.2,1.4,9.4-0.2,11.7-4
		c2.4-3.9,1.6-9.1-0.8-13c-1.5-2.5-3.6-4.5-5.8-6.4C422.9,345.3,436.4,319.5,436.4,290.5z M427.5,233.6c0.7-1.3,1.6-2.6,2.3-3.9
		c1.1-2.3,1.9-4.8,2.4-7.3c0.4-2,0.6-4.5,2.2-6c0.8-0.7,2.2-0.9,2.9,0c2.2,2.5,1.1,6.1,0,8.8c-1.3,3.1-2.8,5.8-5.5,7.9
		c-1,0.8-2.3,1.8-3.5,2.2C426.9,235.8,427,234.4,427.5,233.6z M384.7,186.7c0.7-1.1,1.9-2.1,3-2.8c4.2-2.8,9.1-4.4,14.2-4.7
		c1.9-0.1,6.8-0.4,9.7,0.9c1.2,0.5,2,1.3,2.1,2.4c0.5,3.3-4.3,2.8-6.2,2.7c-3.4-0.2-6.9,0.1-10.3,0.7c-2.2,0.4-4.3,1-6.4,1.7
		c-1.8,0.6-3.7,1.9-5.7,2.1C383.2,189.9,383.9,187.9,384.7,186.7z M359.4,212.3c2.7-0.7,6-0.3,8.7,0.2c2.6,0.5,5.2,1.2,7.8,1.9
		c2.8,0.8,5.9,2,8.4,3.3c2.5,1.3,4.8,2.8,7.1,4.4c6.7,4.7,11.9,10.3,16,17.1c0.8,1.3,1.2,2.7,1.6,4.2c0.2,0.5,0.6,1.7,0.7,2.7
		c0.2,1.2,0,2.1-1.5,1.5c-1.2-0.5-2-2.2-2.6-3.2c-1.4-2.4-2.9-4.6-4.6-6.7c-3.6-4.6-8-8.8-12.8-12c-6.7-4.5-14.3-7.6-22-9.5
		c-2.2-0.6-4.5-0.9-6.7-1.6C357.8,214,357.4,212.8,359.4,212.3z M281.1,179.6c2.1-1.6,6-1.6,8.5-1.6c5.5,0,10.8,2,15.2,5.2
		c2.3,1.7,4.3,3.7,5.9,5.9c0.5,0.6,1.3,1.7,1.8,2.7c0.5,1,0.7,2.1,0,2.8c-1.3,1.5-3.4-0.5-4.3-1.5c-5.1-5.7-13-8.9-20.6-8.3
		c-1.2,0.1-2.4,0.3-3.7,0.2c-1.2-0.1-2.5-0.6-3.2-1.5C279.7,182.3,279.9,180.5,281.1,179.6z M317.9,367.8c-5.9,2-15-4.3-19.5-7.7
		c-4.2-3.2-11.1-7.9-12-13.4c0-0.2,0.1-0.5,0.4-0.4c2.7,1,4,3.1,6.2,5c2.8,2.4,5.9,4.6,9.2,6.3c3.9,2.1,8,3.7,12.2,5.2
		c2.5,0.9,3,1,4.3,3.3C319,366.8,318.6,367.5,317.9,367.8z M350.6,357.1c0.1-5-0.6-10-3.1-13.7c-0.7-1.1-2.1-1.1-2.8,0
		c-2.6,3.9-3.1,8.7-2.9,13.7c-33.4-2.2-60.1-28.9-62.2-62.3c6.6,0.4,13.6,0.1,18.5-3.2c1.1-0.7,1.1-2.1,0-2.8
		c-5-3.3-11.9-3.2-18.5-2.5c2.2-34.9,31.2-62.5,66.6-62.5c35.2,0,64,27.2,66.6,61.8c-6.5-0.4-13.4-0.1-18.4,3.2
		c-1.1,0.7-1.1,2.1,0,2.8c5,3.3,11.9,3.1,18.5,2.4C411.1,327.8,384.3,354.9,350.6,357.1z"/>
	<path fill="#161616" d="M388.6,310.5c-8.3,0-8.3,12.8,0,12.8C396.9,323.3,396.9,310.5,388.6,310.5z"/>
	<path fill="#161616" d="M370.2,327c-8.3,0-8.3,12.8,0,12.8C378.4,339.8,378.4,327,370.2,327z"/>
	<path fill="#161616" d="M300.2,307.3c-8.3,0-8.3,12.8,0,12.8C308.4,320.1,308.4,307.3,300.2,307.3z"/>
	<path fill="#161616" d="M302.5,260.9c-8.3,0-8.3,12.8,0,12.8C310.8,273.6,310.8,260.9,302.5,260.9z"/>
	<path fill="#161616" d="M322.9,251.9c8.3,0,8.3-12.8,0-12.8C314.7,239.1,314.7,251.9,322.9,251.9z"/>
	<path fill="#161616" d="M368.1,236.9c-8.3,0-8.3,12.8,0,12.8C376.3,249.7,376.3,236.9,368.1,236.9z"/>
	<path fill="#161616" d="M388.6,270.2c8.3,0,8.3-12.8,0-12.8C380.4,257.4,380.4,270.2,388.6,270.2z"/>
	<path fill="#161616" d="M93.1,163.7c0,8.7-7.3,15.3-13.1,20.8c-3.3,3.2-6.7,6.3-9.4,9.9c-2.6,3.5-4.9,7.8-1.9,11.9
		c2.8,3.8,11,4.8,15.3,6c12.6,3.6,25.6,6,38.6,7.3c6.6,0.7,13.2,1.1,19.9,1.3c3.3,0.1,6.8,0.4,10,0.1c0.9-0.1,1.6-0.5,2.6-0.6
		c1.2,0,2.3,0.8,3.6,0.2c1.3-0.6,1.6-2.2,1.7-3.6c0.3-2.7-0.8-7.8,1.7-9.6c2.1,2.7,1.8,7,3.2,10.2c2.2,4.9,9.8,2.5,14.1,2.2
		c6.7-0.6,13.4-1.3,20-2.1c13.9-1.8,27.6-4.1,41.4-6.6c0.1-1.6,0.2-3.1,0.5-4.7c0.4-2.9,1.1-5.7,2.1-8.4c0.6-1.8,2.5-4.6,1.7-6.6
		c-0.8-2.1-3.9-2-5.8-2.6c-2.3-0.8-4.5-2-6.5-3.5c-2.8-2.1-5.2-4.8-6.9-8.2c-1.7-3.3-2.7-6.9-2.9-10.8c-0.2-3.9,0.3-7.7,1.6-11.6
		c1.3-3.9,3.4-7.5,5.9-10.6c2.6-3.2,5.7-6.1,9.2-8.3c3.4-2.1,7.1-3.7,11.1-4.5c4-0.9,7.8-0.9,11.4-0.3c3.6,0.7,6.9,2.1,9.9,4.3
		c2.9,2.2,5.3,4.9,6.9,8c1.6,3.1,2.5,6.8,2.8,10.7c0.2,2.8-0.1,5.6-0.6,8.4c-0.3,1.5-0.6,3.2,0.8,4.2c1.4,1,4.3,0.2,6,0.2
		c1.4,0,2.7,0.1,4,0.2c-0.4-7.4-0.8-14.7-1.2-22.1c-0.2-3.7-0.4-7.4-0.6-11.1c-0.1-2.6-1.3-7,0.6-9.3c1.2-1.5,4.3-1.4,6.2-1.8
		c3.5-0.7,6.8-1.8,9.4,1c2.2,2.5,4.5,5,6.7,7.5c4.5,5,9,10.1,13.5,15.2c1.6,1.8,4,3.7,4.2-0.2c0.2-3.3-0.4-6.9-0.6-10.2
		c-0.2-3.2-0.4-6.5-0.5-9.7c-0.2-2.9-1.4-8,2-9.5c2.9-1.3,8.7-2.7,11.2,0c1.3,1.4,1,3.9,1.1,5.7c0.2,3.3,0.3,6.6,0.5,9.9
		c0.4,6.4,0.8,12.9,1.1,19.3c0.2,4.1,0.5,8.2,0.7,12.3c0.2,4.4-0.5,7-5.3,7.6c-3.5,0.4-7,2.4-9.7-0.5c-3.4-3.6-6.7-7.1-9.9-10.8
		c-3.6-4.1-7.4-8.2-11-12.4c-0.8-0.9-2.6-4.1-4-3.9c-1.6,0.3-0.7,4.1-0.6,5.3c0.5,8.6,0.8,13.8,1.2,21c8,3.4,13.2,9.3,18.3,15
		l1.3,1.5c1,1.1,2.7,3,3.2,5.9c0.1,0.9,0.1,1.7,0,2.5c11.3-1.5,22.7-2.6,34-3.2c1.1-1.7,2.5-3.1,3.7-4.4c0.4-0.4,0.7-0.7,0.9-1
		c2.5-3,5.3-5.8,8.5-8.2c2-1.5,4-2.8,6.2-3.9c1.9-1,4.3-1.6,6.1-2.6c3.3-1.9,1.4-8.3,1.2-11.4c-0.2-3.9-0.4-7.8-0.6-11.7
		c-0.3-6.4-0.4-12.9-0.8-19.3c-0.2-3.8-2.4-4.8-6.1-4.8c-2,0-6.1,1.7-7-0.8c-0.5-1.4,0-3.9-0.1-5.5c-0.1-2.7-1.4-6.5,2.2-7.1
		c4.1-0.7,8.8-0.2,12.9,0c4.8,0.2,9.6,0.8,14.3,1.7c3.3,0.6,7.9,0.3,10.1,3.4c1.3,1.8,0.8,5.8,0.9,7.9c0.2,4.1-2.4,3.5-5.7,2.9
		c-2.3-0.4-4.9-1.6-5.9,1.1c-1,2.8-0.2,6.1,0,9c0.2,3.4,0.3,6.8,0.5,10.2c0.2,3,0.3,6,0.4,9c0.2,3.4-1.1,10.2,2.9,12
		c1.9,0.9,4.6,0.7,6.7,1.2c2.4,0.5,4.8,1.2,7,2.1c8.9,3.5,16.5,9.9,21.5,18.1c2.1,3.5,3.7,7.1,4.9,10.8c0.2,0.7,7.3,2.3,8.2,2.6
		c15.8,4.3-1.2-18.7-4.4-23c-6.4-8.6-15.6-18.6-15.6-30c0-11,12.1-20.3,18.7-27.8c3.1-3.5,8.8-9.1,8.3-14.1
		c-0.1-0.9-0.3-1.7-0.7-2.4c-1.9-3.5-7.1-3.8-10.7-4.8c-6.1-1.6-12.3-3-18.5-4.1c-3.6-0.7-9.2-3.2-12.4-0.6
		c-1.7,1.3-2.1,7.6-5.1,5.8c-1.3-0.8-1-3.4-1.5-4.7c-2.3-5.8-12.8-4-17.8-4.2c-44-1.3-87.5,7.7-130.5,16c-14,2.7-28.1,4.8-42.1,7.9
		c-0.5,0.1-1.1,0.3-1.5,0.7c-1,1,0.3,4.7,0.5,5.9c0.1,0.9,0.1,2-0.7,2.3c-0.5,0.2-1,0.1-1.4-0.3c-0.4-0.3-0.7-0.8-0.9-1.2
		c-0.8-1.6-1.6-3.3-2.8-4.6c-0.6-0.6-1.3-1.1-2.1-1.4c-2.4-0.8-6,0.4-8.5,0.7c-3.4,0.4-6.7,0.8-10.1,1.2c-6.8,0.7-13.5,1.3-20.3,1.7
		c-13.4,0.8-26.9,0.7-40.3-0.4c-11-0.9-22-2.5-32.7-5c-5.5-1.3-11-2.7-16.4-4.4c-2.9-0.9-5.7-1.8-8.5-2.8c-1.9-0.7-5.6-3-7.6-2.8
		c-10.3,1.1,7,24.4,9.3,28C85.4,143.5,93.1,153.4,93.1,163.7z M356.3,130.6c0.2-3.9-0.3-7.9,0.9-11.7c0.8-2.4,4.8-6,7.5-5.2
		c4.2,1.3,1.4,9.6,0.9,12.5c-0.4,2.1-0.8,5.3-2.1,7.5c-1,1.7-2.7,2.7-5.4,1.9C355.7,134.8,356.2,132.6,356.3,130.6z M166,145.7
		c1.9-2.6,7.1-1.7,10.1-1.8c8.7-0.5,14.9-0.7,18.3-0.3c3.6,0.4,6.8,1.4,9.6,2.9c3.6,1.9,6.5,4.7,8.5,8.2c2,3.6,3.2,7.8,3.4,12.7
		c0.3,4.9-0.4,9.4-2,13.5c-1.6,4.1-4.1,7.6-7.4,10.6c-2.6,2.3-5.7,4-8.9,5.1c-3.2,1.1-8.6,2.2-15.9,2.7c-1,0.1-1.5,0.1-2.5,0.1
		c-3.7,0.2-10.4,1.8-11.9-3.1c-0.3-1.1-0.1-2.7-0.2-3.8c-0.2-2.8-0.3-5.7-0.4-8.5c-0.2-4.2-0.4-8.4-0.6-12.5
		c-0.3-4.8-0.5-9.5-0.8-14.3C165,153.5,163.7,149,166,145.7z M116.8,139.1c2,0.4,3.9,0.8,5.9,1.2c4.3,0.9,5.3,3.4,5.5,7.4
		c0.3,5.5,0.6,10.9,0.9,16.4c0.3,5.5,0.6,11.1,0.9,16.6c0.2,2.8,0.3,5.7,0.5,8.5c0.1,1.7,0.7,4-0.5,5.5c-1.8,2.3-5.5,1.5-7.9,0.9
		c-1.5-0.4-3-0.8-4.4-1.4c-0.7-0.3-1.2-0.7-1.6-1.3c-2.4-3.2-1.2-10.1-1.4-13.4c-0.3-4.8-0.5-9.6-0.8-14.3
		c-0.3-4.8-0.5-9.6-0.8-14.3c-0.1-2.3-0.3-4.6-0.4-7C112.4,140.6,113.2,138.5,116.8,139.1z"/>
	<path fill="#161616" d="M49.3,168.9c4.8,2.2,9.8,4.5,15.1,5.3c0.6-1.1,1.2-1.9,1.9-2.9c2.4-4.5,4.3-9.2,5.6-14.1
		c0.8-3.1,1.5-6.5,0.7-9.6c-0.6-2.6-2.4-4.6-4.6-5.9c-4.3-2.4-10.2-1.7-12.1,4c-0.4,1.1-0.4,2.4-0.5,3.6c-1.9-2.2-3.8-3.7-6.8-3.9
		c-2.6-0.1-5.2,1-7,2.8c-2.7,2.8-3.3,7.1-2.1,10.8C40.8,163.8,44.9,166.8,49.3,168.9z"/>
	<path fill="#161616" d="M453.2,142.7c-2,4.6-0.9,9.6,1.1,14c2.2,4.8,4.5,9.8,8,13.8c1.1-0.4,2.2-0.7,3.3-1
		c4.7-1.9,9.2-4.2,13.4-7.1c2.7-1.8,5.3-4,6.8-6.9c1.2-2.4,1.2-5.1,0.3-7.4c-1.7-4.6-6.7-7.9-11.8-4.8c-1,0.6-1.9,1.6-2.7,2.4
		c0-2.9-0.4-5.3-2.7-7.4c-1.9-1.8-4.6-2.6-7.1-2.4C458,136.3,454.7,139.2,453.2,142.7z"/>
	<polygon fill="#161616" points="31.7,362.9 42.9,353.2 57.3,357 51.5,343.3 59.5,330.8 44.7,332 35.3,320.5 32,335 18.1,340.4
		30.8,348.1 	"/>
	<polygon fill="#161616" points="296.2,468 280.2,471.8 268,460.8 266.7,477.2 252.4,485.4 267.6,491.7 271,507.8 281.7,495.3
		298.1,497.1 289.5,483 	"/>
	<polygon fill="#161616" points="466.3,469.6 457.3,481.6 442.4,481 451,493.2 445.8,507.3 460.1,502.8 471.8,512.1 472,497.1
		484.5,488.8 470.3,484 	"/>
	<path fill="#161616" d="M451.8,253c1.9-1.7,3.9-3.5,6.2-4.5c6.4-2.8,14,5.3,19.5-0.5c2.7-2.9,3.7-6.8,4.9-10.5
		c0.4-1.2,1.4-2.4,0.4-3.6c-1.1-1.2-3.2-0.3-4.2,0.5c0,0,0,0,0,0c-2.4,2-4.3,4.9-7.3,5.7c-5.1,1.2-10.3-2.3-15.4-1.6
		c-5.2,0.7-7.1,7.9-8.7,12.4c-0.5,1.4-2.3,4-1.9,5.5C446.2,259.7,450.5,254.2,451.8,253z"/>
	<path fill="#161616" d="M478.5,295.2c-1.4-0.4-2.5-1.4-3.7-2.3c-3.9-3.1-7.7-6.3-11.6-9.4c-1.2-1-13.2,13.2-14,14.9
		c4.5-0.8,8.4-3.1,13.1-1.7c2.2,0.7,4.2,2,6.1,3.4c2.8,2,5.9,5.1,9,6.6c2.9,1.4,5.2-1.1,7.5-3.1c1.7-1.4,3.1-2.7,4-3.4
		c1.7-1.3,3.6-2.6,5.7-2.8c3.1-0.4,6.8,1.5,10,1.9c-0.7-1.9-2.6-2.8-3.9-4.2c-2.1-2.2-4.3-4.4-6.4-6.6c-0.5-0.5-6.7,3.8-7.5,4.4
		C484.4,294.5,481.5,296.2,478.5,295.2z"/>
	<path fill="#161616" d="M448.4,347.1c1.7,0.3,1.7,6.8,1.8,8.2c0.3,3.1,1.1,6.7,4.4,7.4c2.4,0.5,4.9,0.1,7.3-0.3
		c1.3-0.2,7-0.4,7.8-1.4c0.5-0.6,0.6-1.1,0.5-1.5c-0.6-2.5-8-3.6-9.1-4.6c-1.3-1.2-2-5.2-2.6-6.9c-1-2.6-1.9-5.2-2.9-7.9
		c-0.4-1.1-1-2.4-2.1-2.8c-0.8-0.3-1.7-0.1-2.5,0.1c-3,0.7-17.2,2.6-17.2,6.8C434.5,345.9,446.5,346.8,448.4,347.1z"/>
	<path fill="#161616" d="M304.9,86.1c-2,1.9-4,3.9-4.9,6.2c-0.4,1.1-0.4,1.7-0.3,2c0.1,0.2,0.7,0.4,1.8,0.4c0.5,0,1.1,0,1.7-0.1
		c0.8-0.1,1.5-0.3,2.1-0.5c2.4-0.9,3.7-2.5,5.5-4.8c0.5-0.7,1.1-1.4,1.7-2.2l12.2-14.5c0.5-0.6,0.8-1.4,0.7-2.2
		c-0.1-0.8-0.5-1.5-1.1-2.1c-0.5-0.5-1.2-0.7-2-0.7c-0.9,0-1.8,0.4-2.3,1.1l-12.1,14.4C307,84.1,306,85.1,304.9,86.1z"/>
	<path fill="#161616" d="M291,76.7c0.3,0.1,0.7,0.2,1,0.2c1.3,0,2.4-0.8,2.9-2C300.3,59.9,305.7,45,311,30c0.3-0.8,0.2-1.6-0.1-2.3
		c-0.3-0.7-1-1.3-1.7-1.6c-0.3-0.1-0.7-0.2-1-0.2c-1.3,0-2.4,0.8-2.9,2c-5.4,14.9-10.7,29.9-16.1,44.8c-0.3,0.8-0.2,1.6,0.1,2.3
		C289.6,75.9,290.2,76.4,291,76.7z"/>
	<path fill="#161616" d="M333,60.9c0.9,0,1.8-0.4,2.3-1.1c6.9-8.2,13.7-16.4,20.5-24.5c1.1-1.3,0.9-3.2-0.4-4.3
		c-0.5-0.5-1.2-0.7-2-0.7c-0.9,0-1.8,0.4-2.3,1.1c-6.8,8.2-13.7,16.4-20.5,24.5c-0.5,0.6-0.8,1.4-0.7,2.2c0.1,0.8,0.5,1.5,1.1,2.1
		C331.6,60.6,332.3,60.9,333,60.9z"/>
	<path fill="#161616" d="M283.7,99.5C283.7,99.5,283.7,99.5,283.7,99.5c0.4,0,0.9-0.1,1.3-0.3c0.3-0.1,0.6-0.3,0.9-0.6
		c1.1-1,1.6-2.9,2.2-4.7c0.2-0.7,0.4-1.5,0.7-2.2c0.6-1.6-0.3-3.3-1.8-3.9c-0.3-0.1-0.7-0.2-1-0.2c-1.3,0-2.4,0.8-2.9,2
		c-0.2,0.5-0.4,1-0.6,1.6c-0.9,2.1-1.8,4.5-1.1,6.2C281.9,98.9,282.7,99.5,283.7,99.5z"/>
	<path fill="#161616" d="M334.3,86.3c-0.8,0.6-4.7,2.8-3,4c1.6,1.2,7.5-0.4,8.9-0.9c3.3-1.2,6.4-2.9,9.7-4.8c8.3-4.7,15.7-9,22.9-13
		c1.5-0.8,2-2.7,1.2-4.1c-0.5-1-1.6-1.6-2.7-1.6c-0.5,0-1,0.1-1.5,0.4c-8.1,4.5-16.8,9.4-26.5,15C340.3,83,337.1,84.3,334.3,86.3z"
		/>
	<path fill="#161616" d="M241.5,95.9c-0.6-0.7-1.4-1.1-2.3-1.1c-0.7,0-1.4,0.3-2,0.7c-1.3,1.1-1.4,3-0.4,4.3c0.5,0.6,1,1.2,1.5,1.9
		c1.2,1.7,2.6,3.5,4.2,4.3c0.6,0.3,1.3,0.4,2.1,0.4c0.5,0,3-0.1,3.2-2.1c0.2-1.9-2.6-4.7-4.5-6.5C242.6,97.1,242,96.5,241.5,95.9z"
		/>
	<path fill="#161616" d="M176.2,76.7c4.5,2.8,6.8,4.3,9,5.9c2.1,1.5,4.3,3,8.6,5.6c2.1,1.3,4.1,2.6,6.2,4c2.9,1.9,5.8,3.8,8.8,5.6
		c2.4,1.4,5.6,2.2,8.4,2.4c0.5,0,0.9,0,1.2-0.1c1.9-0.5,0.1-3.2-1.6-4.3c-7.6-5.2-15.4-10-23-15.1c-4.1-2.7-8-5.3-14.4-9.2
		c-0.5-0.3-1-0.4-1.5-0.4c-1.1,0-2.1,0.5-2.7,1.5c-0.4,0.7-0.6,1.5-0.4,2.3C175.1,75.6,175.5,76.3,176.2,76.7z"/>
	<path fill="#161616" d="M225.7,86.6c0.6,0.7,1.4,1.1,2.3,1.1c0.7,0,1.4-0.2,1.9-0.7c1.3-1.1,1.5-3,0.4-4.3
		c-16-19.2-28.9-35.5-40.6-51.2c-0.6-0.8-1.5-1.2-2.4-1.2c-0.7,0-1.3,0.2-1.8,0.6c-1.4,1-1.6,2.9-0.6,4.3
		C196.7,50.9,209.6,67.3,225.7,86.6z"/>
	<path fill="#161616" d="M175.5,107.1l5.8,1.5l0.4,0.1c4,0.7,8.1,1.1,12.2,1.5c1.5,0.2,3.7,0.8,5.2,0.6c1.3-0.2,1.9-0.7,2-1.4
		c0.2-0.8-0.6-1.8-1.9-2.3c-2.8-1-5.8-1.6-8.7-2.3c-4.5-1.2-9-2.4-13.5-3.6c-0.2-0.1-0.5-0.1-0.8-0.1c-1.4,0-2.6,0.9-2.9,2.3
		C172.9,105.1,173.8,106.7,175.5,107.1z"/>
	<path fill="#161616" d="M252.1,92.5c0.3,0.8,0.5,1.7,0.8,2.7c0.8,2.9,1.8,6.4,4,7.4c0.5,0.2,0.8,0.3,1,0.3c0.9,0,1.5-1.8,1.5-4.8
		c0.1-3.7-1.1-6.6-2.4-9.9c-0.4-0.9-0.7-1.9-1.1-2.8c-1.6-4.3-3.1-8.5-4.7-12.8c-0.4-1.2-1.6-2-2.9-2c-0.4,0-0.7,0.1-1.1,0.2
		c-0.8,0.3-1.4,0.8-1.7,1.6c-0.3,0.7-0.4,1.6-0.1,2.3C247.6,80.5,249.8,86.5,252.1,92.5z"/>
	<path fill="#161616" d="M239.3,57.7c0.4,1.2,1.6,2,2.9,2c0.4,0,0.7-0.1,1-0.2c1.6-0.6,2.4-2.3,1.8-3.9c-2.4-6.8-4.9-13.6-7.2-20.4
		c-0.4-1.2-1.6-2-2.9-2c-0.3,0-0.7,0.1-1,0.2c-1.6,0.6-2.4,2.3-1.9,3.9C234.4,44,236.9,50.9,239.3,57.7z"/>
	<path fill="#161616" d="M267.9,86.1c0,1-0.1,2.1-0.1,3.2c-0.2,3.2-0.5,6.6,1.1,8.8c0.5,0.7,1.1,1.2,1.6,1.3c0.1,0,0.3,0.1,0.4,0.1
		c1.1,0,2.2-1.2,2.7-3c0.9-2.9,0.7-6.7,0.5-10.3c-0.1-1.5-0.2-2.9-0.2-4.3c0-5.3,0-10.7-0.1-16c-0.1-21.6-0.2-42.8-0.4-63
		c0-1.7-1.4-3-3.1-3c-0.8,0-1.6,0.3-2.1,0.9c-0.6,0.6-0.9,1.3-0.9,2.2c0.2,18.5,0.3,37,0.4,55.6C267.8,67.8,267.9,77,267.9,86.1z"/>
</g>
</svg>
