<svg id="svg" version="1.1" width="420" height="400" xmlns="http://www.w3.org/2000/svg" xmlns:xlink="http://www.w3.org/1999/xlink" ><g id="svgg"><path id="path0" d="M57.000 78.725 C 57.000 116.605,57.009 116.687,61.855 122.050 C 67.112 127.869,70.412 128.660,90.375 128.885 L 107.000 129.072 107.000 124.812 L 107.000 120.551 90.875 120.401 C 72.755 120.231,72.247 120.134,69.309 116.283 C 66.401 112.470,66.500 113.797,66.500 78.766 L 66.500 46.500 61.750 46.500 L 57.000 46.500 57.000 78.725 M109.500 87.750 L 109.500 129.000 114.250 129.000 L 119.000 129.000 119.000 87.750 L 119.000 46.500 114.250 46.500 L 109.500 46.500 109.500 87.750 M146.500 46.845 C 139.840 47.960,133.930 51.631,131.145 56.384 C 128.580 60.760,128.516 61.738,128.508 96.625 L 128.500 129.000 133.250 129.000 L 138.000 129.000 138.000 110.250 L 138.000 91.500 153.000 91.500 L 168.000 91.500 168.000 87.250 L 168.000 83.000 153.000 83.000 L 138.000 83.000 138.005 73.625 C 138.014 55.910,139.402 54.849,162.875 54.594 L 178.500 54.425 178.500 50.462 L 178.500 46.500 163.125 46.568 C 154.669 46.606,147.188 46.730,146.500 46.845 M195.750 47.011 C 187.062 48.755,181.132 53.905,179.242 61.348 C 177.834 66.896,178.363 112.795,179.879 116.540 C 183.932 126.555,189.372 128.656,211.875 128.895 L 228.500 129.072 228.500 125.074 L 228.500 121.075 212.875 120.906 C 189.268 120.650,188.014 119.665,188.005 101.375 L 188.000 91.500 203.000 91.500 L 218.000 91.500 218.000 87.250 L 218.000 83.000 203.000 83.000 L 188.000 83.000 188.011 73.625 C 188.023 63.256,188.317 61.952,191.441 58.394 C 194.457 54.958,195.366 54.797,212.875 54.600 L 228.500 54.425 228.500 50.462 L 228.500 46.500 213.125 46.555 C 204.669 46.585,196.850 46.790,195.750 47.011 M265.367 48.519 C 258.299 50.278,254.876 56.081,258.250 60.585 C 266.093 71.052,291.168 63.051,284.547 52.193 C 282.457 48.766,272.240 46.809,265.367 48.519 M258.286 73.286 C 257.854 73.718,257.503 74.562,257.506 75.161 C 257.509 75.760,256.925 85.672,256.209 97.188 C 254.589 123.215,254.625 123.480,260.218 126.757 C 269.386 132.130,273.889 131.070,283.679 121.231 C 291.238 113.636,292.569 110.847,290.175 107.628 C 288.568 105.468,287.353 105.614,284.808 108.270 C 283.578 109.553,282.331 110.455,282.036 110.272 C 281.201 109.756,281.394 102.552,282.521 92.163 C 283.688 81.401,283.595 80.271,281.370 78.120 C 277.103 73.995,260.958 70.614,258.286 73.286 M314.065 73.270 C 303.736 75.512,297.188 82.232,296.614 91.180 C 295.924 101.927,301.380 107.938,315.675 112.178 C 321.740 113.977,323.500 114.964,323.500 116.566 C 323.500 120.316,314.169 120.007,303.605 115.906 C 297.084 113.375,296.000 113.823,296.000 119.049 C 296.000 123.771,297.849 125.660,304.688 127.928 C 324.602 134.532,344.949 125.462,344.989 109.964 C 345.015 99.809,340.287 95.090,325.832 90.847 C 317.437 88.383,315.603 86.900,318.194 84.671 C 320.795 82.434,328.886 83.397,337.444 86.962 C 341.919 88.825,342.739 88.863,343.797 87.249 C 344.935 85.512,344.594 79.985,343.257 78.508 C 339.185 74.008,323.575 71.207,314.065 73.270 M59.500 151.689 C 59.500 156.838,59.639 157.993,60.327 158.564 C 62.425 160.303,62.500 161.321,62.500 187.960 L 62.500 213.452 66.625 215.479 C 80.741 222.416,103.513 222.052,110.792 214.773 C 115.068 210.497,115.250 209.536,115.250 191.250 C 115.250 173.711,115.076 172.687,111.411 168.711 C 106.836 163.748,95.222 162.143,87.760 165.444 C 86.447 166.025,85.289 166.500,85.186 166.500 C 85.084 166.500,85.000 161.775,85.000 156.000 L 85.000 145.500 72.250 145.500 L 59.500 145.500 59.500 151.689 M191.875 151.410 L 181.000 154.242 181.000 159.621 L 181.000 165.000 179.500 165.000 L 178.000 165.000 178.000 171.250 L 178.000 177.500 179.500 177.500 L 181.000 177.500 181.000 193.910 L 181.000 210.321 182.375 213.032 C 185.242 218.687,190.039 220.313,202.244 219.768 C 211.985 219.334,211.000 220.117,211.000 212.800 L 211.000 206.659 208.306 206.056 C 203.679 205.021,203.772 205.331,203.601 190.448 L 203.453 177.500 207.226 177.500 L 211.000 177.500 211.000 171.250 L 211.000 165.000 207.250 165.000 L 203.500 165.000 203.500 156.750 C 203.500 152.213,203.331 148.518,203.125 148.539 C 202.919 148.561,197.856 149.853,191.875 151.410 M227.500 151.425 L 216.750 154.250 216.608 159.625 C 216.467 164.967,216.459 165.000,215.233 165.000 L 214.000 165.000 214.000 171.250 L 214.000 177.500 215.219 177.500 L 216.439 177.500 216.594 194.125 C 216.743 210.049,216.795 210.834,217.829 212.750 C 221.069 218.755,226.323 220.479,239.000 219.697 L 246.250 219.250 246.390 212.921 L 246.529 206.593 244.464 206.244 C 243.287 206.045,241.721 205.290,240.824 204.489 L 239.250 203.083 239.075 190.291 L 238.900 177.500 242.700 177.500 L 246.500 177.500 246.500 171.250 L 246.500 165.000 242.750 165.000 L 239.000 165.000 239.000 156.750 C 239.000 152.213,238.831 148.523,238.625 148.550 C 238.419 148.578,233.412 149.872,227.500 151.425 M141.000 163.969 C 123.729 165.463,121.250 168.949,121.250 191.750 C 121.250 207.820,121.447 209.215,124.257 213.086 C 130.708 221.971,157.898 223.061,171.875 214.995 L 174.500 213.480 174.500 206.490 L 174.500 199.500 163.000 199.500 L 151.500 199.500 151.500 201.726 C 151.500 204.639,150.636 206.443,149.039 206.863 C 145.278 207.854,144.000 206.289,144.000 200.695 L 144.000 196.500 159.250 196.500 L 174.500 196.500 174.490 189.125 C 174.470 174.457,172.852 170.128,166.132 166.765 C 161.407 164.400,150.300 163.164,141.000 163.969 M269.957 164.016 C 253.448 165.455,250.826 169.537,251.091 193.396 C 251.286 210.993,251.913 213.040,258.250 216.765 C 267.673 222.304,292.370 221.182,302.052 214.775 L 304.000 213.486 304.000 206.493 L 304.000 199.500 292.812 199.500 L 281.624 199.500 281.393 202.280 C 280.739 210.171,274.024 208.873,273.599 200.773 L 273.375 196.500 288.724 196.500 L 304.072 196.500 303.911 186.125 C 303.731 174.524,303.351 172.928,299.959 169.536 C 295.418 164.994,283.626 162.825,269.957 164.016 M338.312 164.235 C 337.247 164.614,335.615 165.661,334.687 166.561 L 333.000 168.196 333.000 166.598 L 333.000 165.000 320.750 165.000 L 308.500 165.000 308.500 171.059 C 308.500 177.078,308.510 177.129,310.000 178.826 L 311.500 180.535 311.500 191.792 C 311.500 203.083,311.087 206.000,309.487 206.000 C 309.196 206.000,309.000 208.614,309.000 212.500 L 309.000 219.000 323.250 219.000 L 337.500 219.000 337.500 212.784 C 337.500 207.005,337.429 206.545,336.499 206.250 C 334.628 205.656,334.283 204.108,334.266 196.250 C 334.244 185.875,336.047 183.000,342.574 183.000 L 345.500 183.000 345.500 173.553 C 345.500 163.083,345.635 163.479,342.084 163.522 C 341.075 163.534,339.378 163.855,338.312 164.235 M150.509 177.907 C 151.323 178.566,151.697 179.521,151.878 181.407 L 152.127 184.000 148.064 184.000 L 144.000 184.000 144.000 181.594 C 144.000 177.502,147.536 175.499,150.509 177.907 M280.182 177.638 C 280.662 177.990,281.262 179.171,281.516 180.263 C 282.401 184.084,282.486 184.000,277.750 184.000 L 273.500 184.000 273.500 182.533 C 273.500 178.098,277.152 175.423,280.182 177.638 M91.750 180.565 C 92.670 181.449,92.763 182.298,92.912 191.196 C 93.142 204.893,92.431 206.760,87.389 205.697 L 85.250 205.246 85.116 192.635 L 84.983 180.023 86.366 179.718 C 87.127 179.550,87.975 179.340,88.250 179.251 C 89.118 178.970,90.713 179.569,91.750 180.565 M130.518 239.555 C 123.825 241.599,122.801 245.559,123.108 268.188 C 123.370 287.465,124.271 290.317,130.648 292.043 C 136.509 293.629,142.005 291.683,144.250 287.227 L 145.750 284.250 145.905 267.099 C 146.099 245.646,145.624 242.985,141.138 240.365 C 139.210 239.239,133.082 238.772,130.518 239.555 M68.765 240.125 C 68.653 240.469,66.732 251.887,64.495 265.500 C 62.259 279.113,60.317 290.644,60.181 291.125 C 59.961 291.899,60.338 292.000,63.427 292.000 C 66.837 292.000,66.927 291.967,67.201 290.625 C 67.538 288.967,68.491 282.902,68.496 282.375 C 68.498 282.169,70.715 282.000,73.423 282.000 L 78.346 282.000 79.145 286.805 C 80.103 292.568,79.677 292.081,83.599 291.899 L 86.816 291.750 82.070 265.625 L 77.323 239.500 73.146 239.500 C 70.246 239.500,68.906 239.691,68.765 240.125 M93.000 265.691 L 93.000 292.000 96.500 292.000 L 100.000 292.000 100.000 279.442 L 100.000 266.884 103.256 267.091 C 108.341 267.415,108.197 267.052,108.555 280.392 C 108.915 293.825,108.298 292.000,112.478 292.000 L 115.956 292.000 115.719 285.125 C 115.266 271.944,115.076 269.711,114.229 267.594 C 113.762 266.426,112.973 265.253,112.476 264.987 C 111.642 264.541,111.682 264.395,112.996 263.081 C 115.035 261.042,115.628 258.207,115.416 251.513 C 115.082 241.004,113.756 239.897,101.125 239.584 L 93.000 239.383 93.000 265.691 M154.000 260.725 C 154.000 289.869,154.583 291.710,164.034 292.386 C 175.853 293.232,176.633 291.379,176.874 261.875 L 177.056 239.500 173.278 239.500 L 169.500 239.500 169.500 261.945 C 169.500 287.543,169.630 286.727,165.560 286.727 C 161.160 286.727,161.027 285.953,161.012 260.375 L 161.000 239.500 157.500 239.500 L 154.000 239.500 154.000 260.725 M185.500 265.750 L 185.500 292.000 188.780 292.000 L 192.060 292.000 191.905 275.066 L 191.750 258.133 195.898 269.691 C 198.180 276.049,200.907 283.613,201.959 286.500 L 203.872 291.750 206.686 291.900 L 209.500 292.050 209.500 265.775 L 209.500 239.500 206.199 239.500 L 202.899 239.500 203.074 255.965 C 203.171 265.021,203.116 272.164,202.953 271.840 C 202.790 271.515,199.994 264.106,196.741 255.375 L 190.826 239.500 188.163 239.500 L 185.500 239.500 185.500 265.750 M218.000 265.688 L 218.000 292.000 224.409 292.000 C 239.687 292.000,240.250 291.058,240.250 265.500 L 240.250 247.250 238.894 244.679 C 236.767 240.647,234.651 239.849,225.381 239.586 L 218.000 239.376 218.000 265.688 M261.000 242.500 L 261.000 245.500 264.250 245.500 L 267.500 245.500 267.500 268.750 L 267.500 292.000 271.000 292.000 L 274.500 292.000 274.500 268.750 L 274.500 245.500 277.500 245.500 L 280.500 245.500 280.500 242.500 L 280.500 239.500 270.750 239.500 L 261.000 239.500 261.000 242.500 M285.500 265.750 L 285.500 292.000 289.000 292.000 L 292.500 292.000 292.500 279.500 L 292.500 267.000 297.000 267.000 L 301.500 267.000 301.500 279.500 L 301.500 292.000 305.000 292.000 L 308.500 292.000 308.500 265.750 L 308.500 239.500 305.000 239.500 L 301.500 239.500 301.500 250.500 L 301.500 261.500 297.000 261.500 L 292.500 261.500 292.500 250.500 L 292.500 239.500 289.000 239.500 L 285.500 239.500 285.500 265.750 M317.500 265.750 L 317.500 292.000 326.250 292.000 L 335.000 292.000 335.000 289.250 L 335.000 286.500 329.750 286.500 L 324.500 286.500 324.500 277.250 L 324.500 268.000 329.250 268.000 L 334.000 268.000 334.000 265.250 L 334.000 262.500 329.250 262.500 L 324.500 262.500 324.500 254.000 L 324.500 245.500 329.750 245.500 L 335.000 245.500 335.000 242.500 L 335.000 239.500 326.250 239.500 L 317.500 239.500 317.500 265.750 M107.030 245.924 C 108.018 246.724,108.202 247.425,108.397 251.145 C 108.862 260.000,107.867 262.000,103.000 262.000 L 100.000 262.000 100.000 253.500 L 100.000 245.000 102.945 245.000 C 105.063 245.000,106.209 245.259,107.030 245.924 M137.214 245.785 C 138.612 247.183,138.750 249.000,138.750 266.000 C 138.750 286.362,138.598 286.975,133.685 286.414 C 130.715 286.075,130.502 284.736,130.501 266.438 C 130.500 248.920,130.600 247.617,132.075 246.035 C 133.238 244.786,136.077 244.648,137.214 245.785 M231.496 246.419 C 233.458 248.381,233.591 249.843,233.408 267.500 C 233.215 286.087,233.081 286.500,227.226 286.500 L 225.000 286.500 225.000 265.750 L 225.000 245.000 227.538 245.000 C 229.660 245.000,230.310 245.233,231.496 246.419 M77.203 275.125 L 77.475 276.500 73.422 276.500 L 69.369 276.500 69.636 274.854 C 69.783 273.948,70.654 268.187,71.571 262.051 L 73.239 250.895 75.085 262.323 C 76.100 268.608,77.053 274.369,77.203 275.125 M70.465 311.184 C 63.097 313.170,56.136 321.315,54.472 329.895 C 51.283 346.340,69.712 359.372,83.640 350.522 C 86.759 348.540,86.845 348.184,85.230 343.888 C 83.296 338.741,82.504 338.000,78.937 338.000 C 72.039 338.000,69.803 336.795,69.816 333.083 C 69.832 328.392,71.977 326.409,78.827 324.753 L 82.403 323.888 83.891 320.569 C 86.265 315.270,86.268 315.585,83.834 313.253 C 80.880 310.423,76.055 309.676,70.465 311.184 M99.356 310.873 C 94.651 311.030,94.443 311.085,93.982 312.297 C 92.741 315.562,90.844 324.408,89.256 334.339 C 88.297 340.340,87.389 345.968,87.239 346.845 C 86.769 349.590,90.245 351.388,98.631 352.738 L 102.512 353.363 103.230 350.807 C 103.625 349.401,104.092 347.218,104.269 345.958 C 104.686 342.966,104.922 342.649,107.001 342.287 L 108.750 341.983 111.740 346.982 C 113.385 349.732,115.349 352.440,116.106 353.000 L 117.483 354.017 122.983 351.259 C 129.194 348.144,129.211 348.138,128.860 349.480 C 128.283 351.688,131.105 352.829,137.819 353.104 C 144.264 353.368,145.500 353.091,145.500 351.382 C 145.500 350.353,145.553 350.364,146.892 351.647 L 148.284 352.980 153.661 352.508 C 159.651 351.982,160.000 351.867,160.000 350.432 C 160.000 349.564,160.186 349.645,161.333 351.008 L 162.666 352.592 169.559 352.421 C 178.376 352.202,177.723 353.265,176.760 340.695 C 174.996 317.667,174.317 313.107,172.411 311.473 C 171.143 310.386,154.645 310.512,153.940 311.614 C 153.769 311.881,153.214 314.439,152.706 317.299 C 151.585 323.608,151.495 323.633,149.832 318.091 C 147.882 311.594,147.337 311.207,141.135 311.912 C 131.307 313.030,131.438 312.722,130.231 337.627 C 129.821 346.081,129.729 346.145,127.028 339.840 C 123.300 331.135,114.019 313.058,112.606 311.748 C 111.143 310.392,112.018 310.449,99.356 310.873 M187.500 311.259 C 179.657 312.775,180.513 310.760,179.534 330.000 C 178.299 354.261,178.374 354.425,189.909 352.478 L 197.250 351.240 197.244 348.995 C 197.240 347.760,197.072 345.146,196.871 343.185 L 196.504 339.620 201.877 337.779 C 216.206 332.868,220.030 324.651,211.916 316.202 C 206.775 310.848,198.398 309.152,187.500 311.259 M225.750 310.753 C 225.475 310.849,223.317 311.073,220.954 311.252 L 216.658 311.577 216.312 327.913 C 216.121 336.898,215.853 345.825,215.716 347.750 C 215.303 353.542,220.873 355.144,229.468 351.704 L 231.640 350.836 231.367 344.918 L 231.094 339.000 234.015 339.000 C 235.621 339.000,237.546 338.768,238.292 338.484 L 239.649 337.968 239.338 333.109 C 238.965 327.300,237.701 325.500,233.992 325.500 C 232.627 325.500,232.000 325.282,232.000 324.807 C 232.000 324.054,233.601 323.747,240.350 323.204 C 242.704 323.015,244.514 322.636,244.600 322.313 C 244.683 322.003,245.977 322.931,247.477 324.375 L 250.205 327.000 248.407 327.000 C 246.115 327.000,246.090 327.136,245.680 341.899 L 245.370 353.047 246.560 354.332 C 248.146 356.045,260.959 355.211,262.898 353.268 C 263.819 352.345,263.308 328.783,262.343 327.668 C 261.424 326.606,261.426 326.575,262.448 326.028 C 263.021 325.721,263.829 324.813,264.245 324.010 C 269.103 314.616,251.470 305.452,245.750 314.398 C 244.594 316.205,244.000 316.415,244.000 315.017 C 244.000 314.477,243.302 313.239,242.448 312.267 L 240.896 310.500 233.573 310.539 C 229.545 310.561,226.025 310.657,225.750 310.753 M276.604 311.233 C 274.874 311.625,272.230 312.508,270.729 313.195 L 268.000 314.445 267.992 316.847 C 267.987 318.169,267.538 323.075,266.993 327.750 C 264.324 350.633,265.525 353.796,276.732 353.406 C 281.688 353.234,281.835 353.128,282.874 349.000 L 283.314 347.250 284.177 348.889 C 285.628 351.644,287.791 353.236,289.906 353.106 C 293.861 352.862,303.000 350.780,303.000 350.123 C 303.000 348.335,301.118 345.486,297.461 341.740 L 293.422 337.602 295.586 336.104 C 302.850 331.076,304.820 321.472,299.709 316.008 C 295.159 311.143,285.666 309.182,276.604 311.233 M307.817 311.808 C 306.084 320.372,305.159 329.268,304.731 341.500 L 304.407 350.750 305.581 351.847 C 306.944 353.121,309.872 353.331,323.375 353.124 L 331.500 353.000 331.500 347.932 C 331.500 341.044,330.492 340.012,323.000 339.234 L 319.250 338.844 323.156 337.975 C 327.907 336.917,327.497 337.344,328.157 332.766 C 328.829 328.098,327.833 326.584,323.790 326.128 C 319.706 325.668,321.467 324.776,327.280 324.360 C 333.826 323.892,333.309 324.387,333.728 318.188 L 334.071 313.126 332.223 311.983 C 330.480 310.906,329.745 310.828,319.242 310.603 L 308.109 310.365 307.817 311.808 M81.326 313.111 C 82.002 313.788,81.932 314.230,80.667 317.246 L 79.250 320.623 75.662 321.529 C 68.295 323.391,65.482 326.557,66.125 332.264 C 66.634 336.778,69.755 338.894,76.608 339.372 L 80.466 339.641 81.641 342.695 L 82.816 345.750 81.058 346.961 C 63.107 359.325,46.949 335.313,62.080 318.758 C 67.385 312.953,78.041 309.827,81.326 313.111 M115.724 322.250 C 119.871 330.467,123.978 339.404,125.764 344.099 C 126.024 344.781,125.082 345.451,120.957 347.522 C 114.970 350.526,115.982 350.985,111.500 343.234 L 108.750 338.478 106.000 338.769 C 101.122 339.284,101.319 339.084,100.487 344.402 C 99.729 349.252,99.612 349.501,98.091 349.491 C 96.163 349.479,89.895 348.095,89.364 347.564 C 88.629 346.829,92.301 324.823,94.564 316.393 L 95.600 312.535 100.425 312.362 C 103.079 312.266,106.471 312.202,107.964 312.219 L 110.678 312.250 115.724 322.250 M170.674 313.495 C 171.318 316.714,173.074 337.560,173.159 343.000 L 173.250 348.750 167.625 348.891 C 164.531 348.969,161.995 348.857,161.989 348.641 C 161.957 347.541,160.089 336.922,159.892 336.726 C 159.766 336.599,158.916 339.194,158.003 342.490 C 156.132 349.244,156.865 348.595,150.394 349.226 C 147.111 349.546,147.025 349.463,146.002 345.000 C 144.966 340.477,142.950 334.383,142.604 334.729 C 142.427 334.906,142.162 338.348,142.016 342.376 L 141.750 349.701 136.140 349.752 C 129.863 349.809,130.436 350.219,131.258 346.257 C 131.400 345.573,131.843 339.329,132.242 332.382 C 132.695 324.511,133.259 318.782,133.737 317.181 L 134.505 314.612 137.628 314.064 C 139.345 313.762,141.719 313.456,142.904 313.383 L 145.059 313.250 147.826 321.625 C 149.348 326.231,150.761 330.000,150.965 330.000 C 151.621 330.000,153.068 324.927,154.175 318.750 L 155.250 312.750 159.000 312.465 C 161.063 312.308,164.466 312.140,166.563 312.090 L 170.375 312.000 170.674 313.495 M204.687 313.272 C 217.264 317.732,214.213 329.117,198.997 334.501 L 193.000 336.623 193.026 338.687 C 193.040 339.821,193.233 342.325,193.454 344.250 C 193.676 346.175,193.807 347.814,193.745 347.892 C 193.613 348.058,182.521 349.992,181.669 349.997 C 180.500 350.003,180.417 345.585,181.296 330.003 L 182.194 314.087 186.222 313.291 C 192.061 312.137,192.785 312.072,197.750 312.248 C 200.337 312.340,203.286 312.776,204.687 313.272 M240.197 312.791 C 240.363 313.226,240.500 314.903,240.500 316.518 C 240.500 319.897,240.897 319.694,233.250 320.224 C 228.639 320.544,228.000 321.041,228.000 324.315 C 228.000 326.631,227.989 326.626,233.750 327.121 C 236.742 327.378,236.825 335.500,233.835 335.500 C 232.903 335.500,231.102 335.642,229.835 335.816 L 227.530 336.132 227.390 342.190 L 227.250 348.247 225.500 348.807 C 224.537 349.115,222.344 349.520,220.626 349.708 L 217.502 350.049 217.815 331.900 C 217.987 321.917,218.268 313.595,218.439 313.405 C 219.548 312.177,239.742 311.606,240.197 312.791 M255.639 312.530 C 259.698 313.657,262.256 317.446,261.068 320.571 C 258.781 326.586,246.000 325.083,246.000 318.800 C 246.000 313.984,250.450 311.089,255.639 312.530 M289.395 312.480 C 301.152 314.710,302.331 326.550,291.489 333.507 L 288.952 335.135 290.101 336.439 C 290.733 337.157,293.008 339.612,295.157 341.894 C 297.529 344.413,299.000 346.379,298.901 346.897 C 298.733 347.768,293.206 349.241,288.784 349.593 L 286.818 349.750 284.398 345.750 C 283.068 343.550,281.488 340.962,280.888 340.000 L 279.798 338.250 279.443 340.750 C 279.247 342.125,279.068 344.413,279.044 345.834 C 278.973 350.034,279.015 350.000,273.792 350.000 C 267.111 350.000,267.285 350.242,267.628 341.451 C 267.891 334.717,269.107 321.778,269.902 317.252 C 270.560 313.512,281.158 310.918,289.395 312.480 M327.375 312.324 L 330.000 312.639 329.992 315.945 C 329.981 320.717,329.976 320.721,323.519 320.919 L 318.000 321.088 318.000 324.004 L 318.000 326.920 321.250 327.268 L 324.500 327.616 324.493 329.683 C 324.480 333.601,324.312 333.788,319.958 334.729 L 316.000 335.584 316.000 337.782 C 316.000 340.325,315.880 340.270,322.362 340.729 C 328.224 341.145,328.000 340.956,328.000 345.500 L 328.000 349.393 319.271 349.756 C 314.470 349.956,309.571 349.974,308.384 349.796 L 306.226 349.473 306.377 344.111 C 306.682 333.323,307.519 323.116,308.551 317.625 L 309.608 312.000 317.179 312.004 C 321.343 312.007,325.931 312.151,327.375 312.324 M280.821 323.573 C 280.247 329.066,280.272 329.171,282.083 328.808 C 288.183 327.588,288.931 320.500,282.960 320.500 L 281.142 320.500 280.821 323.573 M192.309 324.375 C 192.720 328.085,192.827 328.168,195.887 327.128 C 202.255 324.962,201.861 321.500,195.246 321.500 L 191.991 321.500 192.309 324.375 M102.578 326.443 C 101.635 332.152,101.576 332.000,104.750 332.000 C 107.998 332.000,108.007 331.961,105.771 327.613 C 103.160 322.535,103.220 322.557,102.578 326.443 M285.500 324.220 C 285.500 324.617,285.275 325.080,285.000 325.250 C 284.725 325.420,284.500 325.096,284.500 324.530 C 284.500 323.963,284.725 323.500,285.000 323.500 C 285.275 323.500,285.500 323.824,285.500 324.220 M259.648 334.340 C 259.812 337.827,259.814 342.871,259.651 345.549 L 259.354 350.418 257.052 350.998 C 253.027 352.012,247.966 352.252,247.459 351.452 C 246.340 349.683,247.402 329.190,248.655 328.393 C 248.982 328.185,251.522 328.012,254.299 328.008 L 259.348 328.000 259.648 334.340 " stroke="none" fill="#000000" fill-rule="evenodd"></path></g></svg>
