<svg id="svg" version="1.1" width="300" height="250" viewBox="0 0 400 400" xmlns="http://www.w3.org/2000/svg" xmlns:xlink="http://www.w3.org/1999/xlink" ><g id="svgg"><path id="path0" d="M201.800 253.068 C 199.459 253.684,196.088 256.956,195.275 259.400 C 195.201 259.620,194.951 260.250,194.717 260.800 C 193.206 264.361,192.739 266.392,192.141 272.000 C 192.058 272.770,191.823 274.840,191.618 276.600 C 190.992 281.968,191.227 290.145,192.112 293.800 C 192.219 294.240,192.423 295.410,192.566 296.400 C 193.168 300.568,193.708 303.200,193.960 303.200 C 194.108 303.200,194.258 303.573,194.292 304.028 C 194.366 305.007,195.578 308.825,195.998 309.400 C 196.158 309.620,196.414 310.340,196.567 311.000 C 197.035 313.025,203.329 325.278,204.032 325.533 C 204.235 325.607,204.404 325.877,204.409 326.133 C 204.414 326.390,204.779 327.050,205.221 327.600 C 205.663 328.150,206.678 329.561,207.475 330.736 C 208.273 331.910,209.257 333.079,209.663 333.332 C 210.068 333.585,210.400 333.999,210.400 334.251 C 210.400 334.686,211.728 336.179,217.193 341.887 C 219.475 344.270,225.380 349.600,225.738 349.600 C 225.833 349.600,226.732 350.410,227.736 351.400 C 228.741 352.390,229.723 353.200,229.919 353.200 C 230.115 353.200,230.799 353.652,231.438 354.205 C 233.150 355.686,236.798 356.399,236.800 355.253 C 236.801 355.114,237.206 354.519,237.700 353.930 C 238.195 353.342,239.050 352.287,239.600 351.586 C 241.686 348.928,243.256 346.950,244.408 345.527 C 245.063 344.717,245.600 343.960,245.600 343.845 C 245.600 343.730,246.005 343.204,246.500 342.675 C 247.494 341.614,247.792 341.229,251.204 336.600 C 252.501 334.840,253.841 333.115,254.181 332.766 C 254.521 332.418,254.800 332.009,254.800 331.858 C 254.800 331.707,255.655 330.462,256.700 329.091 C 257.745 327.721,258.780 326.310,259.000 325.957 C 260.329 323.819,263.399 319.338,263.766 319.000 C 264.234 318.569,266.253 315.534,268.423 312.000 C 269.166 310.790,269.949 309.678,270.163 309.529 C 270.561 309.252,271.047 308.412,272.800 304.966 C 273.350 303.885,274.014 302.773,274.276 302.496 C 274.537 302.218,274.978 301.363,275.256 300.596 C 275.534 299.828,275.887 299.200,276.041 299.200 C 276.195 299.200,276.654 298.391,277.060 297.401 C 277.467 296.412,277.917 295.602,278.060 295.601 C 278.203 295.601,278.643 294.700,279.039 293.600 C 279.434 292.500,279.879 291.600,280.027 291.600 C 280.175 291.600,280.525 290.745,280.806 289.700 C 281.086 288.655,281.625 287.260,282.004 286.600 C 282.383 285.940,282.910 284.502,283.176 283.405 C 283.442 282.308,283.806 281.228,283.986 281.005 C 284.566 280.287,285.317 273.299,285.103 270.622 C 284.483 262.909,275.789 256.999,269.696 260.150 C 268.988 260.517,268.271 260.822,268.104 260.829 C 267.543 260.852,262.800 263.762,262.800 264.083 C 262.800 264.257,262.560 264.400,262.266 264.400 C 261.972 264.400,261.260 264.895,260.683 265.500 C 260.106 266.105,259.442 266.780,259.206 267.000 C 258.087 268.047,254.512 271.997,253.800 272.973 C 253.360 273.577,252.640 274.476,252.200 274.971 C 250.706 276.653,248.964 278.994,247.780 280.910 C 247.131 281.960,246.108 283.400,245.506 284.110 C 244.905 284.819,244.410 285.625,244.406 285.900 C 244.403 286.175,244.247 286.400,244.061 286.400 C 243.874 286.400,243.396 287.121,242.999 288.002 C 242.073 290.056,241.274 290.767,240.785 289.974 C 240.590 289.658,240.247 289.130,240.023 288.800 C 239.799 288.470,238.881 287.120,237.984 285.800 C 237.086 284.480,235.445 282.005,234.337 280.300 C 233.229 278.595,232.160 277.200,231.961 277.200 C 231.763 277.200,231.600 276.962,231.600 276.672 C 231.600 276.382,231.060 275.539,230.400 274.800 C 229.740 274.061,229.200 273.342,229.200 273.203 C 229.200 273.064,228.879 272.602,228.486 272.175 C 228.093 271.749,227.462 270.950,227.084 270.400 C 224.733 266.983,215.074 257.068,213.658 256.619 C 213.186 256.469,212.800 256.174,212.800 255.963 C 212.800 255.753,212.305 255.395,211.700 255.170 C 211.095 254.944,209.953 254.426,209.161 254.018 C 207.693 253.262,203.244 252.687,201.800 253.068 M172.076 295.085 C 171.567 295.183,171.053 295.518,170.933 295.831 C 170.813 296.144,170.509 296.400,170.257 296.400 C 168.550 296.402,164.974 302.325,164.430 306.052 C 164.085 308.418,164.176 315.439,164.578 317.500 C 164.755 318.403,163.445 318.888,163.133 318.035 C 162.982 317.622,156.324 316.400,154.223 316.400 C 153.467 316.400,152.736 316.220,152.600 316.000 C 152.297 315.510,146.532 315.463,146.232 315.948 C 146.114 316.140,145.481 316.404,144.826 316.535 C 141.927 317.115,141.616 321.997,144.260 325.400 C 144.773 326.060,145.510 327.030,145.896 327.556 C 147.070 329.150,150.930 332.806,152.100 333.432 C 152.705 333.756,153.200 334.175,153.200 334.364 C 153.200 334.552,153.515 334.814,153.900 334.945 C 154.285 335.077,155.680 335.825,157.000 336.607 C 158.320 337.390,159.758 338.146,160.196 338.287 C 160.633 338.428,161.893 339.016,162.996 339.594 C 164.098 340.173,165.900 340.888,167.000 341.185 C 168.100 341.481,169.180 341.854,169.400 342.013 C 169.620 342.172,171.060 342.612,172.600 342.991 C 174.140 343.370,175.580 343.815,175.800 343.980 C 176.901 344.806,184.022 345.711,184.631 345.102 C 185.100 344.633,184.633 329.100,184.125 328.278 C 184.002 328.079,183.839 326.990,183.763 325.858 C 183.368 319.961,182.242 310.400,181.943 310.400 C 181.754 310.400,181.600 309.942,181.600 309.383 C 181.600 308.013,180.407 302.301,180.016 301.800 C 179.845 301.580,179.492 300.740,179.232 299.934 C 178.973 299.128,177.992 297.643,177.052 296.634 C 175.314 294.768,174.715 294.581,172.076 295.085 " stroke="none" fill="#34dcd4" fill-rule="evenodd"></path><path id="path1" d="M78.521 96.658 C 77.598 97.196,76.731 97.988,76.594 98.418 C 76.458 98.848,76.196 99.200,76.013 99.200 C 75.829 99.200,75.346 100.009,74.940 100.999 C 74.533 101.988,74.085 102.798,73.944 102.799 C 73.804 102.799,73.365 104.015,72.969 105.500 C 72.573 106.985,72.127 108.290,71.978 108.400 C 71.642 108.648,70.400 113.563,70.400 114.646 C 70.400 115.083,70.238 115.611,70.041 115.820 C 69.651 116.234,68.400 123.698,68.400 125.616 C 68.400 126.267,68.249 126.800,68.065 126.800 C 67.721 126.800,67.028 132.476,66.551 139.200 C 66.403 141.290,66.151 143.090,65.992 143.200 C 65.832 143.310,65.497 147.360,65.247 152.200 C 64.425 168.097,64.311 169.672,64.005 169.334 C 63.688 168.985,62.379 143.005,62.392 137.324 C 62.397 135.522,62.220 133.936,62.000 133.800 C 61.780 133.664,61.600 132.686,61.600 131.627 C 61.600 126.007,52.034 124.948,51.001 130.454 C 50.683 132.150,51.478 145.444,51.967 146.600 C 52.154 147.040,52.619 150.460,53.001 154.200 C 53.384 157.940,53.855 161.060,54.048 161.133 C 54.242 161.207,54.410 161.837,54.422 162.533 C 54.462 164.813,57.216 178.557,57.963 180.200 C 58.162 180.640,58.550 181.900,58.824 183.000 C 60.604 190.152,63.725 193.004,67.585 191.008 C 69.305 190.118,69.600 187.917,69.600 175.980 C 69.600 170.271,69.751 165.600,69.936 165.600 C 70.121 165.600,70.390 161.000,70.535 155.377 C 70.862 142.679,71.563 131.443,72.040 131.267 C 72.238 131.193,72.400 130.573,72.400 129.889 C 72.400 127.914,73.675 119.021,73.990 118.800 C 74.147 118.690,74.602 116.890,75.000 114.800 C 75.398 112.710,75.850 110.910,76.004 110.800 C 76.158 110.690,76.504 109.925,76.773 109.100 C 77.042 108.275,77.494 107.600,77.778 107.600 C 78.324 107.600,79.600 111.553,79.600 113.246 C 79.600 113.793,79.758 114.411,79.951 114.620 C 80.527 115.244,81.215 125.094,81.478 136.500 C 81.614 142.385,81.849 147.200,82.001 147.200 C 82.152 147.200,82.386 149.886,82.521 153.169 C 82.799 159.953,83.417 164.150,84.238 164.832 C 84.547 165.088,84.800 165.483,84.800 165.709 C 84.800 166.993,87.584 168.800,89.564 168.800 C 91.597 168.800,93.600 167.462,93.600 166.104 C 93.600 165.827,93.756 165.600,93.947 165.600 C 94.138 165.600,94.608 164.475,94.990 163.100 C 95.373 161.725,95.831 160.420,96.007 160.200 C 96.184 159.980,96.631 158.630,97.001 157.201 C 97.371 155.772,97.809 154.512,97.976 154.401 C 98.142 154.290,98.595 152.893,98.983 151.296 C 99.371 149.699,99.833 148.303,100.011 148.193 C 100.189 148.083,100.645 146.555,101.025 144.797 C 101.405 143.039,101.850 141.600,102.015 141.600 C 102.179 141.600,102.633 140.297,103.023 138.705 C 103.413 137.113,103.940 135.603,104.193 135.350 C 104.446 135.097,104.879 133.880,105.155 132.645 C 105.431 131.410,105.800 130.400,105.974 130.400 C 106.148 130.400,106.614 129.371,107.009 128.114 C 107.405 126.857,108.059 125.473,108.464 125.039 C 108.869 124.605,109.200 124.019,109.200 123.739 C 109.200 123.458,109.568 123.031,110.019 122.790 C 110.946 122.294,110.797 133.166,109.861 134.344 C 109.262 135.098,109.227 169.111,109.825 169.514 C 110.058 169.671,110.472 170.815,110.743 172.055 C 111.015 173.295,111.589 174.628,112.019 175.017 C 112.448 175.406,112.800 175.963,112.800 176.254 C 112.800 176.891,114.267 177.312,115.852 177.131 L 117.000 177.000 116.852 167.000 C 116.698 156.606,117.424 140.776,118.073 140.362 C 118.282 140.229,118.551 134.748,118.685 127.924 L 118.924 115.724 117.762 113.417 C 115.595 109.114,111.524 109.229,107.863 113.697 C 107.058 114.679,106.400 115.674,106.400 115.908 C 106.400 116.142,106.241 116.393,106.047 116.467 C 105.655 116.615,101.200 125.014,101.200 125.606 C 101.200 125.812,100.660 127.159,100.000 128.600 C 99.340 130.041,98.800 131.443,98.800 131.716 C 98.800 131.989,98.470 132.839,98.068 133.606 C 97.665 134.373,97.097 135.900,96.806 137.000 C 96.514 138.100,96.146 139.180,95.986 139.400 C 95.827 139.620,95.398 140.880,95.033 142.200 C 94.668 143.520,94.209 144.960,94.014 145.400 C 93.818 145.840,93.570 146.470,93.461 146.800 C 93.352 147.130,93.250 143.350,93.233 138.400 C 93.200 128.544,92.506 116.677,91.951 116.467 C 91.758 116.393,91.599 115.763,91.598 115.067 C 91.594 113.163,90.450 105.948,90.071 105.442 C 89.889 105.199,89.410 103.875,89.007 102.500 C 88.603 101.125,88.134 100.000,87.964 100.000 C 87.793 100.000,87.531 99.611,87.380 99.136 C 86.350 95.893,81.948 94.661,78.521 96.658 M325.358 118.208 C 324.412 119.652,324.821 122.157,326.214 123.448 C 327.200 124.361,327.273 124.623,327.017 126.326 C 326.428 130.242,326.485 130.587,327.748 130.731 C 330.168 131.008,331.600 129.837,331.600 127.581 C 331.600 127.152,331.780 126.800,332.000 126.800 C 332.231 126.800,332.400 125.533,332.400 123.800 C 332.400 122.067,332.231 120.800,332.000 120.800 C 331.780 120.800,331.600 120.456,331.600 120.036 C 331.600 117.647,326.671 116.204,325.358 118.208 M172.018 121.472 C 169.329 122.624,164.400 129.532,164.400 132.149 C 164.400 132.507,164.253 132.800,164.073 132.800 C 163.715 132.800,162.387 138.076,162.395 139.467 C 162.398 139.943,162.235 140.393,162.033 140.467 C 161.831 140.540,161.365 143.120,160.997 146.200 C 160.629 149.280,160.164 152.113,159.964 152.495 C 159.764 152.877,159.590 153.867,159.577 154.695 C 159.510 159.057,158.890 159.167,158.846 154.824 C 158.821 152.307,159.016 149.202,159.280 147.924 C 159.891 144.965,159.612 144.667,156.195 144.629 C 153.023 144.594,152.815 144.828,152.806 148.422 C 152.800 151.070,151.273 153.600,149.681 153.600 C 149.416 153.600,149.200 153.780,149.200 154.000 C 149.200 154.220,148.795 154.400,148.300 154.400 C 147.407 154.400,147.400 154.352,147.400 148.500 C 147.400 142.572,146.977 140.119,145.740 138.882 C 145.443 138.586,145.200 138.111,145.200 137.827 C 145.200 137.175,142.607 134.400,141.998 134.400 C 141.748 134.400,141.297 134.155,140.997 133.855 C 139.815 132.672,131.270 132.791,130.868 133.995 C 130.794 134.218,130.508 134.400,130.233 134.400 C 129.684 134.400,127.935 136.226,127.240 137.525 C 126.998 137.978,126.800 139.445,126.800 140.786 C 126.800 142.739,126.661 143.279,126.101 143.493 C 123.716 144.409,123.400 145.358,123.400 151.623 C 123.400 155.450,123.560 157.672,123.861 158.039 C 124.114 158.347,124.537 159.410,124.801 160.400 C 125.310 162.313,125.415 162.467,127.982 165.085 C 130.704 167.861,136.866 168.111,140.736 165.602 C 141.871 164.867,142.800 164.150,142.800 164.008 C 142.800 163.867,143.116 163.402,143.503 162.975 C 144.597 161.769,145.600 160.086,145.600 159.457 C 145.600 158.799,146.443 158.400,147.833 158.400 C 148.365 158.400,148.800 158.220,148.800 158.000 C 148.800 157.780,149.094 157.600,149.453 157.600 C 149.812 157.600,150.712 157.225,151.453 156.767 L 152.800 155.935 152.808 159.267 C 152.826 166.589,154.042 170.034,156.885 170.815 C 160.791 171.888,162.902 168.770,163.464 161.100 C 163.605 159.175,163.873 157.600,164.060 157.600 C 164.247 157.600,164.400 156.972,164.400 156.204 C 164.400 153.805,165.655 142.621,165.972 142.200 C 166.137 141.980,166.502 140.450,166.782 138.800 C 167.062 137.150,167.609 135.080,167.998 134.200 C 168.387 133.320,168.818 132.227,168.957 131.770 C 169.324 130.562,171.450 128.657,172.137 128.921 C 172.714 129.142,173.600 132.336,173.600 134.196 C 173.600 134.722,173.758 135.251,173.952 135.370 C 174.366 135.626,174.712 139.990,175.190 151.000 C 175.656 161.711,176.381 163.608,180.000 163.582 C 181.731 163.569,183.600 160.768,183.600 158.186 C 183.600 157.864,183.758 157.600,183.950 157.600 C 184.143 157.600,184.414 157.029,184.554 156.330 C 184.694 155.632,185.273 154.057,185.841 152.830 C 187.768 148.671,189.777 144.602,190.103 144.200 C 190.281 143.980,190.685 143.440,191.001 143.000 C 191.742 141.967,191.811 148.744,191.169 159.400 C 190.667 167.724,191.069 174.726,192.108 175.765 C 192.801 176.458,195.600 176.646,195.600 176.000 C 195.600 175.780,195.942 175.600,196.359 175.600 C 197.497 175.600,201.525 171.479,203.036 168.770 C 203.456 168.017,204.025 167.256,204.300 167.080 C 204.575 166.904,204.800 166.531,204.800 166.251 C 204.800 165.972,205.335 165.035,205.989 164.171 C 206.643 163.307,207.183 162.388,207.189 162.129 C 207.195 161.869,207.425 161.419,207.701 161.129 C 207.976 160.838,208.561 159.883,209.001 159.006 C 210.490 156.035,210.800 156.046,210.803 159.071 C 210.807 162.363,211.500 166.949,212.023 167.133 C 212.230 167.207,212.406 167.567,212.413 167.933 C 212.468 170.672,218.022 172.227,219.271 169.853 C 219.518 169.384,219.871 168.900,220.056 168.779 C 220.241 168.657,220.679 167.307,221.028 165.779 C 221.378 164.250,221.818 162.707,222.005 162.348 C 222.193 161.990,222.648 159.920,223.017 157.748 C 223.386 155.577,223.822 153.710,223.986 153.600 C 224.149 153.490,224.512 152.140,224.793 150.600 C 225.073 149.060,225.639 147.045,226.051 146.122 C 226.463 145.199,226.800 144.186,226.800 143.871 C 226.800 143.041,227.945 142.185,228.421 142.661 C 228.634 142.874,229.007 144.567,229.251 146.424 C 229.495 148.281,229.843 150.160,230.025 150.600 C 230.207 151.040,230.477 153.277,230.626 155.571 C 230.947 160.523,231.272 161.822,232.444 162.838 C 233.801 164.015,237.200 163.580,237.200 162.230 C 237.200 161.905,237.451 161.496,237.758 161.320 C 238.065 161.144,238.602 160.032,238.952 158.849 C 239.301 157.665,239.744 156.495,239.934 156.249 C 240.125 156.002,240.614 154.855,241.020 153.700 C 241.426 152.545,241.883 151.600,242.036 151.600 C 242.188 151.600,242.423 151.164,242.557 150.631 C 243.388 147.318,245.505 146.805,245.572 149.900 C 245.587 150.615,245.780 151.200,246.000 151.200 C 246.257 151.200,246.408 155.182,246.423 162.300 C 246.449 175.507,246.570 176.140,249.100 176.323 C 250.106 176.396,250.800 176.273,250.800 176.023 C 250.800 175.790,251.125 175.600,251.522 175.600 C 252.412 175.600,257.200 171.047,257.200 170.200 C 257.200 170.017,257.480 169.582,257.822 169.234 C 258.627 168.413,261.136 164.433,261.428 163.512 C 261.734 162.547,262.800 162.606,262.800 163.588 C 262.800 165.894,266.533 171.600,268.041 171.600 C 268.459 171.600,268.800 171.780,268.800 172.000 C 268.800 172.220,269.430 172.400,270.200 172.400 C 270.970 172.400,271.600 172.240,271.600 172.045 C 271.600 171.849,272.258 171.566,273.062 171.415 C 274.664 171.114,278.858 167.308,279.373 165.686 C 279.527 165.199,279.813 164.800,280.008 164.800 C 280.203 164.800,280.679 164.125,281.066 163.300 C 281.453 162.475,281.965 161.599,282.203 161.353 C 282.442 161.107,282.893 160.117,283.206 159.153 C 283.520 158.189,283.978 157.190,284.226 156.933 C 284.474 156.676,284.909 155.371,285.193 154.033 C 285.477 152.695,285.865 151.600,286.055 151.600 C 286.245 151.600,286.420 151.105,286.443 150.500 C 286.467 149.895,286.722 151.343,287.009 153.718 C 287.297 156.093,287.699 158.253,287.904 158.518 C 288.108 158.783,288.504 159.845,288.784 160.878 C 290.366 166.728,295.490 166.539,297.253 160.566 C 297.540 159.594,297.895 158.800,298.043 158.800 C 298.190 158.800,298.635 157.585,299.031 156.100 C 299.427 154.615,299.868 153.310,300.012 153.200 C 300.155 153.090,300.605 151.740,301.012 150.200 C 301.418 148.660,301.868 147.310,302.012 147.200 C 302.155 147.090,302.598 145.785,302.995 144.300 C 303.393 142.815,303.851 141.600,304.012 141.600 C 304.173 141.600,304.518 140.753,304.779 139.719 C 305.795 135.684,308.276 132.674,309.186 134.374 C 310.033 135.957,309.025 153.321,307.971 155.295 C 307.465 156.241,307.491 166.286,308.000 166.600 C 308.220 166.736,308.400 167.255,308.400 167.754 C 308.400 172.581,316.863 170.225,319.300 164.720 C 319.572 164.104,319.927 163.600,320.087 163.600 C 320.248 163.600,320.679 163.015,321.046 162.300 C 321.412 161.585,321.824 160.910,321.962 160.800 C 322.100 160.690,322.569 159.837,323.006 158.905 C 323.443 157.972,323.911 157.207,324.046 157.205 C 324.181 157.202,324.618 156.345,325.017 155.300 C 325.416 154.255,325.944 153.199,326.190 152.953 C 326.436 152.707,326.891 151.717,327.202 150.753 C 327.512 149.789,327.929 148.887,328.127 148.749 C 328.876 148.228,328.955 144.834,328.224 144.554 C 327.070 144.111,325.736 145.167,325.209 146.940 C 324.937 147.853,324.194 149.717,323.557 151.083 C 322.921 152.449,322.400 153.754,322.400 153.983 C 322.400 154.212,322.232 154.400,322.027 154.400 C 321.822 154.400,321.527 154.805,321.372 155.300 C 321.217 155.795,320.575 156.952,319.945 157.872 C 319.315 158.792,318.800 159.730,318.800 159.958 C 318.800 160.186,318.440 160.565,318.000 160.800 C 317.560 161.035,317.200 161.473,317.200 161.771 C 317.200 162.225,316.399 162.800,315.767 162.800 C 315.461 162.800,315.595 161.269,315.913 161.133 C 316.086 161.060,316.553 158.390,316.952 155.200 C 317.351 152.010,317.810 149.310,317.973 149.200 C 318.322 148.963,319.604 139.575,319.592 137.345 C 319.569 133.173,317.528 128.400,315.767 128.400 C 315.492 128.400,315.192 128.176,315.101 127.903 C 314.870 127.209,309.133 127.206,308.901 127.900 C 308.809 128.175,308.523 128.400,308.267 128.400 C 307.689 128.401,305.028 131.146,304.680 132.100 C 304.540 132.485,304.267 132.800,304.073 132.800 C 303.880 132.800,303.382 133.565,302.968 134.500 C 302.553 135.435,302.023 136.401,301.789 136.647 C 301.554 136.893,301.109 137.883,300.798 138.847 C 300.488 139.811,300.118 140.690,299.976 140.800 C 299.834 140.910,299.398 141.990,299.006 143.200 C 298.615 144.410,298.154 145.580,297.983 145.800 C 297.812 146.020,297.386 147.303,297.038 148.651 C 296.689 149.999,296.134 151.619,295.804 152.251 C 295.475 152.883,295.204 153.715,295.202 154.100 C 295.201 154.485,295.007 154.800,294.770 154.800 C 294.476 154.800,294.382 152.715,294.470 148.188 C 294.619 140.587,294.724 140.816,291.082 140.806 C 288.069 140.798,286.803 141.884,286.794 144.482 C 286.790 145.564,286.663 146.004,286.452 145.670 C 285.575 144.287,283.456 145.293,282.812 147.400 C 282.475 148.500,282.081 149.582,281.936 149.804 C 281.791 150.026,281.375 151.354,281.012 152.755 C 280.649 154.156,280.121 155.684,279.839 156.151 C 279.557 156.618,279.089 157.765,278.799 158.700 C 278.509 159.635,278.135 160.400,277.967 160.400 C 277.799 160.400,277.458 161.019,277.208 161.775 C 276.104 165.122,272.735 167.222,271.721 165.196 C 271.151 164.057,271.460 155.971,272.090 155.559 C 272.645 155.194,272.975 142.022,272.462 140.721 C 270.914 136.800,264.290 138.371,262.809 143.011 C 262.530 143.885,262.127 144.940,261.913 145.355 C 261.699 145.771,261.400 148.773,261.249 152.027 C 261.038 156.595,260.829 158.110,260.334 158.672 C 259.982 159.072,259.308 160.120,258.836 161.000 C 257.408 163.667,256.356 165.337,255.354 166.528 C 254.829 167.151,254.400 167.828,254.400 168.031 C 254.400 168.899,253.191 168.304,252.943 167.314 C 252.583 165.883,253.567 157.881,254.148 157.515 C 254.456 157.320,254.600 154.973,254.600 150.115 L 254.600 143.000 253.401 141.663 C 251.028 139.017,242.830 140.758,242.804 143.913 C 242.802 144.194,242.530 144.529,242.200 144.655 C 241.870 144.782,241.231 145.631,240.780 146.543 C 237.504 153.165,237.400 153.150,237.400 146.047 C 237.400 138.268,237.180 137.194,235.130 134.970 C 231.217 130.725,222.802 131.876,220.756 136.936 C 220.475 137.631,220.082 138.312,219.882 138.449 C 219.426 138.761,218.415 142.990,218.406 144.620 C 218.403 145.291,218.226 146.014,218.013 146.227 C 217.801 146.439,217.467 149.310,217.272 152.607 L 216.917 158.600 216.859 151.890 L 216.800 145.180 215.718 144.769 C 214.290 144.226,211.611 144.694,211.307 145.540 C 211.177 145.903,210.755 146.655,210.370 147.212 C 209.986 147.769,209.395 149.282,209.057 150.575 C 208.719 151.868,208.288 153.033,208.099 153.163 C 207.909 153.293,207.501 154.030,207.192 154.800 C 206.882 155.570,206.213 156.817,205.704 157.571 C 205.196 158.325,204.675 159.360,204.546 159.871 C 204.418 160.382,204.148 160.800,203.947 160.800 C 203.745 160.800,203.404 161.262,203.190 161.827 C 202.975 162.392,202.349 163.444,201.800 164.165 C 201.250 164.886,200.800 165.607,200.800 165.769 C 200.800 166.547,198.494 168.334,198.055 167.895 C 197.538 167.378,197.425 162.800,197.929 162.800 C 198.110 162.800,198.595 160.010,199.006 156.600 C 199.418 153.190,199.900 150.400,200.077 150.400 C 200.255 150.400,200.400 147.700,200.400 144.400 C 200.400 141.100,200.240 138.400,200.045 138.400 C 199.849 138.400,199.574 137.788,199.434 137.040 C 198.771 133.507,192.518 133.409,190.089 136.893 C 188.246 139.536,187.358 141.033,186.820 142.400 C 186.516 143.170,186.060 144.070,185.805 144.400 C 185.551 144.730,185.101 145.765,184.807 146.700 C 184.513 147.635,184.128 148.400,183.951 148.400 C 183.775 148.400,183.432 149.138,183.189 150.040 C 182.503 152.588,182.339 151.658,182.786 147.756 C 183.635 140.348,183.095 126.400,181.959 126.400 C 181.762 126.400,181.600 126.158,181.600 125.861 C 181.600 125.087,180.404 122.800,179.999 122.800 C 179.811 122.800,179.344 122.487,178.962 122.104 C 178.245 121.388,173.271 120.935,172.018 121.472 M266.800 122.200 C 266.526 122.530,266.086 122.800,265.822 122.800 C 264.065 122.800,263.095 128.825,264.500 131.011 C 266.064 133.444,270.695 133.822,271.408 131.575 C 271.543 131.149,271.813 130.800,272.008 130.800 C 273.382 130.800,273.585 124.057,272.254 122.621 C 271.129 121.406,267.680 121.140,266.800 122.200 M142.073 142.100 C 143.272 143.781,143.761 153.010,142.673 153.427 C 141.581 153.847,138.241 151.126,137.292 149.043 C 135.269 144.601,139.487 138.475,142.073 142.100 M133.135 153.800 C 133.804 154.810,137.447 157.210,138.656 157.437 C 139.395 157.576,140.000 157.837,140.000 158.018 C 140.000 158.199,140.495 158.404,141.100 158.473 L 142.200 158.600 140.404 160.346 C 137.738 162.939,134.152 163.779,133.217 162.031 C 132.990 161.608,132.493 160.950,132.110 160.568 C 131.561 160.018,131.384 158.986,131.264 155.636 L 131.113 151.400 131.992 152.400 C 132.475 152.950,132.989 153.580,133.135 153.800 M228.000 179.106 C 226.350 179.445,224.910 179.841,224.800 179.986 C 224.690 180.131,223.609 180.466,222.398 180.732 C 221.186 180.997,219.733 181.453,219.168 181.746 C 218.604 182.039,216.805 182.601,215.171 182.994 C 213.537 183.388,211.972 183.889,211.693 184.109 C 210.916 184.723,203.907 184.714,203.701 184.100 C 203.383 183.151,201.600 184.072,201.600 185.186 C 201.600 186.058,202.906 187.600,203.646 187.600 C 204.061 187.600,204.400 187.780,204.400 188.000 C 204.400 188.220,205.131 188.400,206.024 188.400 L 207.648 188.400 207.433 191.100 C 206.837 198.554,206.795 202.749,207.206 213.400 C 207.453 219.780,207.822 225.171,208.027 225.380 C 208.232 225.589,208.400 226.494,208.400 227.392 C 208.400 229.828,209.586 238.940,209.935 239.186 C 210.102 239.304,210.475 240.660,210.764 242.200 C 211.760 247.509,214.231 251.190,216.800 251.194 C 218.560 251.196,221.200 250.480,221.200 250.000 C 221.200 249.801,221.875 249.321,222.700 248.934 C 223.525 248.547,224.401 248.035,224.647 247.797 C 224.893 247.558,225.883 247.109,226.847 246.798 C 227.811 246.488,228.709 246.077,228.843 245.885 C 228.977 245.693,230.552 245.546,232.343 245.558 L 235.600 245.579 235.600 244.222 C 235.600 241.701,235.451 241.600,231.757 241.600 C 229.911 241.600,228.400 241.754,228.400 241.943 C 228.400 243.035,219.247 243.276,218.647 242.200 C 218.401 241.760,218.084 241.310,217.942 241.200 C 217.105 240.552,216.608 232.219,216.733 220.927 L 216.800 214.855 220.000 214.576 C 221.760 214.422,223.200 214.140,223.200 213.948 C 223.200 213.757,224.904 213.600,226.986 213.600 C 230.320 213.600,230.821 213.508,231.186 212.826 C 231.839 211.606,231.701 209.214,230.962 208.930 C 230.033 208.574,218.294 209.620,217.680 210.114 C 217.256 210.454,217.211 209.652,217.439 205.766 C 217.592 203.145,217.851 200.910,218.014 200.800 C 218.177 200.690,218.434 197.720,218.585 194.200 C 218.888 187.144,219.004 186.400,219.794 186.400 C 220.090 186.400,220.393 186.228,220.467 186.018 C 220.540 185.807,222.040 185.324,223.800 184.944 C 225.560 184.564,227.093 184.119,227.206 183.955 C 227.903 182.946,234.413 183.097,235.384 184.145 C 237.303 186.216,240.800 184.845,240.800 182.022 C 240.800 178.607,235.881 177.486,228.000 179.106 M78.337 181.500 C 76.642 182.908,75.383 184.336,74.723 185.600 C 74.435 186.150,74.012 186.801,73.781 187.047 C 73.551 187.293,73.109 188.283,72.798 189.247 C 72.488 190.211,72.118 191.090,71.976 191.200 C 71.834 191.310,71.406 192.390,71.024 193.600 C 70.642 194.810,70.079 196.360,69.773 197.044 C 69.466 197.728,69.009 199.258,68.757 200.444 C 68.505 201.630,68.167 202.690,68.006 202.800 C 67.845 202.910,67.399 204.440,67.013 206.200 C 66.628 207.960,66.182 209.580,66.021 209.800 C 65.861 210.020,65.415 211.820,65.031 213.800 C 64.647 215.780,64.175 217.760,63.983 218.200 C 63.790 218.640,63.328 220.620,62.957 222.600 C 62.586 224.580,62.136 226.389,61.958 226.621 C 61.780 226.852,61.416 228.358,61.151 229.967 C 60.834 231.882,60.398 233.143,59.887 233.619 C 58.619 234.800,51.712 235.361,47.300 234.640 L 45.200 234.297 45.200 235.939 C 45.200 238.645,46.168 239.013,53.086 238.938 L 58.796 238.875 58.543 239.938 C 58.404 240.522,58.158 241.180,57.997 241.400 C 57.836 241.620,57.481 242.790,57.207 244.000 C 56.934 245.210,56.486 246.560,56.212 247.000 C 55.938 247.440,55.400 248.880,55.017 250.200 C 54.634 251.520,54.202 252.690,54.058 252.800 C 53.914 252.910,53.549 253.720,53.248 254.600 C 52.406 257.062,48.825 264.692,46.865 268.200 C 42.976 275.164,42.709 275.767,42.501 278.064 L 42.289 280.400 43.741 280.400 C 45.245 280.400,47.200 279.124,47.200 278.142 C 47.200 277.859,47.560 277.435,48.000 277.200 C 48.440 276.965,48.800 276.600,48.800 276.389 C 48.800 276.059,49.711 274.732,52.210 271.419 C 52.535 270.989,52.800 270.438,52.800 270.194 C 52.800 269.950,53.115 269.392,53.500 268.953 C 54.299 268.043,57.056 262.653,57.415 261.300 C 57.546 260.805,57.802 260.400,57.984 260.400 C 58.165 260.400,58.637 259.320,59.032 258.000 C 59.428 256.680,59.874 255.600,60.024 255.600 C 60.173 255.600,60.526 254.745,60.807 253.700 C 61.088 252.655,61.635 251.080,62.023 250.200 C 62.411 249.320,62.960 247.475,63.244 246.100 C 63.528 244.725,63.881 243.600,64.029 243.600 C 64.177 243.600,64.617 242.081,65.006 240.226 L 65.714 236.851 67.257 236.590 C 68.106 236.447,68.800 236.190,68.800 236.020 C 68.800 235.850,70.735 235.401,73.100 235.023 C 75.465 234.644,77.713 234.169,78.095 233.967 C 80.119 232.897,80.302 233.245,80.576 238.700 C 81.108 249.274,81.630 255.404,82.008 255.533 C 82.224 255.607,82.400 256.170,82.400 256.784 C 82.400 261.467,91.564 268.926,94.759 266.844 C 95.491 266.367,95.072 263.588,94.168 262.927 C 92.517 261.720,90.447 255.861,90.414 252.300 C 90.406 251.475,90.220 250.800,90.000 250.800 C 89.743 250.800,89.600 246.808,89.600 239.624 C 89.600 232.604,89.749 228.355,90.000 228.200 C 90.496 227.893,90.556 195.200,90.060 195.200 C 89.874 195.200,89.613 193.426,89.481 191.257 C 89.192 186.523,88.582 183.889,87.559 182.963 C 87.141 182.585,86.799 182.079,86.797 181.838 C 86.785 180.101,80.332 179.843,78.337 181.500 M172.200 182.682 C 171.510 182.845,169.837 184.424,168.106 186.547 C 167.835 186.881,167.307 187.929,166.934 188.877 C 166.560 189.824,166.148 190.690,166.017 190.800 C 165.686 191.077,164.400 195.322,164.400 196.135 C 164.400 196.501,164.231 196.800,164.025 196.800 C 163.818 196.800,163.528 197.606,163.381 198.590 C 163.131 200.253,163.012 200.399,161.692 200.647 C 159.710 201.019,151.927 200.529,151.608 200.012 C 150.946 198.941,147.108 199.336,146.704 200.517 C 145.905 202.853,147.628 204.800,150.492 204.800 C 151.786 204.800,151.852 204.866,151.685 206.000 C 151.580 206.720,151.687 207.200,151.955 207.200 C 152.200 207.200,152.400 207.564,152.400 208.009 C 152.400 208.483,152.813 209.006,153.400 209.273 C 154.407 209.731,154.956 212.800,154.032 212.800 C 153.412 212.800,153.082 215.176,153.614 215.816 C 156.224 218.962,159.671 213.525,159.005 207.310 L 158.736 204.800 160.168 204.800 C 160.956 204.800,161.600 204.935,161.600 205.100 C 161.600 205.265,161.330 206.811,161.000 208.535 C 160.670 210.260,160.400 212.360,160.400 213.202 C 160.400 214.044,160.190 214.803,159.934 214.889 C 159.237 215.121,159.205 242.564,159.900 243.260 C 160.175 243.535,160.400 244.376,160.400 245.129 C 160.400 247.252,161.621 254.966,161.994 255.196 C 162.177 255.309,162.452 256.071,162.606 256.889 C 162.759 257.708,163.406 259.198,164.042 260.202 C 164.679 261.206,165.200 262.202,165.200 262.414 C 165.200 262.626,165.346 262.800,165.525 262.800 C 165.703 262.800,166.238 263.163,166.714 263.606 C 168.461 265.233,170.956 265.668,171.843 264.500 C 173.001 262.975,172.346 261.412,170.435 261.138 C 169.701 261.033,169.319 260.570,168.835 259.200 C 168.486 258.210,168.090 257.310,167.956 257.200 C 166.104 255.687,166.174 213.535,168.030 212.867 C 168.233 212.793,168.400 212.264,168.400 211.690 C 168.400 211.116,168.695 208.994,169.056 206.975 L 169.711 203.304 173.956 202.788 C 176.290 202.504,178.319 202.090,178.465 201.869 C 178.965 201.108,192.807 201.324,194.200 202.115 C 194.860 202.489,195.527 202.796,195.682 202.798 C 195.837 202.799,196.414 203.250,196.964 203.800 C 199.732 206.568,204.384 203.240,202.168 200.076 C 200.542 197.754,198.659 197.397,188.263 197.437 C 182.262 197.460,178.628 197.625,178.463 197.881 C 178.318 198.105,176.680 198.419,174.823 198.579 C 172.034 198.818,171.518 198.775,171.863 198.334 C 172.093 198.040,172.614 196.855,173.020 195.700 C 173.426 194.545,173.886 193.600,174.042 193.600 C 174.198 193.600,174.646 192.565,175.038 191.300 C 175.430 190.035,175.862 188.910,175.998 188.800 C 176.391 188.482,177.145 186.332,177.422 184.734 C 177.782 182.657,175.726 181.849,172.200 182.682 M81.206 196.776 C 81.215 207.722,80.329 228.155,79.831 228.489 C 79.594 228.649,78.410 228.985,77.200 229.236 C 75.990 229.488,74.910 229.817,74.800 229.969 C 74.690 230.120,72.937 230.611,70.905 231.060 L 67.210 231.877 67.466 230.238 C 67.606 229.337,67.842 228.510,67.989 228.400 C 68.136 228.290,68.587 226.220,68.993 223.800 C 69.398 221.380,69.853 219.310,70.003 219.200 C 70.153 219.090,70.602 217.290,71.000 215.200 C 71.398 213.110,71.843 211.310,71.989 211.200 C 72.134 211.090,72.585 209.380,72.991 207.400 C 73.397 205.420,73.840 203.710,73.976 203.600 C 74.112 203.490,74.563 202.050,74.978 200.400 C 75.394 198.750,75.855 197.310,76.003 197.200 C 76.151 197.090,76.598 195.785,76.995 194.300 C 77.393 192.815,77.860 191.600,78.032 191.600 C 78.205 191.600,78.470 191.195,78.620 190.700 C 80.102 185.837,81.199 188.414,81.206 196.776 M350.400 193.959 C 350.070 194.130,349.260 194.535,348.600 194.858 L 347.400 195.446 347.466 199.541 C 347.507 202.058,347.718 203.861,348.015 204.218 C 348.281 204.538,348.323 204.800,348.108 204.800 C 347.894 204.800,347.614 206.292,347.485 208.116 C 347.219 211.889,346.383 216.902,345.970 217.200 C 345.818 217.310,345.476 218.453,345.210 219.740 C 344.944 221.027,344.293 222.943,343.763 223.998 C 343.233 225.053,342.800 226.057,342.800 226.230 C 342.800 226.403,342.215 227.410,341.500 228.469 C 338.722 232.583,335.158 232.860,334.580 229.008 C 334.431 228.013,334.150 227.200,333.955 227.200 C 333.760 227.200,333.600 225.040,333.600 222.400 C 333.600 219.467,333.756 217.600,334.000 217.600 C 334.220 217.600,334.400 217.162,334.400 216.626 C 334.400 215.183,335.574 209.866,335.947 209.616 C 337.172 208.797,337.468 203.649,336.371 202.254 C 334.643 200.057,329.897 201.815,328.713 205.091 C 328.452 205.811,328.117 206.400,327.968 206.400 C 327.628 206.400,326.400 211.222,326.400 212.559 C 326.400 213.105,326.220 213.664,326.000 213.800 C 325.771 213.942,325.600 216.004,325.600 218.624 C 325.600 221.408,325.757 223.200,326.000 223.200 C 326.220 223.200,326.402 223.605,326.405 224.100 C 326.412 225.395,327.496 229.287,327.927 229.565 C 328.128 229.694,328.418 230.202,328.571 230.693 C 330.852 238.003,344.402 236.488,347.253 228.605 C 347.532 227.832,347.900 227.200,348.069 227.200 C 348.239 227.200,348.674 226.165,349.037 224.900 C 349.400 223.635,349.835 222.420,350.005 222.200 C 350.175 221.980,350.402 221.440,350.511 221.000 C 350.619 220.560,350.727 222.450,350.752 225.200 C 350.796 230.118,350.777 230.230,349.600 232.000 C 348.942 232.990,348.403 234.025,348.402 234.300 C 348.401 234.575,348.255 234.800,348.077 234.800 C 347.899 234.800,347.424 235.565,347.022 236.500 C 346.619 237.435,346.074 238.470,345.810 238.800 C 345.547 239.130,345.092 240.030,344.800 240.800 C 344.508 241.570,344.060 242.470,343.805 242.800 C 343.551 243.130,343.101 244.165,342.807 245.100 C 342.513 246.035,342.156 246.800,342.015 246.800 C 341.874 246.800,341.422 247.745,341.012 248.900 C 340.602 250.055,340.137 251.090,339.980 251.200 C 339.823 251.310,339.391 252.296,339.021 253.390 C 338.651 254.485,338.204 255.565,338.027 255.790 C 337.850 256.016,337.385 257.190,336.994 258.400 C 336.602 259.610,336.157 260.690,336.005 260.800 C 335.852 260.910,335.411 262.260,335.023 263.800 C 334.636 265.340,334.167 266.960,333.982 267.400 C 332.575 270.741,333.465 275.033,335.656 275.471 C 336.285 275.597,336.800 275.858,336.800 276.050 C 336.800 276.507,339.726 276.505,340.220 276.048 C 340.429 275.855,341.306 275.471,342.170 275.194 C 344.069 274.586,348.066 270.627,349.065 268.363 C 349.444 267.503,349.871 266.800,350.014 266.800 C 350.156 266.800,350.608 265.675,351.017 264.300 C 351.427 262.925,351.907 261.698,352.084 261.574 C 352.261 261.450,352.711 259.920,353.083 258.174 C 353.455 256.428,353.897 254.904,354.064 254.787 C 354.231 254.669,354.678 252.329,355.057 249.587 C 355.437 246.844,355.876 244.510,356.034 244.400 C 356.192 244.290,356.622 240.983,356.990 237.052 C 357.543 231.143,357.793 229.760,358.430 229.076 C 358.853 228.621,359.200 228.112,359.200 227.945 C 359.200 227.777,359.740 226.840,360.400 225.862 C 361.060 224.884,361.600 223.885,361.600 223.642 C 361.600 223.399,361.753 223.200,361.939 223.200 C 362.126 223.200,362.618 222.435,363.032 221.500 C 363.447 220.565,364.035 219.541,364.340 219.224 C 364.645 218.908,365.071 218.143,365.286 217.524 C 365.502 216.906,365.841 216.400,366.039 216.400 C 366.238 216.400,366.400 216.212,366.400 215.983 C 366.400 215.754,366.940 214.412,367.600 213.000 C 369.142 209.702,369.163 208.798,367.700 208.806 C 366.061 208.815,363.486 211.609,362.629 214.309 C 362.473 214.799,362.219 215.200,362.064 215.200 C 361.909 215.200,361.428 215.875,360.995 216.700 C 360.562 217.525,360.005 218.331,359.756 218.491 C 359.508 218.650,359.079 219.325,358.804 219.991 C 357.909 222.152,357.730 221.314,357.468 213.700 C 357.197 205.812,356.537 199.138,355.995 198.799 C 355.818 198.689,355.541 197.891,355.378 197.026 C 354.885 194.396,352.448 192.895,350.400 193.959 M256.870 198.240 C 255.699 198.817,254.645 199.539,254.527 199.845 C 254.410 200.150,254.060 200.400,253.749 200.400 C 253.437 200.400,252.978 200.850,252.727 201.400 C 252.477 201.950,252.125 202.400,251.946 202.400 C 251.767 202.400,251.321 202.985,250.954 203.700 C 250.588 204.415,250.162 205.090,250.008 205.200 C 249.853 205.310,249.397 206.300,248.994 207.400 C 248.592 208.500,248.109 209.604,247.921 209.853 C 245.583 212.958,246.013 227.310,248.545 230.662 C 252.291 235.623,262.211 234.350,265.220 228.522 C 265.539 227.905,266.005 227.220,266.256 227.000 C 266.507 226.780,266.938 225.880,267.214 225.000 C 267.490 224.120,267.838 223.310,267.988 223.200 C 268.138 223.090,268.547 222.010,268.898 220.800 L 269.535 218.600 269.568 221.100 C 269.585 222.475,269.753 223.600,269.940 223.600 C 270.126 223.600,270.387 225.355,270.519 227.500 C 270.774 231.635,271.476 235.600,271.953 235.600 C 272.110 235.600,272.459 236.209,272.728 236.953 C 273.597 239.354,280.400 242.091,280.400 240.039 C 280.400 239.841,280.940 239.490,281.599 239.260 C 282.258 239.030,283.007 238.383,283.263 237.821 C 283.519 237.260,283.871 236.800,284.045 236.800 C 284.220 236.800,284.679 236.125,285.066 235.300 C 285.453 234.475,285.965 233.599,286.203 233.353 C 286.442 233.107,286.891 232.117,287.202 231.153 C 287.512 230.189,287.904 229.302,288.072 229.183 C 288.241 229.064,288.698 227.714,289.089 226.183 C 289.480 224.652,289.935 223.340,290.100 223.267 C 290.265 223.193,290.400 222.799,290.400 222.390 C 290.400 220.976,291.073 221.248,293.405 223.605 C 295.635 225.859,295.716 226.009,295.074 226.718 C 294.703 227.128,294.400 227.582,294.400 227.728 C 294.400 227.873,293.590 228.755,292.600 229.686 C 291.610 230.618,290.800 231.615,290.800 231.903 C 290.800 232.190,290.553 232.520,290.250 232.636 C 289.948 232.752,289.368 233.602,288.961 234.524 C 288.555 235.446,288.056 236.317,287.852 236.460 C 287.649 236.603,287.396 238.511,287.290 240.700 L 287.099 244.680 288.892 246.552 C 289.878 247.581,291.294 248.598,292.040 248.811 C 294.944 249.644,303.174 249.078,303.526 248.021 C 303.603 247.790,303.915 247.600,304.218 247.600 C 305.362 247.600,308.328 244.170,309.024 242.042 C 310.128 238.668,309.421 228.300,308.013 227.200 C 307.872 227.090,307.365 226.237,306.887 225.304 L 306.017 223.607 307.108 222.909 C 307.709 222.525,308.439 221.982,308.731 221.703 C 309.023 221.423,309.588 221.021,309.986 220.808 C 314.055 218.630,317.831 213.761,316.549 212.344 C 315.445 211.124,314.611 211.463,311.736 214.300 C 310.231 215.785,307.752 217.842,306.226 218.871 C 303.030 221.027,303.103 221.044,300.044 217.381 C 299.134 216.291,298.122 215.115,297.795 214.766 C 297.468 214.418,297.200 214.009,297.200 213.858 C 297.200 213.707,296.739 212.886,296.176 212.035 C 294.121 208.930,294.443 204.456,296.822 203.051 C 299.256 201.613,300.691 203.568,298.400 205.200 C 296.848 206.305,296.667 208.564,298.100 208.948 C 302.637 210.164,305.200 208.271,305.200 203.703 C 305.200 196.023,291.207 197.309,288.857 205.204 C 288.563 206.192,288.160 207.313,287.961 207.695 C 287.441 208.694,287.507 214.296,288.043 214.626 C 288.366 214.826,288.366 214.974,288.043 215.173 C 287.800 215.324,287.300 216.966,286.932 218.823 C 286.564 220.681,286.143 222.290,285.996 222.400 C 285.848 222.510,285.395 223.860,284.988 225.400 C 284.582 226.940,284.139 228.290,284.004 228.400 C 283.869 228.510,283.423 229.495,283.013 230.588 C 282.602 231.682,282.116 232.762,281.933 232.988 C 281.750 233.215,281.251 233.850,280.825 234.400 C 279.956 235.522,278.731 235.190,278.454 233.757 C 278.373 233.341,278.103 232.871,277.854 232.714 C 277.219 232.314,277.318 214.022,277.956 213.627 C 278.241 213.451,278.502 211.065,278.662 207.174 L 278.917 201.000 277.823 199.700 C 275.791 197.285,269.630 197.982,269.588 200.631 C 269.576 201.372,269.559 201.371,269.124 200.600 C 267.146 197.099,261.422 195.997,256.870 198.240 M265.681 203.100 C 267.620 205.342,267.692 213.507,265.800 216.596 C 265.529 217.038,265.080 218.255,264.802 219.300 C 264.524 220.345,264.175 221.200,264.027 221.200 C 263.879 221.200,263.434 222.100,263.039 223.200 C 262.643 224.300,262.187 225.200,262.024 225.200 C 261.862 225.200,261.385 225.914,260.964 226.787 C 259.650 229.516,256.400 230.531,256.400 228.213 C 256.400 227.656,256.220 227.200,256.000 227.200 C 255.760 227.200,255.600 225.600,255.600 223.200 C 255.600 220.800,255.760 219.200,256.000 219.200 C 256.220 219.200,256.399 218.615,256.397 217.900 C 256.394 216.092,257.671 209.600,258.031 209.600 C 258.193 209.600,258.637 208.610,259.018 207.400 C 259.398 206.190,259.869 205.200,260.065 205.200 C 260.260 205.200,260.593 204.745,260.804 204.189 C 261.454 202.480,264.548 201.789,265.681 203.100 M95.976 207.857 C 91.383 210.709,92.494 218.393,97.500 218.398 C 98.435 218.399,99.200 218.241,99.200 218.047 C 99.200 217.852,99.558 217.600,99.995 217.485 C 100.433 217.371,100.973 216.765,101.195 216.139 C 101.418 215.512,101.780 214.687,102.000 214.305 C 102.566 213.322,102.497 209.651,101.900 208.985 C 101.625 208.679,101.168 208.152,100.884 207.814 C 100.205 207.005,97.307 207.031,95.976 207.857 M136.600 213.239 C 134.296 214.587,131.363 218.453,129.346 222.800 C 128.785 224.010,128.097 225.450,127.817 226.000 C 127.538 226.550,127.181 227.534,127.025 228.186 C 126.869 228.838,126.406 230.109,125.996 231.009 C 125.586 231.909,125.030 233.535,124.760 234.623 C 124.491 235.710,124.145 236.690,123.993 236.800 C 123.840 236.910,123.528 237.720,123.299 238.600 C 122.959 239.906,122.875 238.983,122.841 233.589 C 122.794 226.056,122.610 225.600,119.618 225.600 C 116.959 225.600,115.200 226.938,115.200 228.959 C 115.200 230.615,115.181 230.637,113.900 230.507 C 112.047 230.319,111.708 230.693,110.911 233.817 C 110.520 235.348,110.102 236.690,109.983 236.800 C 109.864 236.910,109.518 237.810,109.214 238.800 C 108.910 239.790,108.152 241.717,107.531 243.083 C 106.909 244.449,106.400 245.754,106.400 245.983 C 106.400 246.212,106.232 246.400,106.027 246.400 C 105.822 246.400,105.537 246.769,105.394 247.220 C 105.003 248.452,102.937 250.400,102.021 250.400 C 100.822 250.400,100.636 248.978,101.034 242.838 C 101.681 232.841,101.521 225.416,100.638 224.441 C 98.878 222.498,93.917 224.065,92.759 226.929 C 92.477 227.628,92.111 228.294,91.946 228.409 C 90.520 229.406,90.575 247.200,92.004 247.200 C 92.173 247.200,92.434 247.875,92.585 248.700 C 93.117 251.605,96.054 255.600,97.658 255.600 C 98.066 255.600,98.400 255.780,98.400 256.000 C 98.400 256.220,98.940 256.400,99.600 256.400 C 100.260 256.400,100.800 256.220,100.800 256.000 C 100.800 255.780,101.079 255.600,101.420 255.600 C 102.466 255.600,104.319 254.459,105.740 252.940 C 107.881 250.651,108.242 250.195,109.045 248.763 C 109.460 248.021,109.988 247.210,110.219 246.960 C 110.449 246.710,110.883 245.762,111.183 244.853 C 111.483 243.944,111.874 243.200,112.053 243.200 C 112.231 243.200,112.674 242.165,113.037 240.900 C 113.400 239.635,113.851 238.406,114.040 238.169 C 114.229 237.931,114.534 237.031,114.717 236.169 C 115.030 234.699,115.068 234.800,115.327 237.777 C 115.479 239.525,115.752 241.055,115.934 241.177 C 116.116 241.300,116.503 242.540,116.794 243.933 C 117.085 245.326,117.531 246.676,117.784 246.933 C 118.037 247.190,118.365 247.718,118.512 248.106 C 119.601 250.982,123.903 249.130,125.190 245.231 C 125.486 244.334,125.861 243.600,126.024 243.600 C 126.187 243.600,126.538 242.655,126.805 241.500 C 127.072 240.345,127.534 239.010,127.833 238.533 C 128.131 238.056,128.674 236.346,129.039 234.733 C 129.404 233.120,129.841 231.710,130.011 231.600 C 130.181 231.490,130.630 230.320,131.009 229.000 C 131.387 227.680,131.835 226.420,132.003 226.200 C 132.172 225.980,132.633 224.765,133.028 223.500 C 133.423 222.235,133.898 221.200,134.083 221.200 C 134.268 221.200,134.596 220.738,134.811 220.172 C 136.042 216.934,137.746 220.113,137.399 225.000 C 136.981 230.884,136.277 236.996,135.972 237.400 C 134.728 239.046,135.160 250.827,136.540 252.880 C 137.446 254.229,141.600 255.165,141.600 254.021 C 141.600 253.789,141.840 253.600,142.133 253.600 C 142.803 253.600,145.600 250.837,145.600 250.176 C 145.600 249.906,145.873 249.581,146.206 249.453 C 146.539 249.325,146.985 248.766,147.196 248.210 C 147.407 247.655,147.738 247.200,147.930 247.200 C 148.122 247.200,148.613 246.390,149.022 245.400 C 149.430 244.410,149.890 243.600,150.043 243.600 C 150.196 243.600,150.494 243.105,150.705 242.500 C 150.916 241.894,151.559 240.706,152.134 239.859 C 152.709 239.012,153.294 237.708,153.434 236.960 C 153.574 236.212,153.835 235.600,154.012 235.600 C 154.521 235.600,155.669 231.746,155.528 230.513 C 155.253 228.122,152.400 229.643,152.400 232.180 C 152.400 232.521,152.256 232.800,152.079 232.800 C 151.902 232.800,151.422 233.745,151.012 234.900 C 150.602 236.055,150.161 237.090,150.033 237.200 C 149.905 237.310,149.403 238.210,148.918 239.200 C 147.624 241.838,146.244 244.180,145.892 244.336 C 145.722 244.411,145.312 244.996,144.981 245.636 C 143.867 247.791,143.122 247.146,143.438 244.300 C 143.590 242.925,143.842 241.710,143.997 241.600 C 144.152 241.490,144.588 239.060,144.966 236.200 C 145.344 233.340,145.867 230.568,146.127 230.040 C 146.945 228.381,146.762 217.907,145.900 217.044 C 145.515 216.658,145.200 216.107,145.200 215.819 C 145.200 213.898,138.772 211.969,136.600 213.239 M300.633 231.417 C 301.476 233.435,301.731 237.243,301.195 239.827 C 299.731 246.879,292.400 247.376,292.400 240.424 C 292.400 238.580,293.494 234.800,294.028 234.800 C 294.246 234.800,294.540 234.485,294.681 234.100 C 294.821 233.715,295.839 232.461,296.943 231.313 C 299.149 229.018,299.636 229.032,300.633 231.417 M350.608 241.100 C 350.452 242.145,350.179 243.180,350.001 243.400 C 349.823 243.620,349.359 245.285,348.970 247.100 C 348.582 248.915,348.145 250.400,347.999 250.400 C 347.853 250.400,347.398 251.750,346.987 253.400 C 346.576 255.050,346.103 256.400,345.935 256.400 C 345.768 256.400,345.437 257.165,345.199 258.100 C 344.557 260.632,341.209 267.751,339.653 269.895 C 338.391 271.632,337.600 271.596,337.600 269.800 C 337.600 269.030,337.747 268.400,337.927 268.400 C 338.107 268.400,338.572 267.050,338.961 265.400 C 339.350 263.750,339.799 262.400,339.958 262.400 C 340.118 262.400,340.572 261.320,340.968 260.000 C 341.363 258.680,341.810 257.600,341.960 257.600 C 342.111 257.600,342.571 256.610,342.982 255.400 C 343.393 254.190,343.881 253.200,344.065 253.200 C 344.249 253.200,344.402 252.885,344.405 252.500 C 344.408 252.115,344.932 250.772,345.569 249.515 C 346.207 248.258,346.938 246.593,347.195 245.815 C 347.452 245.037,347.828 244.400,348.031 244.400 C 348.234 244.400,348.400 244.209,348.400 243.975 C 348.400 243.402,350.402 239.200,350.674 239.200 C 350.793 239.200,350.764 240.055,350.608 241.100 " stroke="none" fill="#040404" fill-rule="evenodd"></path></g></svg>
