<?xml version="1.0" encoding="utf-8"?>
<!-- Generator: Adobe Illustrator 17.1.0, SVG Export Plug-In . SVG Version: 6.00 Build 0)  -->
<!DOCTYPE svg PUBLIC "-//W3C//DTD SVG 1.1//EN" "http://www.w3.org/Graphics/SVG/1.1/DTD/svg11.dtd">
<svg version="1.1" id="Слой_1" xmlns="http://www.w3.org/2000/svg" xmlns:xlink="http://www.w3.org/1999/xlink" width="300" height="200" x="0px" y="0px"
	 viewBox="0 0 452.6 488.8" enable-background="new 0 0 452.6 488.8" xml:space="preserve">
<path fill="#57C0AC" d="M413.8,42.2l-2.3-8.9c-0.5-1.9-2.6-3.1-4.6-2.5L158.5,95.9l209.2-80.6c1.9-0.7,2.8-2.8,2.1-4.6l-3.4-8.5
	c-0.7-1.9-2.9-2.7-4.8-1.9L79.8,116.6l-64.3,16.9c-2,0.5-3.2,2.5-2.7,4.3l0,0.1c0.5,1.9,2.5,3,4.5,2.5l11.8-2.8L2.2,148.5
	c-1.8,0.8-2.7,2.8-2,4.6l0,0.1c0.7,1.8,2.8,2.6,4.6,1.9L85.7,124l325.1-77.4C412.9,46.1,414.2,44.1,413.8,42.2z"/>
<path fill="#57C0AC" d="M248,202c-81.8,0-145.9,23-145.9,52.3c0,35.7,23,83.3,71.4,108.4c2,15.9,36,29.6,74.6,29.6
	c38.7,0,72.7-13.7,74.6-29.7C371,337.6,394,290,394,254.4h-0.1C393.9,225,329.8,202,248,202z"/>
<path fill="#CD7E2C" d="M380.3,263.5c-16.5,17.4-65.8,32.7-132.9,32.7c-67.1,0-116.4-15.3-132.9-32.7c7.2-19.3,57.9-38.8,132.9-38.8
	C322.2,224.7,373.1,244.3,380.3,263.5z"/>
<path fill="#FBDB58" d="M450.5,165.8c-1.8-1.1-4.3-0.7-5.3,0.7c-5.5,7.8-11.5,16.6-17.7,24.1c-4.3,5.2-8.4,9.3-11.7,12.2
	c-1.5,1.3-5,4.1-6.9,2c-1-1.2-0.3-3.8,0.1-5c6-17.5,21-30.2,27.1-47.5c3.2-9.3,4.5-22.8-10.5-27.3c-24.2-7.2-39.9,33-41.1,32.9
	c2.1-6.9,3.9-14,5.3-21.1c1.6-7.9,5.9-25-6-27.3c-7.2-1.4-13.4,2.8-16.5,9.1c-2.1,4.3-3.6,11.5-3.8,17.9c-0.2,0.1-0.3,0.3-0.4,0.5
	c0,0.1-5.8,7.7-12.7,14.9c-4.2,4.4-18.5,18.9-22.3,7.5c-2.6-7.8,1.1-17,2.2-24.8c0.4-3,3.9-3.2,14-10c6.5-4.4,11.1-9.1,11.9-13
	c0.6-2.9-1.4-5.9-5.6-7.6c-9.8-4.1-19.1-0.8-25.9,4c-7.1,5-12.1,13.7-14.3,23.1c-1.1,4-4,14.3-7.6,24.3c-2.3,6.3-5,15.1-10,20
	c-5.3,5.1-4.4-3.9-4.2-6.8c0.4-5.2,4.1-19.3,7-31.5c3.3-14.2,10.4-32.2,6-46.3c-2-6.3-7.3-10.2-14.7-9.5
	c-16.3,1.5-22.9,22.9-25.3,38.2c-0.7,5-1.2,6.1-1.3,4c-0.2-4.8-1.7-9.9-3.3-11.8c-2.2-2.7-7.2-3.5-11.5-1.9
	c-8.6,3.2-11.2,14.3-13,22.1c-0.6-1.5-1.1-3-1.6-4.5c-0.7-1.9-1.3-3.9-1.9-5.8c-2.8-8.3-3.8-15.5-14.4-14.5c-11.2,1-6.9,16.8-5,23.5
	c0.2,0.7,0.4,1.4,0.6,2c-0.1,0.2-0.1,0.5-0.1,0.7c0,0.1-0.9,9.1-2.7,18.8c-1.3,7.2-2.2,10.1-3.6,13.4c-0.7,1.6-2.9,5.1-4.5,4
	c-1.2-0.8-1.8-3.7-2.3-7c-1.1-6.7,0.5-37.3-0.2-43.4c-0.4-2.9-1.8-6.4-4.8-7.6c-1.1-0.4-2.4-0.5-3.6-0.6c-3.4-0.2-6.9-1-10.3-0.7
	c-3.7,0.4-7.3,1.4-10.8,2.7c-9.2,3.4-18,11.2-21.9,19.5c-6.9,14.7,0.2,47.7,22.1,42.6c6.7-1.6,8.1-7.3,9.1-13.3
	c0.1-0.8,0.2-1.2,0.3-2.1c2.1,4.4,4.1,8.9,6.9,12.9c4.4,6.3,13.9,8.2,20.4,4.1c7.7-4.8,9.4-15.8,10.4-24c0.2-2,0.5-4,0.8-5.9
	c3,6.8,7.8,18.1,16.1,19.7c10.7,2.1,8.7-10.3,8.3-16.9c-0.7-11.3-0.5-17.5,1.5-24c0.6-2,1.3-5.4,3.1-6.8c3.6-2.8,2,5.5,1.9,7.5
	c-0.6,7.2-2.3,23.6,6.8,27.1c7.5,2.9,11.1-8.1,12.6-13.3c1.9-6.8,2.8-14,4.7-20.8c1.7-6.2,3.7-12.4,6-18.5c0.6-1.5,6-13,7.5-8.4
	c1,2.9-1.4,7.3-2.2,10.1c-0.9,3.5-1.9,7-2.9,10.4c-6.2,20.2-9.9,37.3-5.9,56c1.6,7.4,5.6,13,11.5,14.8c5.6,1.7,11.7,0.1,16.6-8.2
	c2.7-4.5,5.9-10.6,8.9-18.4c0.5-1.3,1-2.5,1.4-3.8c2.9,8.5,9.2,15.1,19.7,16.5c6.9,1,15.8-4.6,25.7-14.4c2.9-2.9,5.6-5.8,7.8-8.4
	c0.9,7.1,2.6,14.5,4.4,19c2.8,6.7,11.6,13.3,16.1,7.9c7.1-8.4,10.7-21.5,17.8-31.3c3-4.1,7-8.8,11.6-11.1c2.2-1.2,4.6-1.6,5.8,1.1
	c1.7,3.9-2.2,9-4.2,12c-8.9,13.2-19.5,27.5-21.8,43.2c-1.3,8.8,1.3,20.1,10.6,24.1c17.8,7.5,44.2-37.5,47.8-42
	C453.2,169.3,452.3,166.9,450.5,165.8z M332,121.6c2.9-5.3,7.5-10.2,11.8-12.6c1.9-1,1.9-1,2.4-0.5c4.6,4.9-15.8,16.7-15.9,16.6
	C330.3,125.2,331,123.4,332,121.6z M173.3,142.3c-1.8,5.8-3.3,17-5.2,20.9c-0.4,0.7-0.5,1-0.9,1.7c-0.2-0.3-0.2-0.4-0.4-0.6
	c-0.8-1.3-3.3-9.8-3.7-12.2c-0.7-5.2,0.1-13.8,1.5-18c1.7-5.3,4.6-9.2,8.7-12.5c1.1-0.9,2.4-1.3,2.3-0.9
	C173.8,127.6,175.4,135.4,173.3,142.3z"/>
<path fill="#FFFFFF" d="M323.6,275.8c-12.7,9.7-30.4,7.7-39.6-4.4s-6.4-29.7,6.2-39.4c12.7-9.7,44.4-18.8,53.7-6.7
	S336.2,266.1,323.6,275.8z"/>
<ellipse transform="matrix(0.6063 0.7952 -0.7952 0.6063 323.64 -141.4675)" fill="#FBDB58" cx="304.7" cy="256.1" rx="14.9" ry="15.6"/>
<g>
	<path fill="#FBDB58" d="M273.3,240.7c-5.8-4.5-12.8-6.9-19.8-9.1c-0.6-0.2-1.2-0.4-1.8-0.6c-7.6-2.3-15.4-4.8-21.6-9.7
		c-0.9-0.7-1.6-1.4-2.3-2.1c5.8-0.8,11.5-2,16.6-4c13.6-5.2,35.1-32.9,13.2-42.8c-8.3-3.7-19.6-1.4-27.8,1.8
		c-8.7,3.4-16.5,9.3-21.8,17.1c-0.5,0.8-4.9,10.3-4.6,10.3c-13.8-0.6-27.4-2.7-40.7-6.4c-11.8-3.2-23.3-7.7-34.2-13.2
		c-3.7-1.9-10.9-4.3-13.1-8.2c-2.7-4.8,2.3-9.4,4.6-13.1c6.5-10.5,12.7-21.3,17.8-32.6c0.6-1.3,1.2-2.6,1.8-4c0-0.1,0.1-0.1,0.1-0.2
		c1.3-2.9,2.7-6.1,3.8-9.4c0.5-1.6,1-3.3,1.4-4.9c0.9-4.2,1.1-8.4-0.1-12.1c-0.8-2.6-2.1-4.7-3.7-6.5c-1.5-1.6-3.3-2.9-5.3-3.8
		c0,0-0.1,0-0.1,0c-9.3-4.1-20.5-0.8-29.3,3.5c-4.5,2.2-8.8,5-12.8,8.2c-4,3.2-7.9,7-11.1,11c-1.8,2.3-3.6,4.6-5.2,7l2.5-0.7
		c0,0,13.8-5.7,13.8-5.7c0.5-0.2,1.3-1.4,1.7-1.9c0.7-0.7,1.4-1.4,2.1-2c1.4-1.3,3-2.5,4.6-3.5c3.4-2.1,7.4-3.6,11.3-1.8
		c5.3,2.5,7.2,7.8,7.1,14c-0.1,8.6-3.1,17.2-6.4,25.1c-4.3,10.2-9.6,19.5-16.1,28.5c-2.1,2.8-5.8,6.1-3.7,9.8
		c3.6,6.4,11.8,11.3,18.1,14.7c11.5,6,22.2,11.7,34.5,15.6c3.9,1.2,7.7,2.4,11.6,3.5c9.5,2.7,19,5,29,6.2c5.4,0.6,11.2,1.1,17.2,1.3
		c1.5,4,3.9,7.8,7.2,11.2c6.1,6.4,14.5,10.1,22.5,13.9c9.6,4.6,13,6.6,17.2,16.4c1.8,4,3.6,8.2,6.7,11.3c3.5,3.5,8.7,5.3,13.6,4.6
		c4.9-0.7,9.4-3.8,11.6-8.3C288.3,258.9,281.5,247.2,273.3,240.7z M222.4,196.4c1-3.1,2.5-5.3,4.8-7.6c4.7-4.7,11.1-7.7,17.8-8.2
		c0.4,0,0.9,0,1.3,0c3.9,0.4,5.3,4.1,4.6,7.9c-2.3,11.8-20.7,13.6-30.1,13.8C220.4,202.3,222.3,196.8,222.4,196.4z"/>
	<path fill="#FBDB58" d="M70.8,165.2c-0.6-3.4-0.1-7,0.4-10.4c1.2-7.3,3.5-14.4,7-20.9c0-0.1,0.1-0.1,0.1-0.2c0.7-1.4,1.5-2.7,2.3-4
		c0.1-0.1,0.1-0.2,0.2-0.3c0.7-1.2,1.7-2.8,2.8-4.5l-13.6,5.3c-0.4,0.8-0.8,1.7-1.1,2.5c-0.7,1.6-1.4,3.2-2.1,4.9
		c-0.1,0.2-0.1,0.3-0.2,0.5c-0.6,1.5-1.2,3-1.7,4.6c-0.2,0.6-0.4,1.2-0.6,1.9c-0.4,1.2-0.8,2.3-1.1,3.5c-0.5,1.9-1,3.8-1.5,5.8
		c-0.2,1-0.3,1.6-0.4,2.6c-1.1-1.1-1.6-1.7-2.7-2.9c0.7-2,1.4-3.8,2-5.6c0.4-1,0.7-2,1-3c0.2-0.6,0.4-1.2,0.6-1.8
		c1.2-3.7,2.4-7.5,3.3-11.3L54,136.2c-0.5,2.7-1,5.4-2.1,7.9c-0.1,0.3-0.4,0.7-0.7,0.8c-0.4,0.1-0.7-0.3-1-0.7
		c-1.7-2.5-3.5-4.9-5-7.5c-3.1-5.3-4.6-11.9-2-17.7c0.9-2,2.9-5,5.3-5.4c2.1-0.3,4.2,1.1,5.4,2.7c0.6,0.9,0.9,1.8,1,2.9
		c0,0.4,0.4,3.6,0.2,3.7l11.7-3.1c0.2-0.1-0.3-3.4-0.3-3.8c-0.2-1.3-0.5-2.7-1.1-4c-0.7-1.7-2.3-3.5-3.7-4.6
		c-3.2-2.7-7.5-3.4-11.5-2.8c-2.5,0.4-5,1.2-7.2,2.5c-3.7,2-6.9,4.4-9,8.1c-5.1,8.7-1.9,19.4,1.8,28c0.9,2,1.8,4,2.9,5.9
		c0,0.1,0.1,0.1,0.1,0.2c1.1,2.1,2,4.5,3.4,6.4c2.2,3.1,3.5,7,2.8,10.8c-0.6,3.3-1.9,6.4-3.4,9.4c-3.3,6.8-7.6,13.2-12.5,18.9
		c-1.6,1.8-3.2,3.6-5.1,5.1c-2.2,1.6-4.1,1.7-5.7,3c-2.3,1.8-3.5,4.7-2,6.6c2.5,3.2,8.4,0.2,12.4-2.7c11.4-8.5,17.9-22.5,23.7-37.4
		c2.6,3,3.9,4.4,6.4,7.4c-1.4,20.8,2.7,32.9,9.6,43.4c6.5,9.9,15.7,12.3,24.6,6.9c15.1-9,5.9-29.5-3.4-39.3
		c-5.7-6-13.4-10.8-17.3-18.4C71.5,168.1,71,166.7,70.8,165.2z M88.7,220.2c-5.3,3.2-8.9,0-12.2-5.2c-4.7-7.5-8.7-29.4-7.7-29.8
		C68.8,185.2,96.4,215.6,88.7,220.2z"/>
</g>
<path fill="#FFFFFF" d="M234.2,239.6c-7.1,0-13.5,2.3-18.4,6.2c-5.9-11.3-18.6-17.6-31.2-14.5c-3.8,0.9-7.1,2.6-10,4.9
	c-0.8-0.6-1.7-1.2-2.6-1.7c-12.6-7.1-27.9-3.9-34.2,7.3c-6.4,11.2-1.3,26,11.2,33.2c7.1,4,15,4.7,21.7,2.6
	c6.7,7.9,17.2,11.8,27.6,9.2c5.2-1.3,9.6-4,13.1-7.7c5.1,6.3,13.4,10.5,22.8,10.5c15.5,0,28.1-11.2,28.1-25
	C262.3,250.8,249.7,239.6,234.2,239.6z"/>
<path fill="#CD7E2C" d="M165.6,240.2c1.3,0.4,2.6,1,3.7,1.9c0.6-1.3,1.3-2.4,2.3-3.3c-2.8-2.2-6.1-3.7-9.5-4c-4.4-0.3-9,0.5-13,2.4
	c-2.9,1.4-5,3.6-6.8,6.3c-0.2,0.3-0.4,0.6-0.4,1c-0.1,0.4,0,0.8,0.3,1c1,0.7,3.6-2.3,4.4-2.8c2.8-1.8,5.9-3.1,9.2-3.6
	C159.3,238.5,162.2,239.3,165.6,240.2z"/>
<path fill="#CD7E2C" d="M165.6,265.3c-4.2,1-10.9,0.8-12.1-4c-0.4-1.7,1.5-4.3,3.3-4.7c2-0.4,2.2,2.4,4.5,1.8
	c1.9-0.5,3.1-3.1,3.4-4.8c1.3-6.4-8.5-8.1-12.3-5c-2.8,2.3-4.6,4.8-4.8,8.4c-0.2,3.4,1,6.8,3.3,9.3c4.4,4.8,10.6,4.9,16.1,2.6
	C166.4,267.8,165.9,266.6,165.6,265.3z"/>
<path fill="#CD7E2C" d="M206.1,267.6c-0.8,0.9-1.7,1.8-2.8,2.6c-4.3,2.9-10.2,2.9-15,2c-4.2-0.8-11.4-8.2-8-12.4
	c1.5-1.9,4.4-2.5,5.8-0.3c0.8,1.2,0.8,1.8,2.3,2.5c2.5,1.1,5,0.9,7.3-0.5c6.7-3.9,0.3-12.9-5.4-13.5c-7.9-0.8-14.6,3-15.9,11.3
	c-1.9,12.4,11.2,18.4,21.6,17.5c0.3,0,0.6,0,0.8-0.1c4.4-0.5,8.1-2.3,10.9-5C207.1,270.4,206.6,269,206.1,267.6z"/>
<path fill="#CD7E2C" d="M195.3,240.1c3.9,2,7.4,4.8,10.1,8.1c1.5,1.9,2.7,4.2,3.3,6.5c0.9-2,2-4,3.2-5.8c-2.1-4.2-5.5-7.8-9.6-10.3
	c-1.4-0.8-3-1.6-4.7-2.2c-1.7-0.6-15.7-3.8-14.1,0.3C183.6,237,194,239.4,195.3,240.1z"/>
<path fill="#CD7E2C" d="M214,253.1c-3.3,5.3-6.2,13.3-3.5,19.4c0.2,0.5,0.5,1,0.9,1.3c0.4,0.3,1,0.5,1.5,0.3c1-0.4,0.4-3.3,0.5-4.3
	c0.2-2,0.6-4,1.2-6c1-3.5,2.5-7,4.8-9.9c6.4-8.2,25.8-7.9,30.3,3c1.8,4.4,0.3,9.6-1.6,13.6c-1.8,3.7-12.1,8.6-12.5,1.2
	c-0.1-1.7,0.8-1.7,2.2-2.8c2.3-1.9,2.8-4.5,1.9-7.4c-2.2-6.7-12.2-3.1-14.1,1.8c-3.7,9.6,0.9,14.4,10,16.4
	c10.5,2.3,17.1-5.6,18.8-15.1C258.2,242.7,224.2,236.5,214,253.1z"/>
<path fill="#FFFFFF" d="M252.3,379.6c-10.5-2.3-21.3-2.6-31.9-4.5c-12.4-2.2-24-6.3-35.9-10.2c-1.2-0.4-1.7,1.2-0.8,1.9
	c18.1,13.3,46.9,21.3,68.6,13.3C252.6,380,252.6,379.6,252.3,379.6z"/>
<path fill="#FFFFFF" d="M195.8,357c-0.8-0.5-1.6-1-2.4-1.4c-1.3-0.8-2.6-1.6-3.8-2.4c-2.5-1.6-5-3.4-7.4-5.1
	c-11.1-8-18.6-19.4-21.7-32.9c-0.7-2.8-1.1-5.7-1.4-8.7c-0.2-1.9,0.4-4.1-0.7-5.3c-1.7-1.7-5.9-2.6-8.1-3.5c-3.5-1.5-6.8-3.3-10.2-5
	c-2.2-1.1-4.3-2.1-6.5-3.2c-1.7-0.8-3.6-2.2-5.5-2.5c-5.3-0.8-2.4,9.7-1.3,12.1c1.6,3.8,3.9,7.3,6,10.9
	c8.9,14.7,22.2,26.4,36.5,35.6c4.4,2.8,9,5.3,13.8,7.4c1.3,0.6,2.6,1.1,3.8,1.6c3.2,1.2,6.5,2.5,9.8,2.8
	C196.3,357.3,196,357.1,195.8,357z"/>
<g>
	<g>
		<path fill="#CD7E2C" d="M84.6,434.5c1.1,0.2,1.8,1.2,1.7,2.3c-0.1,1.1-1.1,1.6-2.7,1.4c-2.8-0.3-5.7-0.8-8.6-1.4
			c-2.7-0.6-5.6-1.5-8.5-2.6c-2.9-1-5.8-2.4-8.5-4c-2.3-1.4-3.7-3.3-4.4-5.8c-0.6-2.5-0.6-5.3,0.1-8.4c0.7-3.1,2-6.5,3.7-10.1
			c1.8-3.6,3.9-7.3,6.3-11c2.2-3.4,4.5-6.6,6.9-9.8c2.4-3.2,4.7-6,6.7-8.6s3.9-4.6,5.4-6.2c1.5-1.6,2.4-2.5,2.7-2.6
			c0.6-0.2,2.3,0.5,2.7,0.3c0.1-0.1,0.5-0.6,0.9-0.9c0.4-0.2,0.9-0.3,1.3-0.1c2.1,0.9,4.3,1.8,6.7,2.8c2.4,1,4.6,2,6.7,2.9
			c2.1,0.9,4,1.7,5.6,2.4c1.6,0.7,2.7,1.2,3.4,1.4c0.1,0,0.1,0.1,0.2,0.1c0.6,0.3,1,0.7,1.1,1.2c0.1,0.5,0.1,1-0.2,1.4
			c-0.3,0.4-0.6,0.8-1.1,1c-0.5,0.2-1,0.2-1.5,0c-3.4-1.6-6.9-2.9-9.9-4.2c-3-1.3-7.5-3.2-7.5-3.2c0,0,0.1,1.1-0.2,1.5
			c-0.2,0.4-1,1.5-2.3,3.2c-1.3,1.7-2.8,3.8-4.7,6.3c-1.9,2.5-3.9,5.3-6.1,8.4c-2.2,3.1-6.5,8.9-6.3,9.5c0.3,0.8,6.2,2.6,8.2,3.5
			c2.1,0.9,3.7,1.7,4.8,2.2c0.1,0.1,0.2,0.1,0.3,0.1c0.7,0.4,1.1,0.8,1.2,1.3c0.2,0.5,0.1,1-0.2,1.4c-0.3,0.4-0.6,0.7-1.1,0.9
			c-0.5,0.2-1.1,0.2-1.7-0.1c-3.4-1.5-6.2-2.9-8.4-3.8c-2.2-0.9-4.7-2.4-5.1-2.3c-0.8,0.3-2.6,4.6-3.9,7.2c-1.3,2.6-2.4,5.1-3.4,7.4
			c-1,2.3-1.7,4.3-2.1,5.9c-0.4,1.6-0.4,2.6,0,2.9c2.6,1.5,5.2,2.7,7.7,3.5c2.5,0.8,4.9,1.3,6.9,1.7
			C80.1,434.1,82.8,434.2,84.6,434.5z"/>
		<path fill="#CD7E2C" d="M146.4,399.7c-0.1,1.7-0.6,4.6-1.7,8.4c-1.1,3.8-2.5,8.1-4.2,12.9c-1.7,4.8-3.5,9.7-5.5,14.8
			c-2,5.1-3.8,9.8-5.6,14.1c-1.8,4.3-3.3,7.9-4.6,10.7c-1.3,2.9-2.1,4.5-2.3,4.8c-0.4,0.5-1.1,0.7-2.2,0.6c-1.1-0.1-2.1-0.3-3.2-0.6
			c0,0,0,0.1,0,0.1c-0.2,0.3-0.6,0.3-1.2,0.1c-0.5-0.2-1-0.5-1.6-1c-0.5-0.5-1-1-1.5-1.6c-0.3-0.4-0.5-0.8-0.6-1
			c-0.1-0.2-0.3-1.4-0.3-3.3c0.1-2,0.2-4.5,0.4-7.5c0.2-3,0.6-6.4,1-10.2c0.4-3.8,0.9-7.6,1.4-11.5c1.2-9,5.1-30.4,5.1-30.4
			c-0.1,0-3.8,6.5-5.9,10.4c-2.1,3.9-4.2,8-6.2,12.2c-2.1,4.2-4,8.2-5.9,12.3c-1.8,4-3.5,7.6-5,10.8c-1.5,3.2-2.6,5.8-3.5,7.9
			c-0.9,2.1-1.4,3.1-1.6,3.2c-0.3,0.2-0.9,0.3-1.7,0.2c-0.8-0.2-1.6-0.4-2.5-0.8c-0.7-0.3-1.3-0.7-1.8-1.1c-0.6-0.4-0.9-0.9-0.9-1.3
			c0.1-1.9,1.2-5.1,2.8-8.9c1.5-3.9,3.5-8.1,5.8-12.7c2.3-4.6,4.8-9.3,7.4-14.1c2.6-4.8,5.2-9.2,7.5-13.3c2.4-4.1,4.4-7.4,6.2-10.2
			c1.8-2.7,2.9-4.3,3.5-4.7c0.4-0.2,1-0.3,1.9-0.1c0.9,0.2,1.8,0.5,2.7,0.9c0.8,0.3,1.4,0.8,2,1.2c0.6,0.5,0.8,0.9,0.8,1.4
			c0,0.5-0.3,2.3-0.7,5.4c-0.4,3.1-0.9,6.9-1.5,11.3c-0.6,4.4-1.2,9.2-1.9,14.2c-0.7,5-2.1,14-2.1,14c0,0,3.7-8.6,5.8-13.4
			c2.1-4.8,4.1-9.2,6-13.3c1.9-4.1,3.5-7.6,5-10.4c1.4-2.8,2.2-4.3,2.5-4.5c0.4-0.3,0.9-0.4,1.5-0.3c0.6,0,1.3,0.2,2,0.4
			c1.1,0.4,2,1,2.9,1.7C146,398.3,146.4,399,146.4,399.7z"/>
		<path fill="#CD7E2C" d="M187.9,399.3c0.1,0,0.2,0,0.4,0.1c0.9,0.2,1.4,0.6,1.7,1.1c0.3,0.6,0.3,1.2,0.2,1.8
			c-0.1,0.6-0.4,1.1-0.9,1.5c-0.5,0.4-1.1,0.6-1.9,0.5c-2.1-0.3-4.2-0.6-6.2-0.9c-2-0.3-5.5-1-5.7-0.8c-0.1,0.1-0.4,2-1.3,5.1
			c-0.9,3.1-2,6.8-3.4,11.2c-1.4,4.4-2.9,9.1-4.6,14.2c-1.7,5.1-3.2,9.8-4.6,14.3c-1.4,4.4-2.7,8.2-3.7,11.2c-1,3-1.6,4.8-1.7,5.1
			c-0.1,0.4-0.5,0.6-1.1,0.7c-0.7,0.1-1.4,0-2.2-0.2c-1.2-0.3-2.3-0.8-3.3-1.5c-1-0.7-1.6-1.3-1.6-1.9c0.1-5.5,1.7-12,3.3-18.3
			c1.6-6.2,3.4-12.1,5.3-17.6c1.9-5.5,3.7-10.3,5.5-14.5c1.7-4.2,4-8.9,3.9-9.1c-0.1-0.2-2.6-0.3-3.6-0.5c-1.1-0.2-1.9-0.3-2.6-0.3
			c-0.8-0.1-1.6-0.2-2.3-0.3c-0.2-0.1-0.4-0.1-0.6-0.2c-0.7-0.2-1.2-0.6-1.5-1.2c-0.3-0.6-0.3-1.2-0.2-1.8c0.1-0.6,0.4-1.1,0.8-1.6
			c0.4-0.4,1-0.6,1.6-0.6c2.7,0.3,5.8,0.9,9,1.4c3.2,0.5,6.2,0.9,9.1,1.3c2.9,0.4,5.4,0.7,7.6,1C185.6,399,187.1,399.2,187.9,399.3z
			"/>
		<path fill="#CD7E2C" d="M217.9,415.9c0.1,1.1,0,3.5-0.4,7.3c-0.4,3.8-1,8.2-1.7,13.3c-0.7,5.1-1.5,10.5-2.4,16.2
			c-0.9,5.7-1.8,11-2.8,16c-1,5-1.9,9.3-2.7,12.8c-0.8,3.6-1.5,5.8-1.9,6.5c-0.1,0.3-0.5,0.5-1.2,0.7c-0.6,0.1-1.3,0.1-2,0
			c-1.4-0.2-2.3-0.7-2.5-1.5c-0.2-1-0.3-2.5-0.3-4.5c0-2,0.1-4.3,0.3-7c0.2-2.7,0.4-5.6,0.8-8.8s1.6-9.4,1.1-9.9
			c-0.9-1.2-9.3-0.7-11.5-0.7c-2.3,0-4.1-0.1-4.3,0.1c-1,0.9-1.4,6-2.1,8.7c-0.6,2.7-1.2,5.1-1.7,7.2c-0.5,2.1-0.9,3.8-1.2,5.1
			c-0.3,1.3-0.5,2.1-0.5,2.3c-0.1,0.5-0.4,0.8-1.1,0.8c-0.6,0.1-1.4,0-2.2-0.1c-1.1-0.2-2.2-0.7-3.4-1.3c-1.1-0.6-1.8-1.3-1.8-1.9
			c-0.2-4.5,0.7-10.1,1.4-15.4c0.7-5.3,1.7-10.4,2.8-15.4c1.1-5,2.3-9.8,3.5-14.3c1.2-4.5,2.3-8.5,3.3-11.9c1-3.4,1.9-6.1,2.6-8.2
			c0.7-2,1.2-3.1,1.4-3.2c0.6-0.4,1.3-0.5,1.9-0.5c0.6,0,1.4,0.1,2,0.3c1,0.3,2,0.8,3,1.4c1,0.5,1.5,1.3,1.6,1.9
			c0,0.2-0.2,1.5-0.7,4c-0.5,2.5-1.2,5.6-2,9.4c-0.8,3.8-1.8,8.1-2.8,12.7c-1,4.7-3.6,13.3-3.2,13.9c0.5,0.7,6.8,0.3,9.3,0.4
			c2.5,0.2,5.7,0.6,6,0.3c1.1-0.9,1.2-8.7,1.9-13c0.7-4.3,1.4-8.2,2.1-11.8c0.7-3.6,1.4-6.7,2-9.3c0.7-2.6,1.2-4.6,1.8-5.3
			c0.3-0.4,0.7-0.7,1-0.9c0.3-0.3,0.9-0.3,1.9-0.2C216.2,413,217.6,414.1,217.9,415.9z"/>
		<path fill="#CD7E2C" d="M232.7,409.3c0.7-0.5,1.8-0.8,3.5-0.7c1.5,0.1,2.9,0.4,4.2,1c1.4,0.6,2,1.5,2,2.7c0,0.9-0.2,2.9-0.6,6
			c-0.4,3.2-0.7,6.8-1.2,10.8c-0.4,4.1-0.8,8.2-1.3,12.5c-0.4,4.3-0.7,8-0.9,11.1c-0.1,3.1-0.1,6,0,8.7c0.1,2.7,0.3,5,0.6,6.9
			c0.3,1.9,0.6,3.4,1.1,4.5c0.5,1.1,1,1.6,1.6,1.6c1.7,0,3.2-1.4,4.3-4.4c1.1-3,2.1-6.7,2.8-11.3c0.7-4.5,1.2-9.4,1.6-14.7
			c0.3-5.3,0.6-10.2,0.8-14.8c0.2-4.6,0.3-8.4,0.4-11.5c0.1-3.1,0.2-4.7,0.2-4.9c0.3-0.5,0.6-0.8,1.2-1c0.5-0.2,1.1-0.3,1.8-0.3
			c0.7,0,1.2,0.1,1.8,0.3c0.5,0.2,0.9,0.5,1.1,0.9c0.1,0.2,0.2,0.7,0.3,1.4c0.1,0.7,0.3,1.9,0.4,3.6c0.1,1.7,0.3,4,0.4,7
			c0.1,2.9,0.2,6.7,0.4,11.4c0.4,14.2-1,24.8-4.6,31.8c-3.6,7-8.6,10.4-14.6,10.2c-5.9-0.2-10.3-3.1-13-8.6
			c-2.6-5.5-3.4-12.8-2.6-21.9c0.4-4.6,1-9.1,1.8-13.5c0.8-4.4,1.6-8.5,2.4-12.1c0.8-3.6,1.6-6.6,2.3-8.9
			C231.5,411.1,232.1,409.7,232.7,409.3z"/>
		<path fill="#CD7E2C" d="M289.1,418.9c0.1,0.7-0.1,1.3-0.5,1.7c-0.4,0.4-0.9,0.7-1.4,0.7c-0.6,0.1-1.1,0-1.6-0.3
			c-0.5-0.3-0.7-0.8-0.8-1.5c-0.1-0.7-0.2-1.4-0.4-2.2c-0.2-0.8-0.5-1.6-0.8-2.3c-0.3-0.7-0.8-1.3-1.3-1.8c-0.5-0.5-1.2-0.7-1.9-0.6
			c-0.3,0-0.7,0.1-1.2,0.3c-0.5,0.2-1,0.5-1.4,0.9c-0.5,0.5-0.8,1.1-1.2,1.8c-0.3,0.7-0.4,1.7-0.3,2.8c0.3,3.3,1.3,6.8,3.3,10.5
			c2,3.7,4.2,7.6,6.7,11.7c2.5,4.1,5,8.4,7.3,12.9c2.4,4.5,3.9,9.3,4.6,14.3c0.8,6-0.4,10.8-3.8,14.3c-3.4,3.5-7.8,5.5-13.1,6
			c-3.3,0.3-5.9-0.2-7.7-1.6c-1.9-1.3-3.3-3-4.2-5.1c-1-2-1.6-4.2-1.8-6.5c-0.2-2.3-0.4-4.3-0.5-6c0-0.4,0.2-0.7,0.7-1
			c0.5-0.2,1-0.4,1.6-0.4c0.6,0,1.1,0,1.6,0.2c0.5,0.1,0.7,0.4,0.8,0.8c0,0.5,0.2,1.5,0.4,3.1c0.2,1.6,0.7,3.3,1.3,5
			c0.6,1.7,1.5,3.3,2.5,4.6c1.1,1.3,2.6,1.9,4.4,1.7c0.6-0.1,1.3-0.2,2-0.5c0.7-0.3,1.5-0.8,2.1-1.5c0.7-0.7,1.2-1.8,1.6-3.1
			c0.4-1.4,0.5-3.1,0.2-5.4c-0.5-4.8-1.9-9.4-4.3-13.9c-2.4-4.4-4.9-8.7-7.5-12.8c-2.6-4.1-4.9-8.1-7-12c-2-3.8-3.1-7.5-3.2-10.8
			c0-1.1,0.1-2.6,0.5-4.2c0.3-1.7,1-3.3,2.1-4.9c1-1.6,2.5-3,4.4-4.2c1.9-1.2,4.3-1.9,7.4-2.3c2.3-0.2,4,0.1,5.4,0.9
			c1.3,0.9,2.4,2,3.1,3.3c0.7,1.3,1.3,2.7,1.5,4C288.8,417.1,289,418.1,289.1,418.9z"/>
		<path fill="#CD7E2C" d="M304,412.6c1-0.1,2.2-0.1,3.3,0c1.1,0.1,1.8,0.4,2.1,0.9c0.1,0.2,0.4,1.7,0.9,4.6c0.5,2.9,1,6.4,1.7,10.6
			c0.7,4.2,1.4,8.8,2.1,13.7c0.7,4.9,1.4,9.5,2,13.7c0.6,4.3,1.1,7.9,1.5,10.8c0.4,3,0.6,4.6,0.7,4.9c0.1,0.5-0.1,0.8-0.7,1.1
			c-0.6,0.3-1.2,0.5-2,0.7c-1.2,0.2-2.4,0.3-3.7,0.2c-1.3-0.1-2-0.4-2.2-0.9c-1.6-4-3-8.1-4.1-12.5c-1.1-4.4-2-8.8-2.7-13.1
			c-0.7-4.3-1.3-8.4-1.7-12.4c-0.4-3.9-0.8-7.4-0.9-10.4c-0.2-3-0.3-5.5-0.3-7.4c0-1.9,0-2.9,0.2-3c0.6-0.4,1.2-0.9,1.8-1.1
			C302.6,412.9,303.3,412.7,304,412.6z"/>
		<path fill="#CD7E2C" d="M335.6,399.5c1.9,0.9,3.9,3,6,6.2c2,3.2,4.1,6.9,6.1,11.2c2,4.3,3.9,8.9,5.7,13.8
			c1.8,4.9,3.5,9.4,4.9,13.7c1.4,4.3,2.6,8,3.6,11.2c1,3.2,1.6,5.2,1.9,6.1c0.4,1.3,0.2,2.5-0.8,3.4c-1,0.9-2.2,1.6-3.6,2.1
			c-1.6,0.5-3.1,0.7-4.5,0.5c-1.4-0.1-2.3-0.6-2.5-1.4c-0.1-0.4-0.4-1.3-0.8-2.8c-0.4-1.5-1.6-5.6-2-5.7c-0.4-0.2-3.4,1.7-5.3,2.4
			c-1.9,0.7-3.8,1.3-5.7,1.8c-1,0.3-1.6,0.4-2.6,0.7c0.7,3.9,1.5,7.8,2.4,11.6c0.1,0.4-0.3,0.8-1.2,1.3c-0.9,0.5-1.8,0.9-2.8,1.1
			c-1.4,0.3-2.2,0.2-2.3-0.3c-0.9-3.7-1.7-7.9-2.5-12.7c-0.8-4.8-1.6-9.7-2.4-14.8c-0.8-5.1-1.4-10.2-2-15.2c-0.6-5-1-9.7-1.3-14
			c-0.2-4.3-0.3-8-0.1-11.2c0.2-3.2,0.7-5.4,1.4-6.6c0.8-1.3,2.2-2.3,4.1-2.8c1-0.3,2.1-0.4,3.2-0.3
			C333.5,398.7,334.6,399,335.6,399.5z M335.3,460.3c0.6,0.4,4.9-1.5,7.3-2.5c2.4-1,5.8-2.3,6.1-2.8c0.4-1-2.1-6.2-3.3-9.7
			c-1.2-3.5-2.5-7.1-3.8-10.8c-1.3-3.6-2.6-7.2-3.8-10.6c-1.2-3.4-2.4-6.5-3.4-9.1c-1-2.6-1.9-4.7-2.6-6.3c-0.7-1.6-1.2-2.3-1.4-2.3
			c-0.5,0.1-0.7,1.7-0.7,4.8c0,3,0.3,7.1,0.7,12.1c0.4,5,1,10.8,1.9,17.2C333,446.6,334.2,459.6,335.3,460.3z"/>
		<path fill="#CD7E2C" d="M379.4,394.8c0.3,0.6,0.3,1.2,0.1,1.7c-0.3,0.5-0.6,0.9-1.1,1.1c-0.5,0.3-1.1,0.4-1.6,0.3
			c-0.5-0.1-0.9-0.5-1.2-1.1c-0.3-0.6-0.6-1.2-1.1-1.9c-0.5-0.7-1-1.3-1.5-1.8c-0.5-0.5-1.1-0.9-1.8-1.1c-0.7-0.2-1.3-0.2-2,0.1
			c-0.3,0.1-0.7,0.4-1.1,0.7c-0.4,0.3-0.8,0.8-1.1,1.3c-0.3,0.6-0.5,1.2-0.6,2c-0.1,0.8,0.1,1.6,0.5,2.6c1.3,2.8,3.4,5.6,6.4,8.2
			c3.1,2.6,6.4,5.4,10.1,8.2c3.7,2.8,7.3,5.8,11,9c3.7,3.2,6.6,6.9,8.8,11.2c2.6,5.1,2.9,9.8,0.7,14c-2.2,4.2-5.8,7.5-10.8,9.7
			c-3,1.4-5.7,1.7-7.9,1.2c-2.2-0.5-4.1-1.6-5.6-3.1c-1.5-1.5-2.8-3.2-3.7-5.2c-0.9-2-1.7-3.7-2.3-5.2c-0.1-0.4,0-0.7,0.4-1.1
			c0.4-0.4,0.8-0.7,1.4-0.9c0.5-0.2,1.1-0.4,1.6-0.4c0.5,0,0.8,0.1,1,0.5c0.2,0.4,0.6,1.3,1.3,2.6c0.7,1.3,1.6,2.7,2.7,4
			c1.1,1.3,2.4,2.4,3.9,3.2c1.5,0.8,3,0.8,4.7,0.1c0.6-0.2,1.2-0.6,1.8-1.1c0.6-0.5,1.2-1.2,1.6-2.1c0.4-0.9,0.6-2,0.6-3.3
			c-0.1-1.3-0.5-3-1.4-4.8c-1.9-4.1-4.8-7.7-8.4-10.9c-3.7-3.1-7.4-6.1-11.2-8.9c-3.8-2.8-7.2-5.6-10.3-8.3
			c-3.1-2.7-5.2-5.6-6.4-8.6c-0.4-1-0.7-2.3-0.9-3.9c-0.2-1.6,0-3.3,0.5-5.1c0.5-1.8,1.5-3.5,2.9-5.2c1.4-1.7,3.6-3.2,6.4-4.5
			c2.1-1,3.9-1.3,5.4-1c1.5,0.3,2.9,0.9,4,1.9c1.1,0.9,2,1.9,2.7,3.1C378.5,393.3,379,394.2,379.4,394.8z"/>
		<path fill="#CD7E2C" d="M401.1,355.1c0.1-0.1,0.2-0.1,0.3-0.2c0.8-0.5,1.5-0.6,2.1-0.4c0.6,0.2,1.1,0.6,1.4,1.1
			c0.3,0.5,0.5,1.1,0.4,1.8c-0.1,0.7-0.4,1.2-1,1.7c-1.7,1.3-3.5,2.6-5.2,3.9c-1.6,1.2-4.7,3.3-4.7,3.6c0,0.1,1.1,1.7,2.6,4.5
			c1.5,2.8,3.4,6.2,5.5,10.3c2.1,4.1,4.4,8.5,6.8,13.3c2.4,4.8,4.6,9.3,6.7,13.4c2.1,4.1,3.9,7.7,5.3,10.6c1.4,2.9,2.2,4.5,2.4,4.8
			c0.2,0.3,0.1,0.8-0.4,1.3c-0.4,0.5-1,1-1.7,1.4c-1.1,0.6-2.3,1.1-3.5,1.3c-1.2,0.3-2.1,0.2-2.5-0.2c-3.8-3.9-7.3-9.7-10.5-15.3
			c-3.2-5.6-6.1-11-8.6-16.2c-2.5-5.2-4.6-10-6.4-14.2c-1.7-4.2-3.4-9.2-3.6-9.2c-0.2-0.1-2.1,1.6-2.9,2.2c-0.9,0.6-1.6,1.2-2.1,1.6
			c-0.7,0.5-1.3,1-1.8,1.5c-0.2,0.1-0.3,0.2-0.6,0.3c-0.7,0.3-1.3,0.4-1.9,0.2c-0.6-0.2-1.1-0.6-1.4-1.1c-0.3-0.5-0.5-1.1-0.5-1.7
			c0-0.6,0.3-1.1,0.8-1.6c2.2-1.7,4.9-3.5,7.5-5.5c2.7-2,5.2-3.8,7.5-5.6c2.4-1.8,4.5-3.4,6.3-4.7
			C399.2,356.6,400.4,355.6,401.1,355.1z"/>
	</g>
	<path fill="#CD7E2C" d="M431.8,364.6c-13.9,0-13.9,21.6,0,21.6C445.8,386.2,445.8,364.6,431.8,364.6z"/>
	<path fill="#CD7E2C" d="M46,364.6c-13.9,0-13.9,21.6,0,21.6S59.9,364.6,46,364.6z"/>
</g>
</svg>
