<svg xmlns="http://www.w3.org/2000/svg" width="230" height="200" viewBox="0 0 483.53 334.35"><defs><style>.cls-1{fill:#ff6ca8;}.cls-2{fill:#707070;}</style></defs><title>World&amp;apos;s best Grandma</title><g id="Слой_2" data-name="Слой 2"><path class="cls-1" d="M419.67,334.5a29.49,29.49,0,0,0,13.58-4.42A30.94,30.94,0,0,0,445.58,315a36.09,36.09,0,0,1-19.33,11.17,37.81,37.81,0,0,1-12.33.16c-4.05-.6-5.18-1.44-9.55-2.94,7.63-3.6,16.37-11.21,16.38-20.39,0-1.14,0-6.22-3.58-9.25-3.87-3.26-9.45-2.07-10.92-1.75-11.15,2.39-17.16,15.43-19.5,20.5a51.6,51.6,0,0,0-2.59,6.86,19.29,19.29,0,0,0-3.91.81,21.21,21.21,0,0,0-8,4.75,31.54,31.54,0,0,1,11.05-1c-.45,2.83-.76,5.54-.94,8.1-2.65.73-5.68,1.59-9,2.6a23.41,23.41,0,0,0-3.17-4.92,34.57,34.57,0,0,0-4.06-3.93c.73-.6,1.51-1.28,2.31-2.07a25.91,25.91,0,0,0,5.66-7.67,19.79,19.79,0,0,0,2.09-7.75c.11-2.46.32-6.84-2.84-10.42a12.15,12.15,0,0,0-7.91-3.91c-4.7-.34-8,2.39-9.5,3.58-6.58,5.37-7,14-7.17,16.33-.26,4.92.92,8.65,2.25,12.84a38.57,38.57,0,0,0,1.45,3.9c-3.75,3.79-10.72,9.2-19.53,8.6a18,18,0,0,1-10.42-3.84c-6.94-5.71-6.46-15.38-6.3-18.66,0-.1,0-.31,0-.6l1.84-.07c5.13-.26,8.18-.41,11.92-1.67s8.9-3,11.42-8a11.28,11.28,0,0,0,.83-8.75,11.08,11.08,0,0,0-5.42-5.83,15.16,15.16,0,0,0-10.25-1.17c-8.4,1.66-16.84,10.85-19,21.83l-2.44-.22c-.11-.83-.25-1.67-.43-2.52a34.69,34.69,0,0,0-13.34-20.34C276.89,279,260,284.77,256.67,286a39.31,39.31,0,0,0-11.48,6.65c.24-8.22.61-14.9.81-17.65,1.6-22.09,10.32-38.17,14.67-46,5.92-10.66,11.6-20.78,23.66-28,2.55-1.53,23.37-13.62,38.34-4.67a21.72,21.72,0,0,1,7.66,7.67c6.54,11.35-.32,25.67-2,29.33-9.17,20-30.8,27.81-44.33,32.67a117,117,0,0,1-32.67,6.67,112.36,112.36,0,0,0,43-6.67c12.72-4.67,27-9.91,36.67-24.33,2.3-3.43,14.11-21.1,7-38.34a30.94,30.94,0,0,0-13.33-15c-12-6.47-25.23-2.19-32.67.34-43.73,14.82-64.75,70.86-66,74.33-16,44.29-3.46,75.75,1,80.67a13.86,13.86,0,0,0,5.67,3.66c4.09,1.22,9.38.23,12-3s1.87-7.54,1.66-9c-1.47-10.36-1.54-26.17-1.23-39.19,10.38-7.8,21.77-10.13,30-6.26,7.56,3.53,10.42,11.24,10.85,12.45a23.46,23.46,0,0,1,1.08,10.56,34.16,34.16,0,0,0-9-.47,26.64,26.64,0,0,0-10.08,2.5c-1.29.62-11.88,6-13.67,17.41-.32,2.1-1.39,8.9,3,14.34s11.62,5.88,14.34,6c10.62.47,18.3-6.27,20.66-8.34.86-.74,13.64-12.34,13.05-29l1.71.26c0,.55-.08,1.1-.09,1.66-.2,8.66,3.72,19.53,12.67,24.17,5.79,3,11.76,2.38,13.83,2.16a30.81,30.81,0,0,0,14.58-5.91,39,39,0,0,0,5.6-4.61,44.5,44.5,0,0,1,3.17,6.86c-7.61,2.59-12.5,4.6-17.18,7.7-6,4-17.93,11.85-18.34,23.55a21.38,21.38,0,0,0,4,12.66,20.53,20.53,0,0,0,10.3,6.94,25.63,25.63,0,0,0,17.45-.85,30.2,30.2,0,0,0,10.84-7.5A43.63,43.63,0,0,0,375,361.5c.56-2.55,2.9-13.27-.17-23.13,2.65-1,5.11-1.78,7.35-2.48a84.88,84.88,0,0,0,1.15,16.61c1.29,7.53,2.48,14,7.76,20,1.74,2,7.76,8.87,17.33,9.47,10.9.68,21.16-7.12,24.66-17a25.73,25.73,0,0,0,.34-15.42,19.78,19.78,0,0,1-6.92,13.67c-4.5,3.68-11.13,5.56-17.08,3.5s-8.77-7.29-11.34-12.17c-3.79-7.2-4.24-13.62-4.83-22-.15-2.16-.29-4.09-.37-5.87,2.05.92,4.54,2,8.12,3.37C409.57,333.27,413.86,334.87,419.67,334.5Zm-149.34,1.17c-.76.13-4.25.74-6.41-1.25s-2.17-6.09-1.25-8.75c2.59-7.51,14.12-10.64,22.41-10.25.54,0,1.06.06,1.57.11C284.5,325.62,277.07,334.48,270.33,335.67Zm56.25-38.92c2.42-1,7.06-2,9.5.5,1.95,2,1.72,5.41.92,7.58-1.82,4.94-7.79,6.63-10.58,7.42s-5.62.91-9.79.73C317.45,308,319.83,299.56,326.58,296.75ZM357,306c.32-1.27,1.33-5.29,4.83-6.58,3.11-1.15,6.64.41,8.5,2.58,2.88,3.34,1.77,8.05,1.17,10.58a21.5,21.5,0,0,1-7.35,11.4,24.27,24.27,0,0,1-5-6.65C356,311.26,356.62,307.51,357,306Zm1.5,65.33c-1.47,4.12-3.19,8.95-8,11.84s-12.32,3.73-16.5-.34c-3.41-3.32-3.08-8.53-3-9.83.65-10.28,10.67-17.28,17.67-22.17a69.11,69.11,0,0,1,9.8-5.7,55.24,55.24,0,0,1,1.7,10.37C360.42,359.67,360.74,365,358.5,371.33Zm48.58-73.41c1.08-.31,4-1.13,6.25.41,2.57,1.76,2.65,5.47,2.67,6.42.13,6.17-4.94,10.8-8.17,13.75a35.28,35.28,0,0,1-5.62,4.18h0c-3.29-1-6.33-2-9.23-2.6a29,29,0,0,1,1.56-7.24C395.23,310.74,398.91,300.21,407.08,297.92Z" transform="translate(-194.71 -146.7)"/><path class="cls-1" d="M271.67,189.33a41.74,41.74,0,0,0-11.17-22c-1.9-1.92-13.56-13.74-28.67-11.66-11.25,1.54-18.26,10-20.66,12.83-15.11,18.11-10.25,54.51,9.5,92.5a135.86,135.86,0,0,1-13.17-21.17c-3.81-7.59-8.82-17.57-11-31-1.84-11.34-4.6-28.4,5.5-43.33A42.59,42.59,0,0,1,223.67,149c2.91-.95,18.35-6,32.16,2.83C267.6,159.35,273.74,174.09,271.67,189.33Z" transform="translate(-194.71 -146.7)"/><path class="cls-2" d="M657.5,262.67a19,19,0,0,0-5.23-10.75C650,249.55,646.65,248,640,245l-1.3-.58c4.65-10.1,4.26-19.83-.61-24.35a13.65,13.65,0,0,0-8.28-3.39c-.65,0-7.2-.27-11.14,4.82-4.27,5.5-1.78,12.44-1.34,13.67,1.56,4.33,4.55,6.72,8.34,9.66a33.28,33.28,0,0,0,5.54,3.56c-2.3,3.21-7.83,9.65-15.88,10.28-1.71.13-4.79.37-7.33-1.5-3.4-2.5-3.79-7.26-4.17-12.84a68.5,68.5,0,0,1,.5-12.33c1-10.7.35-6.25,1.5-18.17.65-6.7.44-13.46,1-20.16.21-2.41.61-6.83-2-9a3.84,3.84,0,0,0-3-1c-2.63.56-3.66,5.62-4.16,8.5-2.28,13-1.95,28-1.16,39.06l-.18-.23c-4.74-5.73-13.18-7.7-20.16-6.17a22.86,22.86,0,0,0-13.5,9.34c-4.23,6-7.26,16-2.34,24.66a22.39,22.39,0,0,0,2.49,3.44,7.12,7.12,0,0,1-1.49.73,9.12,9.12,0,0,1-5.55-.26c-5.15-1.83-8.68-12.61-9.28-26.74a76.18,76.18,0,0,0,8.17-18.17c5.23-17.49,5.1-40.46-2-42.83a5.37,5.37,0,0,0-3.67.33c-5.51,2.19-6.69,11.31-7.5,18.67-2.31,20.88-3.61,32.23-1.82,46.86a32.93,32.93,0,0,1-2.51,4.31c-2.31,3.32-6.68,9.63-14.34,11.16A19.33,19.33,0,0,1,509.5,254c-8.09-4.82-12-16.49-9.43-29.19,7.21-.17,10.1-.92,11.43-1.31,4.37-1.27,8.87-2.58,11.5-6.83.57-.92,3.38-5.74,1.17-10.5a10.1,10.1,0,0,0-5.5-5c-5.16-1.92-10.29,1.28-12.5,2.66-7.5,4.68-10.05,12.86-10.9,16.68a52.37,52.37,0,0,1-7.1-.84,75.12,75.12,0,0,1-9.84-2.67c-3.53-1.26-3.81-1.7-6.83-2.67a31.73,31.73,0,0,0-11-2,24.28,24.28,0,0,0-10.67,2.84c-9.67,5.27-11.87,16.16-12,16.83a26.86,26.86,0,0,0,5.2,20.86,16,16,0,0,1-3-1.19c-6.38-3.33-10.11-10.92-10-19.5,1.51-4.87,3.34-10.89,5.33-17.84,2.41-8.36,4.25-15.26,3.34-23.83-.67-6.18-2.11-7.1-2.84-7.33-2.69-.85-6.5,4.35-7.83,6.16-8.14,11.1-6.82,30.29-4.83,43-.06.68-.81,8.09-7,11.34-.86.45-6.45,3.38-10.84.16-4-3-3.53-8.51-3.5-8.83a40.5,40.5,0,0,0,3.17-5.83,39.36,39.36,0,0,0,3.33-19.67c-.33-3.2-1.14-11.06-4.83-12-2.5-.64-5.21,2.18-6,3-7.13,7.41-7.5,24.2-2.84,36-1.42,3-5.65,10.54-12.49,11a10.67,10.67,0,0,1-5.17-1c-4.18-1.91-8.67-7.16-11.46-23.79a44.34,44.34,0,0,0,4.13-4.54c14.63-18.63,13.65-49.86,3.66-54.5a8.07,8.07,0,0,0-5.83-.17c-4.89,1.77-7.64,8.75-8.83,21.33-2.28,23.92,1.37,64.61,16.48,67.53,3.63.71,8.72-.63,12.52-2.69a23.39,23.39,0,0,0,9-8.92c2.13,3.68,4.86,6.49,8.14,7.75a16.19,16.19,0,0,0,9.67.17c7.07-2.23,10.08-9.1,10.67-10.5a29,29,0,0,0,3.5,7.83,26.84,26.84,0,0,0,9.66,9.33,26.14,26.14,0,0,0,11.09,3.21,22,22,0,0,0,3.75,1.79c9.58,3.5,20-.06,26.16-6.66a24.91,24.91,0,0,0,6.5-16,24.65,24.65,0,0,0-3.62-13.47c4.61.4,8.54.55,11.62.61h0a45.08,45.08,0,0,0,0,11.52c.77,5.92,1.73,13.35,7.5,19,7.55,7.38,18.07,6.57,18.84,6.5,8.26-.76,15.84-6.19,20.5-14.34,1.82,10.34,4.32,15.58,8.74,17.94A13.87,13.87,0,0,0,564.47,264a17.55,17.55,0,0,0,8,4.36C581.72,270.4,593,264.1,599,252c.89,4,2.44,7.79,5.88,10a14.17,14.17,0,0,0,8.17,1.83c6.73-.17,11.53-4.17,15.5-7.5a43.13,43.13,0,0,0,6.15-6.33,34.61,34.61,0,0,1,8,4.83c3.69,2.93,6.41,5.16,7.66,9.17.3,1,2.27,7.63-2,12.5-3.54,4-9.19,4.35-12.66,3.5a20.73,20.73,0,0,1-9.5-6c-1.82-2-2.71-3.73-4.5-3.83s-4,1.41-4.17,3c-.48,4.29,13.57,12.89,25.83,9.66a19.17,19.17,0,0,0,10.34-6.5A18.93,18.93,0,0,0,657.5,262.67Zm-288-91.77a2.42,2.42,0,0,1,1.37-.07c4.3,1.21,3.64,16.35,2.5,24.5a55.68,55.68,0,0,1-5.16,17.5,51.86,51.86,0,0,1-3.28,5.6h0C362.25,198.8,362.68,173,369.46,170.9Zm106.87,78.93c-1.21,1.7-6,7.79-13.66,8-8.58.24-14.87-7-17.34-13-2.86-6.91-2.37-16.35,3.67-22.33a17.65,17.65,0,0,1,13-5.14,17.41,17.41,0,0,1,11.53,5.42l0,.05a21.4,21.4,0,0,1,5,7.67C478.89,231.54,482.39,241.38,476.33,249.83Zm30.5-41.33c2.11-1.08,5.86-2.07,7.17-.5s0,5.09-1.83,7.33c-2.91,3.65-7.94,4.9-12.68,5.17a19.16,19.16,0,0,1,1.34-4.67C501.65,213.93,503.19,210.36,506.83,208.5Zm88.84,43.33a19.26,19.26,0,0,1-6.84,6.67c-1.82,1-5.9,3.28-10.5,2.17-5.92-1.43-9.49-7.69-10.16-13-.08-.64-.92-8.24,4.83-13.67a15.25,15.25,0,0,1,9-4.17c5.69-.43,11.49,2.93,15.12,8.65.35,3.57.7,6.26.88,7.69A19.54,19.54,0,0,1,595.67,251.83ZM623,229.33c0-1-.21-5,2.33-6.5,2.21-1.3,5,.08,5.5.34a8.77,8.77,0,0,1,4,5.33c1,3.07.51,5.8-.33,10.17-.27,1.39-.56,2.59-.84,3.62a15,15,0,0,1-5.16-3C627.12,238.11,623.22,234.53,623,229.33Z" transform="translate(-194.71 -146.7)"/><path class="cls-2" d="M620.17,193.5c1.53-.7,7.85-3.82,10.16-10.83C631.81,178.18,632,171,628,168c-1.54-1.16-4.29-2.16-6.17-1s-2,4.18-2,4.67c0,3.85,2.84,5.4,4,8.5C624.82,182.79,624.71,186.9,620.17,193.5Z" transform="translate(-194.71 -146.7)"/><path class="cls-2" d="M654.33,464.67c-.3-.27-2.59,3.77-6.33,3.83a8,8,0,0,1-5.5-2.5c-3.41-3.15-4.24-7.65-4.83-14.83a174.37,174.37,0,0,1-.48-20.62l-.06,0a11.16,11.16,0,0,0-5.64,7.05,14.82,14.82,0,0,0-4-2.3c-6.53-2.48-12.58.67-13.5,1.17-7.29,3.95-10.77,13.27-8.83,21,.35,1.4,1.85,7.39,7.66,10.5.25.13.49.24.73.35-1.85,4.75-5.66,8.17-10.06,8.82-5.16.76-9.24-2.55-10-3.17-3.06-2.49-4.18-5.56-5.5-9.33-2-5.65-1-7.12-2.83-14.17-1.52-5.75-2.35-8.65-5-10.67-4.64-3.52-10.82-1.66-11.34-1.5-6.76,2.15-9,8.84-9.16,9.5-.17-.5-2-5.83-6.84-7-3.52-.85-6.48,1-8.5,2.34a17.63,17.63,0,0,0-5,4.83l-.54-6.17-.06.05a14.68,14.68,0,0,0-5.43,12.4q.52,7.71,1,15.44c-1.2,1.61-3.07,3.53-5,3.28a3.66,3.66,0,0,1-1.73-.82c-5.67-4.78-5.16-46.41-5.1-54.85,0-2.34,0-4.41,0-6.07a2.85,2.85,0,0,0-2.93-2.84h-.06a2.84,2.84,0,0,0-2.76,2.78c-.16,6.89-.36,21.51.36,35.24a16.37,16.37,0,0,0-4.8-1.61c-7.29-1.22-12.79,3-13.83,3.84s-8,6.38-7.5,15.16a18.24,18.24,0,0,0,1.13,5.34c-1.46,3.53-4.22,6-7.3,6.33a7.36,7.36,0,0,1-5.16-1.33c-1.56-1.21-2.35-3-3-8-.62-4.72-.46-7.2-.67-13.17-.26-7.32-.7-9-1.5-10.67s-2.36-4.92-5.5-5.83c-3.62-1.05-7.16,1.68-10.17,4a30.3,30.3,0,0,0-7,7.69c-.17-2.16-.36-4.63-.53-7.19-.27-4.11-.37-6.69-1.5-7-1.36-.38-3.33,2.8-3.66,3.33-2.81,4.52-2.6,9.13-2,17.84.23,3.34.43,6.11.64,8.42-.7,3.06-2.59,5.36-5,5.91A6.14,6.14,0,0,1,436,469c-1.6-.69-4-2.33-6-7.33-.63-1.6-2.95-7.92-1.17-20.5,1-6.8,2.46-10.77,1.34-11.34s-3.6,2.35-5.57,4.86h0a24,24,0,0,0-3.76-3.69,22.44,22.44,0,0,0-11-4.83,22.71,22.71,0,0,0-16,4.33c-6.52,4.78-8.39,11.52-9.16,14.5-.9,3.43-3.36,12.87,2.66,21.17.32.44.67.86,1,1.28a8.58,8.58,0,0,1-3.85,2.88,9.62,9.62,0,0,1-7.67-.83c-7.48-4-7.49-16.5-7.5-19.33A35.65,35.65,0,0,1,375.17,431h-.07a11,11,0,0,0-8.65,6.47c-1.71,3.82-4.8,8.5-10.05,10.63a27.93,27.93,0,0,0-.73-6.28c-.65-2.7-1.55-6.28-4.84-8.66a11.52,11.52,0,0,0-8-2,10.27,10.27,0,0,0-7.05,4c-3.15,4.49-.81,9.86-.61,10.29,2.3,5.05,7.78,6.41,9.5,6.83a16.37,16.37,0,0,0,5.86.34A23.64,23.64,0,0,1,347,464c-1.19,1.92-5.07,8.17-12.67,10.17a16.28,16.28,0,0,1-10.83-.5,16,16,0,0,1-7.83-7.84c-2.24-4.52-1.82-8.7-1.5-11.83A29.09,29.09,0,0,1,318,442.33l-2.67.31a5.67,5.67,0,0,0-4.29,2.93,14.65,14.65,0,0,1-6.68,6.33c-.28-4-1.61-9.42-6.36-12.9-3.16-2.32-9.85-5.32-14.75-1.75A10.5,10.5,0,0,0,279.5,448c1.28,5.08,6.29,7,8.75,8a18.27,18.27,0,0,0,9.92.88,19.51,19.51,0,0,1-2.92,7.62c-6.62,9.91-21.35,8.67-23.25,8.5-14.39-1.25-27.06-12.8-31.75-26.5-6.68-19.51,5.24-36.24,7.75-39.75,3-4.16,8.34-11.69,18.5-14.75,2-.6,15.1-4.31,26.25,4a28.21,28.21,0,0,1,8.81,11.14,3.17,3.17,0,0,0,4.31,1.55l.06,0a3.18,3.18,0,0,0,1.61-3.8A27.08,27.08,0,0,0,302,395c-10.69-12-28.59-9.17-31.25-8.75-15.24,2.41-24.19,13.14-26.5,16-12.18,15.06-15.53,39.19-4,56.75,1.49,2.27,10.51,15.52,27.25,18.5,2.91.52,16.72,3,27.5-5.75,2-1.61,8.1-6.56,9.25-15,0-.18.07-.58.11-1.13l4.64-1.95a20.07,20.07,0,0,0,8.33,21.5c8,5.48,17.12,3.19,19,2.66,9.87-2.76,14.44-11,16.17-14.16a34.44,34.44,0,0,0,3.75-12.45c1.08-.41,2.06-.84,2.92-1.22a31.72,31.72,0,0,0,4.83-2.67,28.62,28.62,0,0,0,1.5,15.43c1.2,3,2.73,6.79,6.83,9.41a15.56,15.56,0,0,0,11.84,2,15,15,0,0,0,6.95-4,21.23,21.23,0,0,0,14.88,5c7.34-.53,14.08-5.32,17.85-12.47.93,2.88,3.21,7.95,8.29,10.37a10.25,10.25,0,0,0,6.86,1.1,10.42,10.42,0,0,0,6.42-5.06c.54,3.69,1.17,4.93,2.19,5.15,1.37.3,3.12-1.33,3.22-1.43a6.69,6.69,0,0,0,1.84-4.16,65.4,65.4,0,0,0-.17-13.17c0-.42-.17-1.74-.33-3.63,2.07-3.83,5.06-7.73,9.33-9.87,1.31-.66,3.71-1.82,5.5-.83s2.07,3.71,2.33,9.16c.53,11.11,0,10.81.5,14,.58,3.75,1.79,11.56,7.5,14.34a10.79,10.79,0,0,0,6.34.83c5.4-.8,8.51-5.15,9.8-7.45a15.1,15.1,0,0,0,9.36,7.28,16.2,16.2,0,0,0,17.67-7.5l0-.41c.87,2.73,1.93,4.65,3.21,5.41a7.71,7.71,0,0,0,11-2.35l.44,6.57.07,0a9.53,9.53,0,0,0,6.17-9.75q-.86-9.93-1.72-19.86a10.81,10.81,0,0,1,6-4.92,8.54,8.54,0,0,1,6,.33c.84.41,3.49,1.93,5.33,9.34,2.45,9.85,0,16.4,3,17.83a3.34,3.34,0,0,0,3.23-.34c3-2.2-1.07-8.88.27-19.83.68-5.57,2.21-7.74,3.67-9,.55-.47,3.48-2.89,6.66-2a7.24,7.24,0,0,1,3.84,3.17,16,16,0,0,1,2.5,8.17,44.38,44.38,0,0,0,4.5,15.83c1.15,2.1,4,7.33,10,9.5A17.72,17.72,0,0,0,613,475.17a17,17,0,0,0,3.62-5.81,16.85,16.85,0,0,0,9.21-.86,16.54,16.54,0,0,0,7.92-6.58A14.52,14.52,0,0,0,636.5,467a12.39,12.39,0,0,0,6,4.17,9.61,9.61,0,0,0,5.33.16C652.49,470,654.66,465,654.33,464.67ZM294,453.25c-3.83-.56-9.94-3-10.25-7.25a5.89,5.89,0,0,1,3.57-5.7c3.73-1.29,7.73,3.36,8,3.7a14.78,14.78,0,0,1,3.09,9.22A15,15,0,0,1,294,453.25Zm51.33-4.92c-.83-.38-5.17-2.36-5.66-6.33-.23-1.81.28-4.56,2.33-5.67a5.09,5.09,0,0,1,4.17,0c3,1.44,3.6,5.76,4,9,.14,1.13.3,2.5.38,4A11.86,11.86,0,0,1,345.33,448.33Zm62.34,22.17a16.59,16.59,0,0,1-12-3.83c-5.17-4.39-5.73-10.56-6-13.5-.2-2.16-1-11.41,5.83-18a18.74,18.74,0,0,1,12.5-5.34c6,0,11.76,3.31,15.62,8.72a53.23,53.23,0,0,0-.95,5.78,55.47,55.47,0,0,0,.05,12.48,23.26,23.26,0,0,1-1.22,2.69C420.34,461.66,416.09,469.58,407.67,470.5Zm108.66,1.67a11.57,11.57,0,0,1-7.66,3.5c-5.47.16-8.93-4.1-9.67-5-4.46-5.48-2.76-12.16-2.67-12.5s2.23-7.69,9.34-9.67a13.64,13.64,0,0,1,11.72,2.31,130.58,130.58,0,0,0,2,16.19A12,12,0,0,1,516.33,472.17ZM632.17,459c-.58,1-4.51,7.48-10.84,7.17-5-.25-8.08-4.66-8.66-5.5-4.74-6.86-.69-15.13-.5-15.5.71-1.4,2.34-4.61,5.83-6.17,3.89-1.74,8.83-.88,13.16,2.12.08,3.39.28,6.38.51,8.88a78.77,78.77,0,0,0,1.06,7.92C632.56,458.28,632.38,458.64,632.17,459Z" transform="translate(-194.71 -146.7)"/></g><g id="Слой_3" data-name="Слой 3"><path class="cls-2" d="M607.33,305.88q70.13-35.7,70.9-34.24t-67.4,39.86Z" transform="translate(-194.71 -146.7)"/><path class="cls-2" d="M620.72,333.54,674.67,340l-54,1Z" transform="translate(-194.71 -146.7)"/><path class="cls-2" d="M496.17,366.17c-1.06-2.23-2.11-4.45-3.17-6.67l-57.85,33.11L431.5,387l-6,2.5,11.8,18.83,5.34-4.16L439,398.6Z" transform="translate(-194.71 -146.7)"/><path class="cls-2" d="M491.67,332.67l-39.34-4.16q.26-2.92.5-5.84l-6.5.16-1.5,19.67,6.34-.5.5-5.81,39.16,4.48Z" transform="translate(-194.71 -146.7)"/></g><g id="Слой_4" data-name="Слой 4"><path class="cls-1" d="M495.83,352.83a52.49,52.49,0,0,0,3,14.67c7.38,20.3,27.29,34,46.84,37.83,21.46,4.25,38.74-4.06,44.5-7.16-6.86,1.47-31.92,6-58.17-8A86,86,0,0,1,495.83,352.83Z" transform="translate(-194.71 -146.7)"/><path class="cls-1" d="M495.33,343.17c3.6,8.62,13,27.68,33.84,40.33A86.6,86.6,0,0,0,556.83,394a91.82,91.82,0,0,0,42.34-1.67,33.47,33.47,0,0,0,11.66-13.5,104.73,104.73,0,0,1-47.33-2c-40.25-11.31-60.15-43.83-64.83-52a47.87,47.87,0,0,0-3.34,18.34Z" transform="translate(-194.71 -146.7)"/><path class="cls-1" d="M500.33,321.17a109,109,0,0,0,20.5,27C526.89,354,545,370.9,574.17,376A99.32,99.32,0,0,0,613,375a28.2,28.2,0,0,0,3.5-8.5,27.53,27.53,0,0,0,.67-4.83c-10.94,1-44.47,2.66-76.34-19a113.26,113.26,0,0,1-33.33-35.5,41.75,41.75,0,0,0-4.5,7.16A42.64,42.64,0,0,0,500.33,321.17Z" transform="translate(-194.71 -146.7)"/></g><g id="Слой_6" data-name="Слой 6"><path class="cls-1" d="M532,329.61c1.92,1.79,4,3.63,6.3,5.47a116.33,116.33,0,0,0,10,7.25A59.86,59.86,0,0,1,555,332.5c13.34-16,31.39-20.41,36.83-21.67a72.79,72.79,0,0,1,15-1.83,52.41,52.41,0,0,0-16.21-14.85c-10.84.09-26.3,2.49-40.29,13.18A64.52,64.52,0,0,0,532,329.61Z" transform="translate(-194.71 -146.7)"/><path class="cls-1" d="M607,353a26.88,26.88,0,0,0-4.3,5,128.07,128.07,0,0,0,15.47-.52,92.27,92.27,0,0,0,.36-10.66A27.36,27.36,0,0,0,607,353Z" transform="translate(-194.71 -146.7)"/><path class="cls-1" d="M583.5,347.33a83.06,83.06,0,0,0-7.16,7.11,117.14,117.14,0,0,0,21.88,3.38,38.17,38.17,0,0,1,14.61-13.15,35.31,35.31,0,0,1,5.48-2.19c0-.6-.09-1.2-.14-1.81a94.34,94.34,0,0,0-1.55-11.17,81.74,81.74,0,0,0-33.12,17.83Z" transform="translate(-194.71 -146.7)"/><path class="cls-1" d="M578.67,345.5a93.23,93.23,0,0,1,36.92-20.07,49.18,49.18,0,0,0-3.26-8.26c-.49-1-1-1.91-1.52-2.8-6.6,0-24.55.88-40.81,13.63a63.36,63.36,0,0,0-15.49,17.81A80,80,0,0,0,571.27,353,88.13,88.13,0,0,1,578.67,345.5Z" transform="translate(-194.71 -146.7)"/><path class="cls-1" d="M532.33,292.17a57,57,0,0,1,20.87-8.58,56.27,56.27,0,0,0-8,.91c-18.49,3.44-30.18,14.77-34.67,19.67,1.2,1.85,2.67,4,4.44,6.44A57.47,57.47,0,0,1,532.33,292.17Z" transform="translate(-194.71 -146.7)"/><path class="cls-1" d="M528.48,326.23c4.42-7.79,16.19-25.17,38.52-32.56a65.11,65.11,0,0,1,17.11-3.21,64.89,64.89,0,0,0-22-6.59c-13.42,2.56-31.36,8.82-42.12,24.46a49.74,49.74,0,0,0-3,5c1.09,1.4,2.25,2.84,3.51,4.34C521.41,318.74,524.25,322.05,528.48,326.23Z" transform="translate(-194.71 -146.7)"/></g></svg>
